%TF.GenerationSoftware,KiCad,Pcbnew,5.1.12-84ad8e8a86~92~ubuntu20.04.1*%
%TF.CreationDate,2023-02-19T01:27:16+01:00*%
%TF.ProjectId,tp5000_lifepo4_charger,74703530-3030-45f6-9c69-6665706f345f,rev?*%
%TF.SameCoordinates,Original*%
%TF.FileFunction,Copper,L1,Top*%
%TF.FilePolarity,Positive*%
%FSLAX46Y46*%
G04 Gerber Fmt 4.6, Leading zero omitted, Abs format (unit mm)*
G04 Created by KiCad (PCBNEW 5.1.12-84ad8e8a86~92~ubuntu20.04.1) date 2023-02-19 01:27:16*
%MOMM*%
%LPD*%
G01*
G04 APERTURE LIST*
%TA.AperFunction,SMDPad,CuDef*%
%ADD10R,2.500000X1.800000*%
%TD*%
%TA.AperFunction,ComponentPad*%
%ADD11R,4.000000X4.000000*%
%TD*%
%TA.AperFunction,SMDPad,CuDef*%
%ADD12R,2.400000X4.200000*%
%TD*%
%TA.AperFunction,ComponentPad*%
%ADD13O,1.600000X1.000000*%
%TD*%
%TA.AperFunction,ComponentPad*%
%ADD14O,2.100000X1.000000*%
%TD*%
%TA.AperFunction,SMDPad,CuDef*%
%ADD15R,1.450000X0.300000*%
%TD*%
%TA.AperFunction,SMDPad,CuDef*%
%ADD16R,1.450000X0.600000*%
%TD*%
%TA.AperFunction,SMDPad,CuDef*%
%ADD17R,2.100000X2.100000*%
%TD*%
%TA.AperFunction,SMDPad,CuDef*%
%ADD18R,0.650000X1.060000*%
%TD*%
%TA.AperFunction,ViaPad*%
%ADD19C,0.800000*%
%TD*%
%TA.AperFunction,Conductor*%
%ADD20C,1.500000*%
%TD*%
%TA.AperFunction,Conductor*%
%ADD21C,0.500000*%
%TD*%
%TA.AperFunction,Conductor*%
%ADD22C,1.000000*%
%TD*%
%TA.AperFunction,Conductor*%
%ADD23C,0.250000*%
%TD*%
%TA.AperFunction,Conductor*%
%ADD24C,0.254000*%
%TD*%
%TA.AperFunction,Conductor*%
%ADD25C,0.100000*%
%TD*%
G04 APERTURE END LIST*
%TO.P,C1,1*%
%TO.N,VIN*%
%TA.AperFunction,SMDPad,CuDef*%
G36*
G01*
X93425001Y-117787500D02*
X92574999Y-117787500D01*
G75*
G02*
X92325000Y-117537501I0J249999D01*
G01*
X92325000Y-116462499D01*
G75*
G02*
X92574999Y-116212500I249999J0D01*
G01*
X93425001Y-116212500D01*
G75*
G02*
X93675000Y-116462499I0J-249999D01*
G01*
X93675000Y-117537501D01*
G75*
G02*
X93425001Y-117787500I-249999J0D01*
G01*
G37*
%TD.AperFunction*%
%TO.P,C1,2*%
%TO.N,GND*%
%TA.AperFunction,SMDPad,CuDef*%
G36*
G01*
X93425001Y-114912500D02*
X92574999Y-114912500D01*
G75*
G02*
X92325000Y-114662501I0J249999D01*
G01*
X92325000Y-113587499D01*
G75*
G02*
X92574999Y-113337500I249999J0D01*
G01*
X93425001Y-113337500D01*
G75*
G02*
X93675000Y-113587499I0J-249999D01*
G01*
X93675000Y-114662501D01*
G75*
G02*
X93425001Y-114912500I-249999J0D01*
G01*
G37*
%TD.AperFunction*%
%TD*%
%TO.P,C2,1*%
%TO.N,Net-(C2-Pad1)*%
%TA.AperFunction,SMDPad,CuDef*%
G36*
G01*
X102475000Y-119587500D02*
X101525000Y-119587500D01*
G75*
G02*
X101275000Y-119337500I0J250000D01*
G01*
X101275000Y-118662500D01*
G75*
G02*
X101525000Y-118412500I250000J0D01*
G01*
X102475000Y-118412500D01*
G75*
G02*
X102725000Y-118662500I0J-250000D01*
G01*
X102725000Y-119337500D01*
G75*
G02*
X102475000Y-119587500I-250000J0D01*
G01*
G37*
%TD.AperFunction*%
%TO.P,C2,2*%
%TO.N,GND*%
%TA.AperFunction,SMDPad,CuDef*%
G36*
G01*
X102475000Y-117512500D02*
X101525000Y-117512500D01*
G75*
G02*
X101275000Y-117262500I0J250000D01*
G01*
X101275000Y-116587500D01*
G75*
G02*
X101525000Y-116337500I250000J0D01*
G01*
X102475000Y-116337500D01*
G75*
G02*
X102725000Y-116587500I0J-250000D01*
G01*
X102725000Y-117262500D01*
G75*
G02*
X102475000Y-117512500I-250000J0D01*
G01*
G37*
%TD.AperFunction*%
%TD*%
%TO.P,C3,2*%
%TO.N,GND*%
%TA.AperFunction,SMDPad,CuDef*%
G36*
G01*
X101574999Y-129650000D02*
X102425001Y-129650000D01*
G75*
G02*
X102675000Y-129899999I0J-249999D01*
G01*
X102675000Y-130975001D01*
G75*
G02*
X102425001Y-131225000I-249999J0D01*
G01*
X101574999Y-131225000D01*
G75*
G02*
X101325000Y-130975001I0J249999D01*
G01*
X101325000Y-129899999D01*
G75*
G02*
X101574999Y-129650000I249999J0D01*
G01*
G37*
%TD.AperFunction*%
%TO.P,C3,1*%
%TO.N,Net-(C3-Pad1)*%
%TA.AperFunction,SMDPad,CuDef*%
G36*
G01*
X101574999Y-126775000D02*
X102425001Y-126775000D01*
G75*
G02*
X102675000Y-127024999I0J-249999D01*
G01*
X102675000Y-128100001D01*
G75*
G02*
X102425001Y-128350000I-249999J0D01*
G01*
X101574999Y-128350000D01*
G75*
G02*
X101325000Y-128100001I0J249999D01*
G01*
X101325000Y-127024999D01*
G75*
G02*
X101574999Y-126775000I249999J0D01*
G01*
G37*
%TD.AperFunction*%
%TD*%
%TO.P,C4,2*%
%TO.N,B-*%
%TA.AperFunction,SMDPad,CuDef*%
G36*
G01*
X109525000Y-122487500D02*
X110475000Y-122487500D01*
G75*
G02*
X110725000Y-122737500I0J-250000D01*
G01*
X110725000Y-123412500D01*
G75*
G02*
X110475000Y-123662500I-250000J0D01*
G01*
X109525000Y-123662500D01*
G75*
G02*
X109275000Y-123412500I0J250000D01*
G01*
X109275000Y-122737500D01*
G75*
G02*
X109525000Y-122487500I250000J0D01*
G01*
G37*
%TD.AperFunction*%
%TO.P,C4,1*%
%TO.N,Net-(C4-Pad1)*%
%TA.AperFunction,SMDPad,CuDef*%
G36*
G01*
X109525000Y-120412500D02*
X110475000Y-120412500D01*
G75*
G02*
X110725000Y-120662500I0J-250000D01*
G01*
X110725000Y-121337500D01*
G75*
G02*
X110475000Y-121587500I-250000J0D01*
G01*
X109525000Y-121587500D01*
G75*
G02*
X109275000Y-121337500I0J250000D01*
G01*
X109275000Y-120662500D01*
G75*
G02*
X109525000Y-120412500I250000J0D01*
G01*
G37*
%TD.AperFunction*%
%TD*%
%TO.P,C5,1*%
%TO.N,B+*%
%TA.AperFunction,SMDPad,CuDef*%
G36*
G01*
X118574999Y-120212500D02*
X119425001Y-120212500D01*
G75*
G02*
X119675000Y-120462499I0J-249999D01*
G01*
X119675000Y-121537501D01*
G75*
G02*
X119425001Y-121787500I-249999J0D01*
G01*
X118574999Y-121787500D01*
G75*
G02*
X118325000Y-121537501I0J249999D01*
G01*
X118325000Y-120462499D01*
G75*
G02*
X118574999Y-120212500I249999J0D01*
G01*
G37*
%TD.AperFunction*%
%TO.P,C5,2*%
%TO.N,GND*%
%TA.AperFunction,SMDPad,CuDef*%
G36*
G01*
X118574999Y-123087500D02*
X119425001Y-123087500D01*
G75*
G02*
X119675000Y-123337499I0J-249999D01*
G01*
X119675000Y-124412501D01*
G75*
G02*
X119425001Y-124662500I-249999J0D01*
G01*
X118574999Y-124662500D01*
G75*
G02*
X118325000Y-124412501I0J249999D01*
G01*
X118325000Y-123337499D01*
G75*
G02*
X118574999Y-123087500I249999J0D01*
G01*
G37*
%TD.AperFunction*%
%TD*%
D10*
%TO.P,D1,1*%
%TO.N,Net-(D1-Pad1)*%
X95000000Y-125000000D03*
%TO.P,D1,2*%
%TO.N,GND*%
X99000000Y-125000000D03*
%TD*%
%TO.P,D2,2*%
%TO.N,Net-(D2-Pad2)*%
%TA.AperFunction,SMDPad,CuDef*%
G36*
G01*
X96450001Y-111525000D02*
X95549999Y-111525000D01*
G75*
G02*
X95300000Y-111275001I0J249999D01*
G01*
X95300000Y-110624999D01*
G75*
G02*
X95549999Y-110375000I249999J0D01*
G01*
X96450001Y-110375000D01*
G75*
G02*
X96700000Y-110624999I0J-249999D01*
G01*
X96700000Y-111275001D01*
G75*
G02*
X96450001Y-111525000I-249999J0D01*
G01*
G37*
%TD.AperFunction*%
%TO.P,D2,1*%
%TO.N,Net-(D2-Pad1)*%
%TA.AperFunction,SMDPad,CuDef*%
G36*
G01*
X96450001Y-113575000D02*
X95549999Y-113575000D01*
G75*
G02*
X95300000Y-113325001I0J249999D01*
G01*
X95300000Y-112674999D01*
G75*
G02*
X95549999Y-112425000I249999J0D01*
G01*
X96450001Y-112425000D01*
G75*
G02*
X96700000Y-112674999I0J-249999D01*
G01*
X96700000Y-113325001D01*
G75*
G02*
X96450001Y-113575000I-249999J0D01*
G01*
G37*
%TD.AperFunction*%
%TD*%
%TO.P,D3,1*%
%TO.N,Net-(D3-Pad1)*%
%TA.AperFunction,SMDPad,CuDef*%
G36*
G01*
X100450001Y-113625000D02*
X99549999Y-113625000D01*
G75*
G02*
X99300000Y-113375001I0J249999D01*
G01*
X99300000Y-112724999D01*
G75*
G02*
X99549999Y-112475000I249999J0D01*
G01*
X100450001Y-112475000D01*
G75*
G02*
X100700000Y-112724999I0J-249999D01*
G01*
X100700000Y-113375001D01*
G75*
G02*
X100450001Y-113625000I-249999J0D01*
G01*
G37*
%TD.AperFunction*%
%TO.P,D3,2*%
%TO.N,Net-(D2-Pad2)*%
%TA.AperFunction,SMDPad,CuDef*%
G36*
G01*
X100450001Y-111575000D02*
X99549999Y-111575000D01*
G75*
G02*
X99300000Y-111325001I0J249999D01*
G01*
X99300000Y-110674999D01*
G75*
G02*
X99549999Y-110425000I249999J0D01*
G01*
X100450001Y-110425000D01*
G75*
G02*
X100700000Y-110674999I0J-249999D01*
G01*
X100700000Y-111325001D01*
G75*
G02*
X100450001Y-111575000I-249999J0D01*
G01*
G37*
%TD.AperFunction*%
%TD*%
D11*
%TO.P,J1,1*%
%TO.N,VIN*%
X86000000Y-110000000D03*
%TD*%
%TO.P,J2,1*%
%TO.N,GND*%
X121000000Y-134000000D03*
%TD*%
%TO.P,J3,1*%
%TO.N,B+*%
X121000000Y-110000000D03*
%TD*%
%TO.P,J4,1*%
%TO.N,GND*%
X86000000Y-134000000D03*
%TD*%
%TO.P,J5,1*%
%TO.N,B+*%
X121000000Y-116000000D03*
%TD*%
%TO.P,J6,1*%
%TO.N,B-*%
X121000000Y-128000000D03*
%TD*%
D12*
%TO.P,L1,1*%
%TO.N,Net-(D1-Pad1)*%
X94000000Y-131000000D03*
%TO.P,L1,2*%
%TO.N,Net-(C3-Pad1)*%
X98500000Y-131000000D03*
%TD*%
D13*
%TO.P,P1,S1*%
%TO.N,GND*%
X84950000Y-126320000D03*
X84950000Y-117680000D03*
D14*
X89130000Y-117680000D03*
X89130000Y-126320000D03*
D15*
%TO.P,P1,A6*%
%TO.N,Net-(P1-PadA6)*%
X90045000Y-121750000D03*
%TO.P,P1,B5*%
%TO.N,Net-(P1-PadB5)*%
X90045000Y-123750000D03*
%TO.P,P1,A8*%
%TO.N,N/C*%
X90045000Y-123250000D03*
%TO.P,P1,B6*%
X90045000Y-122750000D03*
%TO.P,P1,A7*%
%TO.N,Net-(P1-PadA6)*%
X90045000Y-122250000D03*
%TO.P,P1,B7*%
%TO.N,N/C*%
X90045000Y-121250000D03*
%TO.P,P1,A5*%
%TO.N,Net-(P1-PadA5)*%
X90045000Y-120750000D03*
%TO.P,P1,B8*%
%TO.N,N/C*%
X90045000Y-120250000D03*
D16*
%TO.P,P1,A12*%
%TO.N,GND*%
X90045000Y-125250000D03*
%TO.P,P1,B4*%
%TO.N,VIN*%
X90045000Y-124450000D03*
%TO.P,P1,A4*%
X90045000Y-119550000D03*
%TO.P,P1,A1*%
%TO.N,GND*%
X90045000Y-118750000D03*
%TO.P,P1,B12*%
X90045000Y-118750000D03*
%TO.P,P1,B9*%
%TO.N,VIN*%
X90045000Y-119550000D03*
%TO.P,P1,A9*%
X90045000Y-124450000D03*
%TO.P,P1,B1*%
%TO.N,GND*%
X90045000Y-125250000D03*
%TD*%
%TO.P,R1,1*%
%TO.N,Net-(C3-Pad1)*%
%TA.AperFunction,SMDPad,CuDef*%
G36*
G01*
X101350000Y-123625000D02*
X101350000Y-122375000D01*
G75*
G02*
X101600000Y-122125000I250000J0D01*
G01*
X102400000Y-122125000D01*
G75*
G02*
X102650000Y-122375000I0J-250000D01*
G01*
X102650000Y-123625000D01*
G75*
G02*
X102400000Y-123875000I-250000J0D01*
G01*
X101600000Y-123875000D01*
G75*
G02*
X101350000Y-123625000I0J250000D01*
G01*
G37*
%TD.AperFunction*%
%TO.P,R1,2*%
%TO.N,B+*%
%TA.AperFunction,SMDPad,CuDef*%
G36*
G01*
X104450000Y-123625000D02*
X104450000Y-122375000D01*
G75*
G02*
X104700000Y-122125000I250000J0D01*
G01*
X105500000Y-122125000D01*
G75*
G02*
X105750000Y-122375000I0J-250000D01*
G01*
X105750000Y-123625000D01*
G75*
G02*
X105500000Y-123875000I-250000J0D01*
G01*
X104700000Y-123875000D01*
G75*
G02*
X104450000Y-123625000I0J250000D01*
G01*
G37*
%TD.AperFunction*%
%TD*%
%TO.P,R2,1*%
%TO.N,Net-(D2-Pad2)*%
%TA.AperFunction,SMDPad,CuDef*%
G36*
G01*
X102549999Y-110400000D02*
X103450001Y-110400000D01*
G75*
G02*
X103700000Y-110649999I0J-249999D01*
G01*
X103700000Y-111350001D01*
G75*
G02*
X103450001Y-111600000I-249999J0D01*
G01*
X102549999Y-111600000D01*
G75*
G02*
X102300000Y-111350001I0J249999D01*
G01*
X102300000Y-110649999D01*
G75*
G02*
X102549999Y-110400000I249999J0D01*
G01*
G37*
%TD.AperFunction*%
%TO.P,R2,2*%
%TO.N,GND*%
%TA.AperFunction,SMDPad,CuDef*%
G36*
G01*
X102549999Y-112400000D02*
X103450001Y-112400000D01*
G75*
G02*
X103700000Y-112649999I0J-249999D01*
G01*
X103700000Y-113350001D01*
G75*
G02*
X103450001Y-113600000I-249999J0D01*
G01*
X102549999Y-113600000D01*
G75*
G02*
X102300000Y-113350001I0J249999D01*
G01*
X102300000Y-112649999D01*
G75*
G02*
X102549999Y-112400000I249999J0D01*
G01*
G37*
%TD.AperFunction*%
%TD*%
%TO.P,R3,2*%
%TO.N,GND*%
%TA.AperFunction,SMDPad,CuDef*%
G36*
G01*
X109549999Y-127400000D02*
X110450001Y-127400000D01*
G75*
G02*
X110700000Y-127649999I0J-249999D01*
G01*
X110700000Y-128350001D01*
G75*
G02*
X110450001Y-128600000I-249999J0D01*
G01*
X109549999Y-128600000D01*
G75*
G02*
X109300000Y-128350001I0J249999D01*
G01*
X109300000Y-127649999D01*
G75*
G02*
X109549999Y-127400000I249999J0D01*
G01*
G37*
%TD.AperFunction*%
%TO.P,R3,1*%
%TO.N,Net-(R3-Pad1)*%
%TA.AperFunction,SMDPad,CuDef*%
G36*
G01*
X109549999Y-125400000D02*
X110450001Y-125400000D01*
G75*
G02*
X110700000Y-125649999I0J-249999D01*
G01*
X110700000Y-126350001D01*
G75*
G02*
X110450001Y-126600000I-249999J0D01*
G01*
X109549999Y-126600000D01*
G75*
G02*
X109300000Y-126350001I0J249999D01*
G01*
X109300000Y-125649999D01*
G75*
G02*
X109549999Y-125400000I249999J0D01*
G01*
G37*
%TD.AperFunction*%
%TD*%
%TO.P,R4,1*%
%TO.N,B+*%
%TA.AperFunction,SMDPad,CuDef*%
G36*
G01*
X109549999Y-115400000D02*
X110450001Y-115400000D01*
G75*
G02*
X110700000Y-115649999I0J-249999D01*
G01*
X110700000Y-116350001D01*
G75*
G02*
X110450001Y-116600000I-249999J0D01*
G01*
X109549999Y-116600000D01*
G75*
G02*
X109300000Y-116350001I0J249999D01*
G01*
X109300000Y-115649999D01*
G75*
G02*
X109549999Y-115400000I249999J0D01*
G01*
G37*
%TD.AperFunction*%
%TO.P,R4,2*%
%TO.N,Net-(C4-Pad1)*%
%TA.AperFunction,SMDPad,CuDef*%
G36*
G01*
X109549999Y-117400000D02*
X110450001Y-117400000D01*
G75*
G02*
X110700000Y-117649999I0J-249999D01*
G01*
X110700000Y-118350001D01*
G75*
G02*
X110450001Y-118600000I-249999J0D01*
G01*
X109549999Y-118600000D01*
G75*
G02*
X109300000Y-118350001I0J249999D01*
G01*
X109300000Y-117649999D01*
G75*
G02*
X109549999Y-117400000I249999J0D01*
G01*
G37*
%TD.AperFunction*%
%TD*%
%TO.P,U1,1*%
%TO.N,VIN*%
%TA.AperFunction,SMDPad,CuDef*%
G36*
G01*
X94625000Y-118100000D02*
X94625000Y-117950000D01*
G75*
G02*
X94700000Y-117875000I75000J0D01*
G01*
X95400000Y-117875000D01*
G75*
G02*
X95475000Y-117950000I0J-75000D01*
G01*
X95475000Y-118100000D01*
G75*
G02*
X95400000Y-118175000I-75000J0D01*
G01*
X94700000Y-118175000D01*
G75*
G02*
X94625000Y-118100000I0J75000D01*
G01*
G37*
%TD.AperFunction*%
%TO.P,U1,2*%
%TA.AperFunction,SMDPad,CuDef*%
G36*
G01*
X94625000Y-118750000D02*
X94625000Y-118600000D01*
G75*
G02*
X94700000Y-118525000I75000J0D01*
G01*
X95400000Y-118525000D01*
G75*
G02*
X95475000Y-118600000I0J-75000D01*
G01*
X95475000Y-118750000D01*
G75*
G02*
X95400000Y-118825000I-75000J0D01*
G01*
X94700000Y-118825000D01*
G75*
G02*
X94625000Y-118750000I0J75000D01*
G01*
G37*
%TD.AperFunction*%
%TO.P,U1,3*%
%TO.N,Net-(D1-Pad1)*%
%TA.AperFunction,SMDPad,CuDef*%
G36*
G01*
X94625000Y-119400000D02*
X94625000Y-119250000D01*
G75*
G02*
X94700000Y-119175000I75000J0D01*
G01*
X95400000Y-119175000D01*
G75*
G02*
X95475000Y-119250000I0J-75000D01*
G01*
X95475000Y-119400000D01*
G75*
G02*
X95400000Y-119475000I-75000J0D01*
G01*
X94700000Y-119475000D01*
G75*
G02*
X94625000Y-119400000I0J75000D01*
G01*
G37*
%TD.AperFunction*%
%TO.P,U1,4*%
%TA.AperFunction,SMDPad,CuDef*%
G36*
G01*
X94625000Y-120050000D02*
X94625000Y-119900000D01*
G75*
G02*
X94700000Y-119825000I75000J0D01*
G01*
X95400000Y-119825000D01*
G75*
G02*
X95475000Y-119900000I0J-75000D01*
G01*
X95475000Y-120050000D01*
G75*
G02*
X95400000Y-120125000I-75000J0D01*
G01*
X94700000Y-120125000D01*
G75*
G02*
X94625000Y-120050000I0J75000D01*
G01*
G37*
%TD.AperFunction*%
%TO.P,U1,5*%
%TA.AperFunction,SMDPad,CuDef*%
G36*
G01*
X95875000Y-121300000D02*
X95875000Y-120600000D01*
G75*
G02*
X95950000Y-120525000I75000J0D01*
G01*
X96100000Y-120525000D01*
G75*
G02*
X96175000Y-120600000I0J-75000D01*
G01*
X96175000Y-121300000D01*
G75*
G02*
X96100000Y-121375000I-75000J0D01*
G01*
X95950000Y-121375000D01*
G75*
G02*
X95875000Y-121300000I0J75000D01*
G01*
G37*
%TD.AperFunction*%
%TO.P,U1,6*%
%TO.N,GND*%
%TA.AperFunction,SMDPad,CuDef*%
G36*
G01*
X96525000Y-121300000D02*
X96525000Y-120600000D01*
G75*
G02*
X96600000Y-120525000I75000J0D01*
G01*
X96750000Y-120525000D01*
G75*
G02*
X96825000Y-120600000I0J-75000D01*
G01*
X96825000Y-121300000D01*
G75*
G02*
X96750000Y-121375000I-75000J0D01*
G01*
X96600000Y-121375000D01*
G75*
G02*
X96525000Y-121300000I0J75000D01*
G01*
G37*
%TD.AperFunction*%
%TO.P,U1,7*%
%TA.AperFunction,SMDPad,CuDef*%
G36*
G01*
X97175000Y-121300000D02*
X97175000Y-120600000D01*
G75*
G02*
X97250000Y-120525000I75000J0D01*
G01*
X97400000Y-120525000D01*
G75*
G02*
X97475000Y-120600000I0J-75000D01*
G01*
X97475000Y-121300000D01*
G75*
G02*
X97400000Y-121375000I-75000J0D01*
G01*
X97250000Y-121375000D01*
G75*
G02*
X97175000Y-121300000I0J75000D01*
G01*
G37*
%TD.AperFunction*%
%TO.P,U1,8*%
%TO.N,Net-(C3-Pad1)*%
%TA.AperFunction,SMDPad,CuDef*%
G36*
G01*
X97825000Y-121300000D02*
X97825000Y-120600000D01*
G75*
G02*
X97900000Y-120525000I75000J0D01*
G01*
X98050000Y-120525000D01*
G75*
G02*
X98125000Y-120600000I0J-75000D01*
G01*
X98125000Y-121300000D01*
G75*
G02*
X98050000Y-121375000I-75000J0D01*
G01*
X97900000Y-121375000D01*
G75*
G02*
X97825000Y-121300000I0J75000D01*
G01*
G37*
%TD.AperFunction*%
%TO.P,U1,9*%
%TO.N,B+*%
%TA.AperFunction,SMDPad,CuDef*%
G36*
G01*
X98525000Y-120050000D02*
X98525000Y-119900000D01*
G75*
G02*
X98600000Y-119825000I75000J0D01*
G01*
X99300000Y-119825000D01*
G75*
G02*
X99375000Y-119900000I0J-75000D01*
G01*
X99375000Y-120050000D01*
G75*
G02*
X99300000Y-120125000I-75000J0D01*
G01*
X98600000Y-120125000D01*
G75*
G02*
X98525000Y-120050000I0J75000D01*
G01*
G37*
%TD.AperFunction*%
%TO.P,U1,10*%
%TO.N,Net-(C2-Pad1)*%
%TA.AperFunction,SMDPad,CuDef*%
G36*
G01*
X98525000Y-119400000D02*
X98525000Y-119250000D01*
G75*
G02*
X98600000Y-119175000I75000J0D01*
G01*
X99300000Y-119175000D01*
G75*
G02*
X99375000Y-119250000I0J-75000D01*
G01*
X99375000Y-119400000D01*
G75*
G02*
X99300000Y-119475000I-75000J0D01*
G01*
X98600000Y-119475000D01*
G75*
G02*
X98525000Y-119400000I0J75000D01*
G01*
G37*
%TD.AperFunction*%
%TO.P,U1,11*%
%TO.N,GND*%
%TA.AperFunction,SMDPad,CuDef*%
G36*
G01*
X98525000Y-118750000D02*
X98525000Y-118600000D01*
G75*
G02*
X98600000Y-118525000I75000J0D01*
G01*
X99300000Y-118525000D01*
G75*
G02*
X99375000Y-118600000I0J-75000D01*
G01*
X99375000Y-118750000D01*
G75*
G02*
X99300000Y-118825000I-75000J0D01*
G01*
X98600000Y-118825000D01*
G75*
G02*
X98525000Y-118750000I0J75000D01*
G01*
G37*
%TD.AperFunction*%
%TO.P,U1,12*%
%TA.AperFunction,SMDPad,CuDef*%
G36*
G01*
X98525000Y-118100000D02*
X98525000Y-117950000D01*
G75*
G02*
X98600000Y-117875000I75000J0D01*
G01*
X99300000Y-117875000D01*
G75*
G02*
X99375000Y-117950000I0J-75000D01*
G01*
X99375000Y-118100000D01*
G75*
G02*
X99300000Y-118175000I-75000J0D01*
G01*
X98600000Y-118175000D01*
G75*
G02*
X98525000Y-118100000I0J75000D01*
G01*
G37*
%TD.AperFunction*%
%TO.P,U1,13*%
%TO.N,Net-(U1-Pad13)*%
%TA.AperFunction,SMDPad,CuDef*%
G36*
G01*
X97825000Y-117400000D02*
X97825000Y-116700000D01*
G75*
G02*
X97900000Y-116625000I75000J0D01*
G01*
X98050000Y-116625000D01*
G75*
G02*
X98125000Y-116700000I0J-75000D01*
G01*
X98125000Y-117400000D01*
G75*
G02*
X98050000Y-117475000I-75000J0D01*
G01*
X97900000Y-117475000D01*
G75*
G02*
X97825000Y-117400000I0J75000D01*
G01*
G37*
%TD.AperFunction*%
%TO.P,U1,14*%
%TO.N,Net-(D3-Pad1)*%
%TA.AperFunction,SMDPad,CuDef*%
G36*
G01*
X97175000Y-117400000D02*
X97175000Y-116700000D01*
G75*
G02*
X97250000Y-116625000I75000J0D01*
G01*
X97400000Y-116625000D01*
G75*
G02*
X97475000Y-116700000I0J-75000D01*
G01*
X97475000Y-117400000D01*
G75*
G02*
X97400000Y-117475000I-75000J0D01*
G01*
X97250000Y-117475000D01*
G75*
G02*
X97175000Y-117400000I0J75000D01*
G01*
G37*
%TD.AperFunction*%
%TO.P,U1,15*%
%TO.N,Net-(D2-Pad1)*%
%TA.AperFunction,SMDPad,CuDef*%
G36*
G01*
X96525000Y-117400000D02*
X96525000Y-116700000D01*
G75*
G02*
X96600000Y-116625000I75000J0D01*
G01*
X96750000Y-116625000D01*
G75*
G02*
X96825000Y-116700000I0J-75000D01*
G01*
X96825000Y-117400000D01*
G75*
G02*
X96750000Y-117475000I-75000J0D01*
G01*
X96600000Y-117475000D01*
G75*
G02*
X96525000Y-117400000I0J75000D01*
G01*
G37*
%TD.AperFunction*%
%TO.P,U1,16*%
%TO.N,VIN*%
%TA.AperFunction,SMDPad,CuDef*%
G36*
G01*
X95875000Y-117400000D02*
X95875000Y-116700000D01*
G75*
G02*
X95950000Y-116625000I75000J0D01*
G01*
X96100000Y-116625000D01*
G75*
G02*
X96175000Y-116700000I0J-75000D01*
G01*
X96175000Y-117400000D01*
G75*
G02*
X96100000Y-117475000I-75000J0D01*
G01*
X95950000Y-117475000D01*
G75*
G02*
X95875000Y-117400000I0J75000D01*
G01*
G37*
%TD.AperFunction*%
D17*
%TO.P,U1,17*%
%TO.N,N/C*%
X97000000Y-119000000D03*
%TD*%
D18*
%TO.P,U2,1*%
%TO.N,Net-(U2-Pad1)*%
X114050000Y-120100000D03*
%TO.P,U2,2*%
%TO.N,Net-(R3-Pad1)*%
X115000000Y-120100000D03*
%TO.P,U2,3*%
%TO.N,Net-(U2-Pad3)*%
X115950000Y-120100000D03*
%TO.P,U2,4*%
%TO.N,Net-(U2-Pad4)*%
X115950000Y-117900000D03*
%TO.P,U2,6*%
%TO.N,B-*%
X114050000Y-117900000D03*
%TO.P,U2,5*%
%TO.N,Net-(C4-Pad1)*%
X115000000Y-117900000D03*
%TD*%
%TO.P,U3,1*%
%TO.N,Net-(U3-Pad1)*%
%TA.AperFunction,SMDPad,CuDef*%
G36*
G01*
X115875000Y-122400000D02*
X116075000Y-122400000D01*
G75*
G02*
X116175000Y-122500000I0J-100000D01*
G01*
X116175000Y-123775000D01*
G75*
G02*
X116075000Y-123875000I-100000J0D01*
G01*
X115875000Y-123875000D01*
G75*
G02*
X115775000Y-123775000I0J100000D01*
G01*
X115775000Y-122500000D01*
G75*
G02*
X115875000Y-122400000I100000J0D01*
G01*
G37*
%TD.AperFunction*%
%TO.P,U3,2*%
%TO.N,B-*%
%TA.AperFunction,SMDPad,CuDef*%
G36*
G01*
X115225000Y-122400000D02*
X115425000Y-122400000D01*
G75*
G02*
X115525000Y-122500000I0J-100000D01*
G01*
X115525000Y-123775000D01*
G75*
G02*
X115425000Y-123875000I-100000J0D01*
G01*
X115225000Y-123875000D01*
G75*
G02*
X115125000Y-123775000I0J100000D01*
G01*
X115125000Y-122500000D01*
G75*
G02*
X115225000Y-122400000I100000J0D01*
G01*
G37*
%TD.AperFunction*%
%TO.P,U3,3*%
%TA.AperFunction,SMDPad,CuDef*%
G36*
G01*
X114575000Y-122400000D02*
X114775000Y-122400000D01*
G75*
G02*
X114875000Y-122500000I0J-100000D01*
G01*
X114875000Y-123775000D01*
G75*
G02*
X114775000Y-123875000I-100000J0D01*
G01*
X114575000Y-123875000D01*
G75*
G02*
X114475000Y-123775000I0J100000D01*
G01*
X114475000Y-122500000D01*
G75*
G02*
X114575000Y-122400000I100000J0D01*
G01*
G37*
%TD.AperFunction*%
%TO.P,U3,4*%
%TO.N,Net-(U2-Pad1)*%
%TA.AperFunction,SMDPad,CuDef*%
G36*
G01*
X113925000Y-122400000D02*
X114125000Y-122400000D01*
G75*
G02*
X114225000Y-122500000I0J-100000D01*
G01*
X114225000Y-123775000D01*
G75*
G02*
X114125000Y-123875000I-100000J0D01*
G01*
X113925000Y-123875000D01*
G75*
G02*
X113825000Y-123775000I0J100000D01*
G01*
X113825000Y-122500000D01*
G75*
G02*
X113925000Y-122400000I100000J0D01*
G01*
G37*
%TD.AperFunction*%
%TO.P,U3,5*%
%TO.N,Net-(U2-Pad3)*%
%TA.AperFunction,SMDPad,CuDef*%
G36*
G01*
X113925000Y-128125000D02*
X114125000Y-128125000D01*
G75*
G02*
X114225000Y-128225000I0J-100000D01*
G01*
X114225000Y-129500000D01*
G75*
G02*
X114125000Y-129600000I-100000J0D01*
G01*
X113925000Y-129600000D01*
G75*
G02*
X113825000Y-129500000I0J100000D01*
G01*
X113825000Y-128225000D01*
G75*
G02*
X113925000Y-128125000I100000J0D01*
G01*
G37*
%TD.AperFunction*%
%TO.P,U3,6*%
%TO.N,GND*%
%TA.AperFunction,SMDPad,CuDef*%
G36*
G01*
X114575000Y-128125000D02*
X114775000Y-128125000D01*
G75*
G02*
X114875000Y-128225000I0J-100000D01*
G01*
X114875000Y-129500000D01*
G75*
G02*
X114775000Y-129600000I-100000J0D01*
G01*
X114575000Y-129600000D01*
G75*
G02*
X114475000Y-129500000I0J100000D01*
G01*
X114475000Y-128225000D01*
G75*
G02*
X114575000Y-128125000I100000J0D01*
G01*
G37*
%TD.AperFunction*%
%TO.P,U3,7*%
%TA.AperFunction,SMDPad,CuDef*%
G36*
G01*
X115225000Y-128125000D02*
X115425000Y-128125000D01*
G75*
G02*
X115525000Y-128225000I0J-100000D01*
G01*
X115525000Y-129500000D01*
G75*
G02*
X115425000Y-129600000I-100000J0D01*
G01*
X115225000Y-129600000D01*
G75*
G02*
X115125000Y-129500000I0J100000D01*
G01*
X115125000Y-128225000D01*
G75*
G02*
X115225000Y-128125000I100000J0D01*
G01*
G37*
%TD.AperFunction*%
%TO.P,U3,8*%
%TO.N,Net-(U3-Pad8)*%
%TA.AperFunction,SMDPad,CuDef*%
G36*
G01*
X115875000Y-128125000D02*
X116075000Y-128125000D01*
G75*
G02*
X116175000Y-128225000I0J-100000D01*
G01*
X116175000Y-129500000D01*
G75*
G02*
X116075000Y-129600000I-100000J0D01*
G01*
X115875000Y-129600000D01*
G75*
G02*
X115775000Y-129500000I0J100000D01*
G01*
X115775000Y-128225000D01*
G75*
G02*
X115875000Y-128125000I100000J0D01*
G01*
G37*
%TD.AperFunction*%
%TD*%
D19*
%TO.N,GND*%
X100750000Y-125000000D03*
X99000000Y-126500000D03*
X97250000Y-123000000D03*
X100500000Y-117000000D03*
X100250000Y-118250000D03*
X102000000Y-115500000D03*
X103500000Y-117000000D03*
X93000000Y-112500000D03*
X91500000Y-114000000D03*
X94500000Y-114000000D03*
X91500000Y-125250000D03*
X103500000Y-130500000D03*
X102000000Y-132000000D03*
X100500000Y-130500000D03*
X108500000Y-128000000D03*
X110000000Y-129250000D03*
X111500000Y-128000000D03*
X114500000Y-130750000D03*
X115500000Y-130750000D03*
X117500000Y-124000000D03*
X120500000Y-124000000D03*
X103000000Y-114250000D03*
%TO.N,B-*%
X114775000Y-121500000D03*
X113000000Y-118000000D03*
%TO.N,Net-(U2-Pad3)*%
X114000000Y-125500000D03*
X116000000Y-121500000D03*
%TD*%
D20*
%TO.N,VIN*%
X93000000Y-117000000D02*
X91750000Y-117000000D01*
X86000000Y-111250000D02*
X86000000Y-110000000D01*
D21*
X91270000Y-119550000D02*
X91320000Y-119500000D01*
X90045000Y-119550000D02*
X91270000Y-119550000D01*
X91750000Y-123730002D02*
X91750000Y-119500000D01*
X91030002Y-124450000D02*
X91750000Y-123730002D01*
X90045000Y-124450000D02*
X91030002Y-124450000D01*
X91320000Y-119500000D02*
X91750000Y-119500000D01*
D20*
X91750000Y-117000000D02*
X91000000Y-116250000D01*
X91000000Y-116250000D02*
X86000000Y-111250000D01*
D22*
X93000000Y-117000000D02*
X93750000Y-117000000D01*
X93750000Y-117000000D02*
X95000000Y-115750000D01*
X95000000Y-115750000D02*
X95849990Y-115750000D01*
X93750000Y-117000000D02*
X93750000Y-117500000D01*
X93750000Y-117500000D02*
X93500000Y-117750000D01*
X93500000Y-117750000D02*
X93500000Y-118500000D01*
D23*
X96025000Y-115925010D02*
X95849990Y-115750000D01*
X96025000Y-117050000D02*
X96025000Y-115925010D01*
X93775000Y-118025000D02*
X93500000Y-117750000D01*
X95050000Y-118025000D02*
X93775000Y-118025000D01*
X93675000Y-118675000D02*
X93500000Y-118500000D01*
X95050000Y-118675000D02*
X93675000Y-118675000D01*
D22*
X93000000Y-117000000D02*
X93000000Y-117250000D01*
X93000000Y-117250000D02*
X92250000Y-118000000D01*
X93000000Y-117000000D02*
X93000000Y-118250000D01*
D21*
%TO.N,GND*%
X90045000Y-118595000D02*
X89130000Y-117680000D01*
X90045000Y-118750000D02*
X90045000Y-118595000D01*
X90045000Y-125405000D02*
X89130000Y-126320000D01*
X90045000Y-125250000D02*
X90045000Y-125405000D01*
D23*
X96675000Y-120950000D02*
X96675000Y-121925000D01*
X97250000Y-122500000D02*
X97250000Y-123000000D01*
X96675000Y-121925000D02*
X97250000Y-122500000D01*
X97250000Y-123000000D02*
X98000000Y-123000000D01*
X99000000Y-124000000D02*
X99000000Y-125000000D01*
X98000000Y-123000000D02*
X99000000Y-124000000D01*
D21*
X100750000Y-125000000D02*
X99000000Y-125000000D01*
X99000000Y-126500000D02*
X99000000Y-125000000D01*
X91500000Y-125250000D02*
X90045000Y-125250000D01*
X102062500Y-130500000D02*
X102000000Y-130437500D01*
X103500000Y-130500000D02*
X102062500Y-130500000D01*
X101937500Y-130500000D02*
X102000000Y-130437500D01*
X100500000Y-130500000D02*
X101937500Y-130500000D01*
X102000000Y-132000000D02*
X102000000Y-130437500D01*
X108500000Y-128000000D02*
X110000000Y-128000000D01*
X110000000Y-129250000D02*
X110000000Y-128000000D01*
X111500000Y-128000000D02*
X110000000Y-128000000D01*
X114500000Y-130750000D02*
X115500000Y-130750000D01*
D23*
X114675000Y-130575000D02*
X114500000Y-130750000D01*
X114675000Y-128862500D02*
X114675000Y-130575000D01*
X115325000Y-130575000D02*
X115500000Y-130750000D01*
X115325000Y-128862500D02*
X115325000Y-130575000D01*
D21*
X118875000Y-124000000D02*
X119000000Y-123875000D01*
X117500000Y-124000000D02*
X118875000Y-124000000D01*
X119125000Y-124000000D02*
X119000000Y-123875000D01*
X120500000Y-124000000D02*
X119125000Y-124000000D01*
D23*
X100025000Y-118025000D02*
X100250000Y-118250000D01*
X98950000Y-118025000D02*
X100025000Y-118025000D01*
X99825000Y-118675000D02*
X100250000Y-118250000D01*
X98950000Y-118675000D02*
X99825000Y-118675000D01*
D21*
X101925000Y-117000000D02*
X102000000Y-116925000D01*
X100500000Y-117000000D02*
X101925000Y-117000000D01*
X102000000Y-115500000D02*
X102000000Y-116925000D01*
X102075000Y-117000000D02*
X102000000Y-116925000D01*
X103500000Y-117000000D02*
X102075000Y-117000000D01*
X103000000Y-114250000D02*
X103000000Y-113000000D01*
X91625000Y-114125000D02*
X91500000Y-114000000D01*
X93000000Y-114125000D02*
X91625000Y-114125000D01*
X93000000Y-114125000D02*
X93000000Y-112500000D01*
X94375000Y-114125000D02*
X94500000Y-114000000D01*
X93000000Y-114125000D02*
X94375000Y-114125000D01*
D23*
X97325000Y-122925000D02*
X97250000Y-123000000D01*
X97325000Y-120950000D02*
X97325000Y-122925000D01*
%TO.N,Net-(C2-Pad1)*%
X101675000Y-119325000D02*
X102000000Y-119000000D01*
X98950000Y-119325000D02*
X101675000Y-119325000D01*
D21*
%TO.N,Net-(C3-Pad1)*%
X98562500Y-131000000D02*
X102000000Y-127562500D01*
X98500000Y-131000000D02*
X98562500Y-131000000D01*
X102000000Y-127562500D02*
X102000000Y-123000000D01*
D23*
X97975000Y-120950000D02*
X97975000Y-121975000D01*
X99000000Y-123000000D02*
X102000000Y-123000000D01*
X97975000Y-121975000D02*
X99000000Y-123000000D01*
%TO.N,B-*%
X114675000Y-123137500D02*
X114675000Y-124175000D01*
X115325000Y-123137500D02*
X115325000Y-124175000D01*
D21*
X114675000Y-124175000D02*
X115325000Y-124175000D01*
X115325000Y-124175000D02*
X115325000Y-125825000D01*
X117500000Y-128000000D02*
X121000000Y-128000000D01*
X115325000Y-125825000D02*
X117500000Y-128000000D01*
D23*
X114675000Y-121600000D02*
X114775000Y-121500000D01*
X114675000Y-123137500D02*
X114675000Y-121600000D01*
X113950000Y-118000000D02*
X114050000Y-117900000D01*
X113000000Y-118000000D02*
X113950000Y-118000000D01*
D21*
X111299990Y-119700010D02*
X113000000Y-118000000D01*
X111299990Y-122500010D02*
X111299990Y-119700010D01*
X110725000Y-123075000D02*
X111299990Y-122500010D01*
X110000000Y-123075000D02*
X110725000Y-123075000D01*
%TO.N,Net-(C4-Pad1)*%
X115000000Y-117900000D02*
X115000000Y-116750000D01*
X111250000Y-116750000D02*
X110000000Y-118000000D01*
X115000000Y-116750000D02*
X111250000Y-116750000D01*
X110000000Y-118000000D02*
X110000000Y-121000000D01*
D23*
%TO.N,B+*%
X102075000Y-119975000D02*
X105100000Y-123000000D01*
X98950000Y-119975000D02*
X102075000Y-119975000D01*
D21*
X119000000Y-118000000D02*
X121000000Y-116000000D01*
X119000000Y-121000000D02*
X119000000Y-118000000D01*
D20*
X121000000Y-116000000D02*
X121000000Y-110000000D01*
D21*
X105100000Y-123000000D02*
X105100000Y-118400000D01*
X105100000Y-118400000D02*
X107500000Y-116000000D01*
X107500000Y-116000000D02*
X110000000Y-116000000D01*
X110000000Y-116000000D02*
X121000000Y-116000000D01*
D22*
%TO.N,Net-(D1-Pad1)*%
X95000000Y-125000000D02*
X95000000Y-126750000D01*
X94000000Y-127750000D02*
X94000000Y-131000000D01*
X95000000Y-126750000D02*
X94000000Y-127750000D01*
X95000000Y-122500000D02*
X96000000Y-122500000D01*
X95000000Y-125000000D02*
X95000000Y-122500000D01*
D23*
X93925000Y-119325000D02*
X93500000Y-119750000D01*
X95050000Y-119325000D02*
X93925000Y-119325000D01*
X93725000Y-119975000D02*
X93500000Y-119750000D01*
X95050000Y-119975000D02*
X93725000Y-119975000D01*
X96025000Y-122475000D02*
X96000000Y-122500000D01*
X96025000Y-120950000D02*
X96025000Y-122475000D01*
D22*
X93500000Y-121000000D02*
X93500000Y-119750000D01*
X95000000Y-122500000D02*
X93500000Y-121000000D01*
D21*
%TO.N,Net-(D2-Pad2)*%
X96000000Y-110950000D02*
X102950000Y-110950000D01*
X102950000Y-110950000D02*
X103000000Y-111000000D01*
D23*
%TO.N,Net-(D2-Pad1)*%
X96675000Y-113675000D02*
X96000000Y-113000000D01*
X96675000Y-117050000D02*
X96675000Y-113675000D01*
%TO.N,Net-(D3-Pad1)*%
X97325000Y-114425000D02*
X98700000Y-113050000D01*
X97325000Y-117050000D02*
X97325000Y-114425000D01*
X98700000Y-113050000D02*
X100000000Y-113050000D01*
%TO.N,Net-(P1-PadA6)*%
X90045000Y-121750000D02*
X90045000Y-122250000D01*
D21*
%TO.N,Net-(R3-Pad1)*%
X110000000Y-126000000D02*
X110250000Y-126000000D01*
X110250000Y-126000000D02*
X112000000Y-124250000D01*
X112000000Y-124250000D02*
X112000000Y-120000000D01*
X112000000Y-120000000D02*
X113000000Y-119000000D01*
X115000000Y-119070000D02*
X115000000Y-120100000D01*
X114930000Y-119000000D02*
X115000000Y-119070000D01*
X113000000Y-119000000D02*
X114930000Y-119000000D01*
D23*
%TO.N,Net-(U2-Pad1)*%
X114050000Y-123112500D02*
X114025000Y-123137500D01*
X114050000Y-120100000D02*
X114050000Y-123112500D01*
%TO.N,Net-(U2-Pad3)*%
X114025000Y-125525000D02*
X114000000Y-125500000D01*
X114025000Y-128862500D02*
X114025000Y-125525000D01*
X116000000Y-120150000D02*
X115950000Y-120100000D01*
X116000000Y-121500000D02*
X116000000Y-120150000D01*
%TD*%
D24*
%TO.N,VIN*%
X91690000Y-116714250D02*
X91848750Y-116873000D01*
X92873000Y-116873000D01*
X92873000Y-116853000D01*
X93127000Y-116853000D01*
X93127000Y-116873000D01*
X93147000Y-116873000D01*
X93147000Y-117127000D01*
X93127000Y-117127000D01*
X93127000Y-118263750D01*
X93285750Y-118422500D01*
X93675000Y-118425572D01*
X93799482Y-118413312D01*
X93873000Y-118391011D01*
X93873000Y-118566445D01*
X93776014Y-118575997D01*
X93632753Y-118619454D01*
X93627809Y-118622097D01*
X93500000Y-118609509D01*
X93277502Y-118631423D01*
X93063554Y-118696324D01*
X92866378Y-118801716D01*
X92779518Y-118873000D01*
X92250000Y-118873000D01*
X92225224Y-118875440D01*
X92201399Y-118882667D01*
X92179443Y-118894403D01*
X92160197Y-118910197D01*
X92144403Y-118929443D01*
X92132667Y-118951399D01*
X92125440Y-118975224D01*
X92123000Y-119000000D01*
X92123000Y-123373000D01*
X91627000Y-123373000D01*
X91627000Y-117787500D01*
X91686928Y-117787500D01*
X91699188Y-117911982D01*
X91735498Y-118031680D01*
X91794463Y-118141994D01*
X91873815Y-118238685D01*
X91970506Y-118318037D01*
X92080820Y-118377002D01*
X92200518Y-118413312D01*
X92325000Y-118425572D01*
X92714250Y-118422500D01*
X92873000Y-118263750D01*
X92873000Y-117127000D01*
X91848750Y-117127000D01*
X91690000Y-117285750D01*
X91686928Y-117787500D01*
X91627000Y-117787500D01*
X91627000Y-116377000D01*
X91687935Y-116377000D01*
X91690000Y-116714250D01*
%TA.AperFunction,Conductor*%
D25*
G36*
X91690000Y-116714250D02*
G01*
X91848750Y-116873000D01*
X92873000Y-116873000D01*
X92873000Y-116853000D01*
X93127000Y-116853000D01*
X93127000Y-116873000D01*
X93147000Y-116873000D01*
X93147000Y-117127000D01*
X93127000Y-117127000D01*
X93127000Y-118263750D01*
X93285750Y-118422500D01*
X93675000Y-118425572D01*
X93799482Y-118413312D01*
X93873000Y-118391011D01*
X93873000Y-118566445D01*
X93776014Y-118575997D01*
X93632753Y-118619454D01*
X93627809Y-118622097D01*
X93500000Y-118609509D01*
X93277502Y-118631423D01*
X93063554Y-118696324D01*
X92866378Y-118801716D01*
X92779518Y-118873000D01*
X92250000Y-118873000D01*
X92225224Y-118875440D01*
X92201399Y-118882667D01*
X92179443Y-118894403D01*
X92160197Y-118910197D01*
X92144403Y-118929443D01*
X92132667Y-118951399D01*
X92125440Y-118975224D01*
X92123000Y-119000000D01*
X92123000Y-123373000D01*
X91627000Y-123373000D01*
X91627000Y-117787500D01*
X91686928Y-117787500D01*
X91699188Y-117911982D01*
X91735498Y-118031680D01*
X91794463Y-118141994D01*
X91873815Y-118238685D01*
X91970506Y-118318037D01*
X92080820Y-118377002D01*
X92200518Y-118413312D01*
X92325000Y-118425572D01*
X92714250Y-118422500D01*
X92873000Y-118263750D01*
X92873000Y-117127000D01*
X91848750Y-117127000D01*
X91690000Y-117285750D01*
X91686928Y-117787500D01*
X91627000Y-117787500D01*
X91627000Y-116377000D01*
X91687935Y-116377000D01*
X91690000Y-116714250D01*
G37*
%TD.AperFunction*%
%TD*%
M02*
