%TF.GenerationSoftware,KiCad,Pcbnew,5.1.12-84ad8e8a86~92~ubuntu20.04.1*%
%TF.CreationDate,2023-07-09T19:05:36+02:00*%
%TF.ProjectId,tp5000_charger,74703530-3030-45f6-9368-61726765722e,rev?*%
%TF.SameCoordinates,Original*%
%TF.FileFunction,Copper,L2,Bot*%
%TF.FilePolarity,Positive*%
%FSLAX46Y46*%
G04 Gerber Fmt 4.6, Leading zero omitted, Abs format (unit mm)*
G04 Created by KiCad (PCBNEW 5.1.12-84ad8e8a86~92~ubuntu20.04.1) date 2023-07-09 19:05:36*
%MOMM*%
%LPD*%
G01*
G04 APERTURE LIST*
%TA.AperFunction,ComponentPad*%
%ADD10R,2.500000X2.500000*%
%TD*%
%TA.AperFunction,ComponentPad*%
%ADD11C,4.700000*%
%TD*%
%TA.AperFunction,ComponentPad*%
%ADD12O,2.000000X0.900000*%
%TD*%
%TA.AperFunction,ComponentPad*%
%ADD13O,1.700000X0.900000*%
%TD*%
%TA.AperFunction,ViaPad*%
%ADD14C,0.800000*%
%TD*%
%TA.AperFunction,Conductor*%
%ADD15C,0.250000*%
%TD*%
%TA.AperFunction,Conductor*%
%ADD16C,0.254000*%
%TD*%
%TA.AperFunction,Conductor*%
%ADD17C,0.100000*%
%TD*%
G04 APERTURE END LIST*
D10*
%TO.P,J2,1*%
%TO.N,GND*%
X113750000Y-128500000D03*
%TD*%
%TO.P,J6,1*%
%TO.N,B-*%
X113750000Y-124250000D03*
%TD*%
D11*
%TO.P,H2,1*%
%TO.N,GND*%
X86250000Y-129500000D03*
%TD*%
D12*
%TO.P,J7,S1*%
%TO.N,GND*%
X89180000Y-116680000D03*
X89180000Y-125320000D03*
D13*
X85010000Y-116680000D03*
X85010000Y-125320000D03*
%TD*%
D11*
%TO.P,H1,1*%
%TO.N,GND*%
X86250000Y-112500000D03*
%TD*%
D10*
%TO.P,J1,1*%
%TO.N,VIN*%
X91250000Y-111750000D03*
%TD*%
%TO.P,J3,1*%
%TO.N,B+*%
X113750000Y-113500000D03*
%TD*%
%TO.P,J4,1*%
%TO.N,GND*%
X95250000Y-111750000D03*
%TD*%
%TO.P,J5,1*%
%TO.N,B+*%
X113750000Y-117750000D03*
%TD*%
D14*
%TO.N,GND*%
X95000000Y-116650000D03*
X93250000Y-131500000D03*
X102500000Y-131250000D03*
X108500000Y-129250000D03*
X107500000Y-129250000D03*
X94750000Y-123500000D03*
X98000000Y-119500000D03*
X99500000Y-117500000D03*
X103250000Y-115250000D03*
X104500000Y-114000000D03*
X90900000Y-117768794D03*
X91000000Y-124250000D03*
%TO.N,Net-(C4-Pad1)*%
X105250000Y-118250000D03*
X108000000Y-115500000D03*
%TO.N,Net-(D2-Pad1)*%
X94001285Y-116700723D03*
X97250000Y-111250000D03*
%TO.N,Net-(U2-Pad3)*%
X108750000Y-120500000D03*
X107000000Y-125750000D03*
%TD*%
D15*
%TO.N,Net-(C4-Pad1)*%
X105250000Y-118250000D02*
X108000000Y-115500000D01*
%TO.N,Net-(D2-Pad1)*%
X97250000Y-112886323D02*
X97250000Y-111250000D01*
X94001285Y-116135038D02*
X97250000Y-112886323D01*
X94001285Y-116700723D02*
X94001285Y-116135038D01*
%TO.N,Net-(U2-Pad3)*%
X107000000Y-122250000D02*
X107000000Y-125750000D01*
X108750000Y-120500000D02*
X107000000Y-122250000D01*
%TD*%
D16*
%TO.N,GND*%
X113254317Y-109953014D02*
X113739427Y-110099477D01*
X114186844Y-110337372D01*
X114579536Y-110657645D01*
X114902542Y-111048093D01*
X115143558Y-111493841D01*
X115190066Y-111644083D01*
X115124482Y-111624188D01*
X115000000Y-111611928D01*
X112500000Y-111611928D01*
X112375518Y-111624188D01*
X112255820Y-111660498D01*
X112145506Y-111719463D01*
X112048815Y-111798815D01*
X111969463Y-111895506D01*
X111910498Y-112005820D01*
X111874188Y-112125518D01*
X111861928Y-112250000D01*
X111861928Y-114750000D01*
X111874188Y-114874482D01*
X111910498Y-114994180D01*
X111969463Y-115104494D01*
X112048815Y-115201185D01*
X112145506Y-115280537D01*
X112255820Y-115339502D01*
X112375518Y-115375812D01*
X112500000Y-115388072D01*
X115000000Y-115388072D01*
X115124482Y-115375812D01*
X115244180Y-115339502D01*
X115339999Y-115288285D01*
X115339999Y-115961715D01*
X115244180Y-115910498D01*
X115124482Y-115874188D01*
X115000000Y-115861928D01*
X112500000Y-115861928D01*
X112375518Y-115874188D01*
X112255820Y-115910498D01*
X112145506Y-115969463D01*
X112048815Y-116048815D01*
X111969463Y-116145506D01*
X111910498Y-116255820D01*
X111874188Y-116375518D01*
X111861928Y-116500000D01*
X111861928Y-119000000D01*
X111874188Y-119124482D01*
X111910498Y-119244180D01*
X111969463Y-119354494D01*
X112048815Y-119451185D01*
X112145506Y-119530537D01*
X112255820Y-119589502D01*
X112375518Y-119625812D01*
X112500000Y-119638072D01*
X115000000Y-119638072D01*
X115124482Y-119625812D01*
X115244180Y-119589502D01*
X115340000Y-119538284D01*
X115340000Y-122461716D01*
X115244180Y-122410498D01*
X115124482Y-122374188D01*
X115000000Y-122361928D01*
X112500000Y-122361928D01*
X112375518Y-122374188D01*
X112255820Y-122410498D01*
X112145506Y-122469463D01*
X112048815Y-122548815D01*
X111969463Y-122645506D01*
X111910498Y-122755820D01*
X111874188Y-122875518D01*
X111861928Y-123000000D01*
X111861928Y-125500000D01*
X111874188Y-125624482D01*
X111910498Y-125744180D01*
X111969463Y-125854494D01*
X112048815Y-125951185D01*
X112145506Y-126030537D01*
X112255820Y-126089502D01*
X112375518Y-126125812D01*
X112500000Y-126138072D01*
X115000000Y-126138072D01*
X115124482Y-126125812D01*
X115244180Y-126089502D01*
X115340001Y-126038284D01*
X115340001Y-126711716D01*
X115244180Y-126660498D01*
X115124482Y-126624188D01*
X115000000Y-126611928D01*
X114035750Y-126615000D01*
X113877000Y-126773750D01*
X113877000Y-128373000D01*
X113897000Y-128373000D01*
X113897000Y-128627000D01*
X113877000Y-128627000D01*
X113877000Y-130226250D01*
X114035750Y-130385000D01*
X115000000Y-130388072D01*
X115124482Y-130375812D01*
X115179923Y-130358994D01*
X115141648Y-130485768D01*
X114904630Y-130931533D01*
X114585543Y-131322771D01*
X114196538Y-131644584D01*
X113752440Y-131884707D01*
X113270155Y-132034000D01*
X112737352Y-132090000D01*
X87738590Y-132090000D01*
X87908702Y-131999073D01*
X88166863Y-131596468D01*
X86250000Y-129679605D01*
X86235858Y-129693748D01*
X86056253Y-129514143D01*
X86070395Y-129500000D01*
X86429605Y-129500000D01*
X88346468Y-131416863D01*
X88749073Y-131158702D01*
X89024651Y-130639285D01*
X89193601Y-130076087D01*
X89224702Y-129750000D01*
X111861928Y-129750000D01*
X111874188Y-129874482D01*
X111910498Y-129994180D01*
X111969463Y-130104494D01*
X112048815Y-130201185D01*
X112145506Y-130280537D01*
X112255820Y-130339502D01*
X112375518Y-130375812D01*
X112500000Y-130388072D01*
X113464250Y-130385000D01*
X113623000Y-130226250D01*
X113623000Y-128627000D01*
X112023750Y-128627000D01*
X111865000Y-128785750D01*
X111861928Y-129750000D01*
X89224702Y-129750000D01*
X89249430Y-129490750D01*
X89189992Y-128905767D01*
X89017571Y-128343621D01*
X88749073Y-127841298D01*
X88346468Y-127583137D01*
X86429605Y-129500000D01*
X86070395Y-129500000D01*
X84153532Y-127583137D01*
X83750927Y-127841298D01*
X83660000Y-128012680D01*
X83660000Y-127403532D01*
X84333137Y-127403532D01*
X86250000Y-129320395D01*
X88166863Y-127403532D01*
X88068415Y-127250000D01*
X111861928Y-127250000D01*
X111865000Y-128214250D01*
X112023750Y-128373000D01*
X113623000Y-128373000D01*
X113623000Y-126773750D01*
X113464250Y-126615000D01*
X112500000Y-126611928D01*
X112375518Y-126624188D01*
X112255820Y-126660498D01*
X112145506Y-126719463D01*
X112048815Y-126798815D01*
X111969463Y-126895506D01*
X111910498Y-127005820D01*
X111874188Y-127125518D01*
X111861928Y-127250000D01*
X88068415Y-127250000D01*
X87908702Y-127000927D01*
X87389285Y-126725349D01*
X86826087Y-126556399D01*
X86240750Y-126500570D01*
X85655767Y-126560008D01*
X85093621Y-126732429D01*
X84591298Y-127000927D01*
X84333137Y-127403532D01*
X83660000Y-127403532D01*
X83660000Y-125852561D01*
X83752986Y-125997408D01*
X83901609Y-126151587D01*
X84077455Y-126273809D01*
X84273767Y-126359376D01*
X84483000Y-126405000D01*
X84883000Y-126405000D01*
X84883000Y-125447000D01*
X85137000Y-125447000D01*
X85137000Y-126405000D01*
X85537000Y-126405000D01*
X85746233Y-126359376D01*
X85942545Y-126273809D01*
X86118391Y-126151587D01*
X86267014Y-125997408D01*
X86382702Y-125817197D01*
X86454408Y-125614001D01*
X87585592Y-125614001D01*
X87657298Y-125817197D01*
X87772986Y-125997408D01*
X87921609Y-126151587D01*
X88097455Y-126273809D01*
X88293767Y-126359376D01*
X88503000Y-126405000D01*
X89053000Y-126405000D01*
X89053000Y-125447000D01*
X89307000Y-125447000D01*
X89307000Y-126405000D01*
X89857000Y-126405000D01*
X90066233Y-126359376D01*
X90262545Y-126273809D01*
X90438391Y-126151587D01*
X90587014Y-125997408D01*
X90702702Y-125817197D01*
X90762388Y-125648061D01*
X105965000Y-125648061D01*
X105965000Y-125851939D01*
X106004774Y-126051898D01*
X106082795Y-126240256D01*
X106196063Y-126409774D01*
X106340226Y-126553937D01*
X106509744Y-126667205D01*
X106698102Y-126745226D01*
X106898061Y-126785000D01*
X107101939Y-126785000D01*
X107301898Y-126745226D01*
X107490256Y-126667205D01*
X107659774Y-126553937D01*
X107803937Y-126409774D01*
X107917205Y-126240256D01*
X107995226Y-126051898D01*
X108035000Y-125851939D01*
X108035000Y-125648061D01*
X107995226Y-125448102D01*
X107917205Y-125259744D01*
X107803937Y-125090226D01*
X107760000Y-125046289D01*
X107760000Y-122564801D01*
X108789802Y-121535000D01*
X108851939Y-121535000D01*
X109051898Y-121495226D01*
X109240256Y-121417205D01*
X109409774Y-121303937D01*
X109553937Y-121159774D01*
X109667205Y-120990256D01*
X109745226Y-120801898D01*
X109785000Y-120601939D01*
X109785000Y-120398061D01*
X109745226Y-120198102D01*
X109667205Y-120009744D01*
X109553937Y-119840226D01*
X109409774Y-119696063D01*
X109240256Y-119582795D01*
X109051898Y-119504774D01*
X108851939Y-119465000D01*
X108648061Y-119465000D01*
X108448102Y-119504774D01*
X108259744Y-119582795D01*
X108090226Y-119696063D01*
X107946063Y-119840226D01*
X107832795Y-120009744D01*
X107754774Y-120198102D01*
X107715000Y-120398061D01*
X107715000Y-120460198D01*
X106489003Y-121686196D01*
X106459999Y-121709999D01*
X106404871Y-121777174D01*
X106365026Y-121825724D01*
X106294455Y-121957753D01*
X106294454Y-121957754D01*
X106250997Y-122101015D01*
X106240000Y-122212668D01*
X106240000Y-122212678D01*
X106236324Y-122250000D01*
X106240000Y-122287323D01*
X106240001Y-125046288D01*
X106196063Y-125090226D01*
X106082795Y-125259744D01*
X106004774Y-125448102D01*
X105965000Y-125648061D01*
X90762388Y-125648061D01*
X90774408Y-125614001D01*
X90647502Y-125447000D01*
X89307000Y-125447000D01*
X89053000Y-125447000D01*
X87712498Y-125447000D01*
X87585592Y-125614001D01*
X86454408Y-125614001D01*
X86327502Y-125447000D01*
X85137000Y-125447000D01*
X84883000Y-125447000D01*
X84863000Y-125447000D01*
X84863000Y-125193000D01*
X84883000Y-125193000D01*
X84883000Y-124235000D01*
X85137000Y-124235000D01*
X85137000Y-125193000D01*
X86327502Y-125193000D01*
X86454408Y-125025999D01*
X87585592Y-125025999D01*
X87712498Y-125193000D01*
X89053000Y-125193000D01*
X89053000Y-125173000D01*
X89307000Y-125173000D01*
X89307000Y-125193000D01*
X90647502Y-125193000D01*
X90774408Y-125025999D01*
X90702702Y-124822803D01*
X90587014Y-124642592D01*
X90438391Y-124488413D01*
X90262545Y-124366191D01*
X90066233Y-124280624D01*
X89857000Y-124235000D01*
X89569133Y-124235000D01*
X89599068Y-124162729D01*
X89635000Y-123982089D01*
X89635000Y-123797911D01*
X89599068Y-123617271D01*
X89528586Y-123447111D01*
X89426262Y-123293972D01*
X89296028Y-123163738D01*
X89142889Y-123061414D01*
X88972729Y-122990932D01*
X88792089Y-122955000D01*
X88607911Y-122955000D01*
X88427271Y-122990932D01*
X88257111Y-123061414D01*
X88103972Y-123163738D01*
X87973738Y-123293972D01*
X87871414Y-123447111D01*
X87800932Y-123617271D01*
X87765000Y-123797911D01*
X87765000Y-123982089D01*
X87800932Y-124162729D01*
X87871414Y-124332889D01*
X87958294Y-124462915D01*
X87921609Y-124488413D01*
X87772986Y-124642592D01*
X87657298Y-124822803D01*
X87585592Y-125025999D01*
X86454408Y-125025999D01*
X86382702Y-124822803D01*
X86267014Y-124642592D01*
X86118391Y-124488413D01*
X85942545Y-124366191D01*
X85746233Y-124280624D01*
X85537000Y-124235000D01*
X85137000Y-124235000D01*
X84883000Y-124235000D01*
X84483000Y-124235000D01*
X84273767Y-124280624D01*
X84077455Y-124366191D01*
X83901609Y-124488413D01*
X83752986Y-124642592D01*
X83660000Y-124787439D01*
X83660000Y-117212561D01*
X83752986Y-117357408D01*
X83901609Y-117511587D01*
X84077455Y-117633809D01*
X84273767Y-117719376D01*
X84483000Y-117765000D01*
X84883000Y-117765000D01*
X84883000Y-116807000D01*
X85137000Y-116807000D01*
X85137000Y-117765000D01*
X85537000Y-117765000D01*
X85746233Y-117719376D01*
X85942545Y-117633809D01*
X86118391Y-117511587D01*
X86267014Y-117357408D01*
X86382702Y-117177197D01*
X86454408Y-116974001D01*
X87585592Y-116974001D01*
X87657298Y-117177197D01*
X87772986Y-117357408D01*
X87921609Y-117511587D01*
X87958294Y-117537085D01*
X87871414Y-117667111D01*
X87800932Y-117837271D01*
X87765000Y-118017911D01*
X87765000Y-118202089D01*
X87800932Y-118382729D01*
X87871414Y-118552889D01*
X87973738Y-118706028D01*
X88103972Y-118836262D01*
X88257111Y-118938586D01*
X88427271Y-119009068D01*
X88607911Y-119045000D01*
X88792089Y-119045000D01*
X88972729Y-119009068D01*
X89142889Y-118938586D01*
X89296028Y-118836262D01*
X89426262Y-118706028D01*
X89528586Y-118552889D01*
X89599068Y-118382729D01*
X89635000Y-118202089D01*
X89635000Y-118148061D01*
X104215000Y-118148061D01*
X104215000Y-118351939D01*
X104254774Y-118551898D01*
X104332795Y-118740256D01*
X104446063Y-118909774D01*
X104590226Y-119053937D01*
X104759744Y-119167205D01*
X104948102Y-119245226D01*
X105148061Y-119285000D01*
X105351939Y-119285000D01*
X105551898Y-119245226D01*
X105740256Y-119167205D01*
X105909774Y-119053937D01*
X106053937Y-118909774D01*
X106167205Y-118740256D01*
X106245226Y-118551898D01*
X106285000Y-118351939D01*
X106285000Y-118289801D01*
X108039802Y-116535000D01*
X108101939Y-116535000D01*
X108301898Y-116495226D01*
X108490256Y-116417205D01*
X108659774Y-116303937D01*
X108803937Y-116159774D01*
X108917205Y-115990256D01*
X108995226Y-115801898D01*
X109035000Y-115601939D01*
X109035000Y-115398061D01*
X108995226Y-115198102D01*
X108917205Y-115009744D01*
X108803937Y-114840226D01*
X108659774Y-114696063D01*
X108490256Y-114582795D01*
X108301898Y-114504774D01*
X108101939Y-114465000D01*
X107898061Y-114465000D01*
X107698102Y-114504774D01*
X107509744Y-114582795D01*
X107340226Y-114696063D01*
X107196063Y-114840226D01*
X107082795Y-115009744D01*
X107004774Y-115198102D01*
X106965000Y-115398061D01*
X106965000Y-115460198D01*
X105210199Y-117215000D01*
X105148061Y-117215000D01*
X104948102Y-117254774D01*
X104759744Y-117332795D01*
X104590226Y-117446063D01*
X104446063Y-117590226D01*
X104332795Y-117759744D01*
X104254774Y-117948102D01*
X104215000Y-118148061D01*
X89635000Y-118148061D01*
X89635000Y-118017911D01*
X89599068Y-117837271D01*
X89569133Y-117765000D01*
X89857000Y-117765000D01*
X90066233Y-117719376D01*
X90262545Y-117633809D01*
X90438391Y-117511587D01*
X90587014Y-117357408D01*
X90702702Y-117177197D01*
X90774408Y-116974001D01*
X90647502Y-116807000D01*
X89307000Y-116807000D01*
X89307000Y-116827000D01*
X89053000Y-116827000D01*
X89053000Y-116807000D01*
X87712498Y-116807000D01*
X87585592Y-116974001D01*
X86454408Y-116974001D01*
X86327502Y-116807000D01*
X85137000Y-116807000D01*
X84883000Y-116807000D01*
X84863000Y-116807000D01*
X84863000Y-116553000D01*
X84883000Y-116553000D01*
X84883000Y-115595000D01*
X85137000Y-115595000D01*
X85137000Y-116553000D01*
X86327502Y-116553000D01*
X86454408Y-116385999D01*
X87585592Y-116385999D01*
X87712498Y-116553000D01*
X89053000Y-116553000D01*
X89053000Y-115595000D01*
X89307000Y-115595000D01*
X89307000Y-116553000D01*
X90647502Y-116553000D01*
X90774408Y-116385999D01*
X90702702Y-116182803D01*
X90587014Y-116002592D01*
X90438391Y-115848413D01*
X90262545Y-115726191D01*
X90066233Y-115640624D01*
X89857000Y-115595000D01*
X89307000Y-115595000D01*
X89053000Y-115595000D01*
X88503000Y-115595000D01*
X88293767Y-115640624D01*
X88097455Y-115726191D01*
X87921609Y-115848413D01*
X87772986Y-116002592D01*
X87657298Y-116182803D01*
X87585592Y-116385999D01*
X86454408Y-116385999D01*
X86382702Y-116182803D01*
X86267014Y-116002592D01*
X86118391Y-115848413D01*
X85942545Y-115726191D01*
X85746233Y-115640624D01*
X85537000Y-115595000D01*
X85137000Y-115595000D01*
X84883000Y-115595000D01*
X84483000Y-115595000D01*
X84273767Y-115640624D01*
X84077455Y-115726191D01*
X83901609Y-115848413D01*
X83752986Y-116002592D01*
X83660000Y-116147439D01*
X83660000Y-114596468D01*
X84333137Y-114596468D01*
X84591298Y-114999073D01*
X85110715Y-115274651D01*
X85673913Y-115443601D01*
X86259250Y-115499430D01*
X86844233Y-115439992D01*
X87406379Y-115267571D01*
X87908702Y-114999073D01*
X88166863Y-114596468D01*
X86250000Y-112679605D01*
X84333137Y-114596468D01*
X83660000Y-114596468D01*
X83660000Y-113988590D01*
X83750927Y-114158702D01*
X84153532Y-114416863D01*
X86070395Y-112500000D01*
X86429605Y-112500000D01*
X88346468Y-114416863D01*
X88749073Y-114158702D01*
X89024651Y-113639285D01*
X89193601Y-113076087D01*
X89249430Y-112490750D01*
X89189992Y-111905767D01*
X89017571Y-111343621D01*
X88749073Y-110841298D01*
X88346468Y-110583137D01*
X86429605Y-112500000D01*
X86070395Y-112500000D01*
X86056253Y-112485858D01*
X86235858Y-112306253D01*
X86250000Y-112320395D01*
X88166863Y-110403532D01*
X87908702Y-110000927D01*
X87736304Y-109909461D01*
X89761657Y-109908727D01*
X89755820Y-109910498D01*
X89645506Y-109969463D01*
X89548815Y-110048815D01*
X89469463Y-110145506D01*
X89410498Y-110255820D01*
X89374188Y-110375518D01*
X89361928Y-110500000D01*
X89361928Y-113000000D01*
X89374188Y-113124482D01*
X89410498Y-113244180D01*
X89469463Y-113354494D01*
X89548815Y-113451185D01*
X89645506Y-113530537D01*
X89755820Y-113589502D01*
X89875518Y-113625812D01*
X90000000Y-113638072D01*
X92500000Y-113638072D01*
X92624482Y-113625812D01*
X92744180Y-113589502D01*
X92854494Y-113530537D01*
X92951185Y-113451185D01*
X93030537Y-113354494D01*
X93089502Y-113244180D01*
X93125812Y-113124482D01*
X93138072Y-113000000D01*
X93361928Y-113000000D01*
X93374188Y-113124482D01*
X93410498Y-113244180D01*
X93469463Y-113354494D01*
X93548815Y-113451185D01*
X93645506Y-113530537D01*
X93755820Y-113589502D01*
X93875518Y-113625812D01*
X94000000Y-113638072D01*
X94964250Y-113635000D01*
X95123000Y-113476250D01*
X95123000Y-111877000D01*
X93523750Y-111877000D01*
X93365000Y-112035750D01*
X93361928Y-113000000D01*
X93138072Y-113000000D01*
X93138072Y-110500000D01*
X93125812Y-110375518D01*
X93089502Y-110255820D01*
X93030537Y-110145506D01*
X92951185Y-110048815D01*
X92854494Y-109969463D01*
X92744180Y-109910498D01*
X92734792Y-109907650D01*
X93766440Y-109907277D01*
X93755820Y-109910498D01*
X93645506Y-109969463D01*
X93548815Y-110048815D01*
X93469463Y-110145506D01*
X93410498Y-110255820D01*
X93374188Y-110375518D01*
X93361928Y-110500000D01*
X93365000Y-111464250D01*
X93523750Y-111623000D01*
X95123000Y-111623000D01*
X95123000Y-111603000D01*
X95377000Y-111603000D01*
X95377000Y-111623000D01*
X95397000Y-111623000D01*
X95397000Y-111877000D01*
X95377000Y-111877000D01*
X95377000Y-113476250D01*
X95481136Y-113580386D01*
X93490283Y-115571239D01*
X93461285Y-115595037D01*
X93437487Y-115624035D01*
X93437486Y-115624036D01*
X93366311Y-115710762D01*
X93327422Y-115783518D01*
X93295739Y-115842791D01*
X93252298Y-115985999D01*
X93197348Y-116040949D01*
X93084080Y-116210467D01*
X93006059Y-116398825D01*
X92966285Y-116598784D01*
X92966285Y-116802662D01*
X93006059Y-117002621D01*
X93084080Y-117190979D01*
X93197348Y-117360497D01*
X93341511Y-117504660D01*
X93511029Y-117617928D01*
X93699387Y-117695949D01*
X93899346Y-117735723D01*
X94103224Y-117735723D01*
X94303183Y-117695949D01*
X94491541Y-117617928D01*
X94661059Y-117504660D01*
X94805222Y-117360497D01*
X94918490Y-117190979D01*
X94996511Y-117002621D01*
X95036285Y-116802662D01*
X95036285Y-116598784D01*
X94996511Y-116398825D01*
X94942556Y-116268568D01*
X97761004Y-113450121D01*
X97790001Y-113426324D01*
X97884974Y-113310599D01*
X97955546Y-113178570D01*
X97999003Y-113035309D01*
X98010000Y-112923656D01*
X98010000Y-112923646D01*
X98013676Y-112886323D01*
X98010000Y-112849000D01*
X98010000Y-111953711D01*
X98053937Y-111909774D01*
X98167205Y-111740256D01*
X98245226Y-111551898D01*
X98285000Y-111351939D01*
X98285000Y-111148061D01*
X98245226Y-110948102D01*
X98167205Y-110759744D01*
X98053937Y-110590226D01*
X97909774Y-110446063D01*
X97740256Y-110332795D01*
X97551898Y-110254774D01*
X97351939Y-110215000D01*
X97148061Y-110215000D01*
X97075408Y-110229452D01*
X97030537Y-110145506D01*
X96951185Y-110048815D01*
X96854494Y-109969463D01*
X96744180Y-109910498D01*
X96730021Y-109906203D01*
X112717839Y-109900411D01*
X113254317Y-109953014D01*
%TA.AperFunction,Conductor*%
D17*
G36*
X113254317Y-109953014D02*
G01*
X113739427Y-110099477D01*
X114186844Y-110337372D01*
X114579536Y-110657645D01*
X114902542Y-111048093D01*
X115143558Y-111493841D01*
X115190066Y-111644083D01*
X115124482Y-111624188D01*
X115000000Y-111611928D01*
X112500000Y-111611928D01*
X112375518Y-111624188D01*
X112255820Y-111660498D01*
X112145506Y-111719463D01*
X112048815Y-111798815D01*
X111969463Y-111895506D01*
X111910498Y-112005820D01*
X111874188Y-112125518D01*
X111861928Y-112250000D01*
X111861928Y-114750000D01*
X111874188Y-114874482D01*
X111910498Y-114994180D01*
X111969463Y-115104494D01*
X112048815Y-115201185D01*
X112145506Y-115280537D01*
X112255820Y-115339502D01*
X112375518Y-115375812D01*
X112500000Y-115388072D01*
X115000000Y-115388072D01*
X115124482Y-115375812D01*
X115244180Y-115339502D01*
X115339999Y-115288285D01*
X115339999Y-115961715D01*
X115244180Y-115910498D01*
X115124482Y-115874188D01*
X115000000Y-115861928D01*
X112500000Y-115861928D01*
X112375518Y-115874188D01*
X112255820Y-115910498D01*
X112145506Y-115969463D01*
X112048815Y-116048815D01*
X111969463Y-116145506D01*
X111910498Y-116255820D01*
X111874188Y-116375518D01*
X111861928Y-116500000D01*
X111861928Y-119000000D01*
X111874188Y-119124482D01*
X111910498Y-119244180D01*
X111969463Y-119354494D01*
X112048815Y-119451185D01*
X112145506Y-119530537D01*
X112255820Y-119589502D01*
X112375518Y-119625812D01*
X112500000Y-119638072D01*
X115000000Y-119638072D01*
X115124482Y-119625812D01*
X115244180Y-119589502D01*
X115340000Y-119538284D01*
X115340000Y-122461716D01*
X115244180Y-122410498D01*
X115124482Y-122374188D01*
X115000000Y-122361928D01*
X112500000Y-122361928D01*
X112375518Y-122374188D01*
X112255820Y-122410498D01*
X112145506Y-122469463D01*
X112048815Y-122548815D01*
X111969463Y-122645506D01*
X111910498Y-122755820D01*
X111874188Y-122875518D01*
X111861928Y-123000000D01*
X111861928Y-125500000D01*
X111874188Y-125624482D01*
X111910498Y-125744180D01*
X111969463Y-125854494D01*
X112048815Y-125951185D01*
X112145506Y-126030537D01*
X112255820Y-126089502D01*
X112375518Y-126125812D01*
X112500000Y-126138072D01*
X115000000Y-126138072D01*
X115124482Y-126125812D01*
X115244180Y-126089502D01*
X115340001Y-126038284D01*
X115340001Y-126711716D01*
X115244180Y-126660498D01*
X115124482Y-126624188D01*
X115000000Y-126611928D01*
X114035750Y-126615000D01*
X113877000Y-126773750D01*
X113877000Y-128373000D01*
X113897000Y-128373000D01*
X113897000Y-128627000D01*
X113877000Y-128627000D01*
X113877000Y-130226250D01*
X114035750Y-130385000D01*
X115000000Y-130388072D01*
X115124482Y-130375812D01*
X115179923Y-130358994D01*
X115141648Y-130485768D01*
X114904630Y-130931533D01*
X114585543Y-131322771D01*
X114196538Y-131644584D01*
X113752440Y-131884707D01*
X113270155Y-132034000D01*
X112737352Y-132090000D01*
X87738590Y-132090000D01*
X87908702Y-131999073D01*
X88166863Y-131596468D01*
X86250000Y-129679605D01*
X86235858Y-129693748D01*
X86056253Y-129514143D01*
X86070395Y-129500000D01*
X86429605Y-129500000D01*
X88346468Y-131416863D01*
X88749073Y-131158702D01*
X89024651Y-130639285D01*
X89193601Y-130076087D01*
X89224702Y-129750000D01*
X111861928Y-129750000D01*
X111874188Y-129874482D01*
X111910498Y-129994180D01*
X111969463Y-130104494D01*
X112048815Y-130201185D01*
X112145506Y-130280537D01*
X112255820Y-130339502D01*
X112375518Y-130375812D01*
X112500000Y-130388072D01*
X113464250Y-130385000D01*
X113623000Y-130226250D01*
X113623000Y-128627000D01*
X112023750Y-128627000D01*
X111865000Y-128785750D01*
X111861928Y-129750000D01*
X89224702Y-129750000D01*
X89249430Y-129490750D01*
X89189992Y-128905767D01*
X89017571Y-128343621D01*
X88749073Y-127841298D01*
X88346468Y-127583137D01*
X86429605Y-129500000D01*
X86070395Y-129500000D01*
X84153532Y-127583137D01*
X83750927Y-127841298D01*
X83660000Y-128012680D01*
X83660000Y-127403532D01*
X84333137Y-127403532D01*
X86250000Y-129320395D01*
X88166863Y-127403532D01*
X88068415Y-127250000D01*
X111861928Y-127250000D01*
X111865000Y-128214250D01*
X112023750Y-128373000D01*
X113623000Y-128373000D01*
X113623000Y-126773750D01*
X113464250Y-126615000D01*
X112500000Y-126611928D01*
X112375518Y-126624188D01*
X112255820Y-126660498D01*
X112145506Y-126719463D01*
X112048815Y-126798815D01*
X111969463Y-126895506D01*
X111910498Y-127005820D01*
X111874188Y-127125518D01*
X111861928Y-127250000D01*
X88068415Y-127250000D01*
X87908702Y-127000927D01*
X87389285Y-126725349D01*
X86826087Y-126556399D01*
X86240750Y-126500570D01*
X85655767Y-126560008D01*
X85093621Y-126732429D01*
X84591298Y-127000927D01*
X84333137Y-127403532D01*
X83660000Y-127403532D01*
X83660000Y-125852561D01*
X83752986Y-125997408D01*
X83901609Y-126151587D01*
X84077455Y-126273809D01*
X84273767Y-126359376D01*
X84483000Y-126405000D01*
X84883000Y-126405000D01*
X84883000Y-125447000D01*
X85137000Y-125447000D01*
X85137000Y-126405000D01*
X85537000Y-126405000D01*
X85746233Y-126359376D01*
X85942545Y-126273809D01*
X86118391Y-126151587D01*
X86267014Y-125997408D01*
X86382702Y-125817197D01*
X86454408Y-125614001D01*
X87585592Y-125614001D01*
X87657298Y-125817197D01*
X87772986Y-125997408D01*
X87921609Y-126151587D01*
X88097455Y-126273809D01*
X88293767Y-126359376D01*
X88503000Y-126405000D01*
X89053000Y-126405000D01*
X89053000Y-125447000D01*
X89307000Y-125447000D01*
X89307000Y-126405000D01*
X89857000Y-126405000D01*
X90066233Y-126359376D01*
X90262545Y-126273809D01*
X90438391Y-126151587D01*
X90587014Y-125997408D01*
X90702702Y-125817197D01*
X90762388Y-125648061D01*
X105965000Y-125648061D01*
X105965000Y-125851939D01*
X106004774Y-126051898D01*
X106082795Y-126240256D01*
X106196063Y-126409774D01*
X106340226Y-126553937D01*
X106509744Y-126667205D01*
X106698102Y-126745226D01*
X106898061Y-126785000D01*
X107101939Y-126785000D01*
X107301898Y-126745226D01*
X107490256Y-126667205D01*
X107659774Y-126553937D01*
X107803937Y-126409774D01*
X107917205Y-126240256D01*
X107995226Y-126051898D01*
X108035000Y-125851939D01*
X108035000Y-125648061D01*
X107995226Y-125448102D01*
X107917205Y-125259744D01*
X107803937Y-125090226D01*
X107760000Y-125046289D01*
X107760000Y-122564801D01*
X108789802Y-121535000D01*
X108851939Y-121535000D01*
X109051898Y-121495226D01*
X109240256Y-121417205D01*
X109409774Y-121303937D01*
X109553937Y-121159774D01*
X109667205Y-120990256D01*
X109745226Y-120801898D01*
X109785000Y-120601939D01*
X109785000Y-120398061D01*
X109745226Y-120198102D01*
X109667205Y-120009744D01*
X109553937Y-119840226D01*
X109409774Y-119696063D01*
X109240256Y-119582795D01*
X109051898Y-119504774D01*
X108851939Y-119465000D01*
X108648061Y-119465000D01*
X108448102Y-119504774D01*
X108259744Y-119582795D01*
X108090226Y-119696063D01*
X107946063Y-119840226D01*
X107832795Y-120009744D01*
X107754774Y-120198102D01*
X107715000Y-120398061D01*
X107715000Y-120460198D01*
X106489003Y-121686196D01*
X106459999Y-121709999D01*
X106404871Y-121777174D01*
X106365026Y-121825724D01*
X106294455Y-121957753D01*
X106294454Y-121957754D01*
X106250997Y-122101015D01*
X106240000Y-122212668D01*
X106240000Y-122212678D01*
X106236324Y-122250000D01*
X106240000Y-122287323D01*
X106240001Y-125046288D01*
X106196063Y-125090226D01*
X106082795Y-125259744D01*
X106004774Y-125448102D01*
X105965000Y-125648061D01*
X90762388Y-125648061D01*
X90774408Y-125614001D01*
X90647502Y-125447000D01*
X89307000Y-125447000D01*
X89053000Y-125447000D01*
X87712498Y-125447000D01*
X87585592Y-125614001D01*
X86454408Y-125614001D01*
X86327502Y-125447000D01*
X85137000Y-125447000D01*
X84883000Y-125447000D01*
X84863000Y-125447000D01*
X84863000Y-125193000D01*
X84883000Y-125193000D01*
X84883000Y-124235000D01*
X85137000Y-124235000D01*
X85137000Y-125193000D01*
X86327502Y-125193000D01*
X86454408Y-125025999D01*
X87585592Y-125025999D01*
X87712498Y-125193000D01*
X89053000Y-125193000D01*
X89053000Y-125173000D01*
X89307000Y-125173000D01*
X89307000Y-125193000D01*
X90647502Y-125193000D01*
X90774408Y-125025999D01*
X90702702Y-124822803D01*
X90587014Y-124642592D01*
X90438391Y-124488413D01*
X90262545Y-124366191D01*
X90066233Y-124280624D01*
X89857000Y-124235000D01*
X89569133Y-124235000D01*
X89599068Y-124162729D01*
X89635000Y-123982089D01*
X89635000Y-123797911D01*
X89599068Y-123617271D01*
X89528586Y-123447111D01*
X89426262Y-123293972D01*
X89296028Y-123163738D01*
X89142889Y-123061414D01*
X88972729Y-122990932D01*
X88792089Y-122955000D01*
X88607911Y-122955000D01*
X88427271Y-122990932D01*
X88257111Y-123061414D01*
X88103972Y-123163738D01*
X87973738Y-123293972D01*
X87871414Y-123447111D01*
X87800932Y-123617271D01*
X87765000Y-123797911D01*
X87765000Y-123982089D01*
X87800932Y-124162729D01*
X87871414Y-124332889D01*
X87958294Y-124462915D01*
X87921609Y-124488413D01*
X87772986Y-124642592D01*
X87657298Y-124822803D01*
X87585592Y-125025999D01*
X86454408Y-125025999D01*
X86382702Y-124822803D01*
X86267014Y-124642592D01*
X86118391Y-124488413D01*
X85942545Y-124366191D01*
X85746233Y-124280624D01*
X85537000Y-124235000D01*
X85137000Y-124235000D01*
X84883000Y-124235000D01*
X84483000Y-124235000D01*
X84273767Y-124280624D01*
X84077455Y-124366191D01*
X83901609Y-124488413D01*
X83752986Y-124642592D01*
X83660000Y-124787439D01*
X83660000Y-117212561D01*
X83752986Y-117357408D01*
X83901609Y-117511587D01*
X84077455Y-117633809D01*
X84273767Y-117719376D01*
X84483000Y-117765000D01*
X84883000Y-117765000D01*
X84883000Y-116807000D01*
X85137000Y-116807000D01*
X85137000Y-117765000D01*
X85537000Y-117765000D01*
X85746233Y-117719376D01*
X85942545Y-117633809D01*
X86118391Y-117511587D01*
X86267014Y-117357408D01*
X86382702Y-117177197D01*
X86454408Y-116974001D01*
X87585592Y-116974001D01*
X87657298Y-117177197D01*
X87772986Y-117357408D01*
X87921609Y-117511587D01*
X87958294Y-117537085D01*
X87871414Y-117667111D01*
X87800932Y-117837271D01*
X87765000Y-118017911D01*
X87765000Y-118202089D01*
X87800932Y-118382729D01*
X87871414Y-118552889D01*
X87973738Y-118706028D01*
X88103972Y-118836262D01*
X88257111Y-118938586D01*
X88427271Y-119009068D01*
X88607911Y-119045000D01*
X88792089Y-119045000D01*
X88972729Y-119009068D01*
X89142889Y-118938586D01*
X89296028Y-118836262D01*
X89426262Y-118706028D01*
X89528586Y-118552889D01*
X89599068Y-118382729D01*
X89635000Y-118202089D01*
X89635000Y-118148061D01*
X104215000Y-118148061D01*
X104215000Y-118351939D01*
X104254774Y-118551898D01*
X104332795Y-118740256D01*
X104446063Y-118909774D01*
X104590226Y-119053937D01*
X104759744Y-119167205D01*
X104948102Y-119245226D01*
X105148061Y-119285000D01*
X105351939Y-119285000D01*
X105551898Y-119245226D01*
X105740256Y-119167205D01*
X105909774Y-119053937D01*
X106053937Y-118909774D01*
X106167205Y-118740256D01*
X106245226Y-118551898D01*
X106285000Y-118351939D01*
X106285000Y-118289801D01*
X108039802Y-116535000D01*
X108101939Y-116535000D01*
X108301898Y-116495226D01*
X108490256Y-116417205D01*
X108659774Y-116303937D01*
X108803937Y-116159774D01*
X108917205Y-115990256D01*
X108995226Y-115801898D01*
X109035000Y-115601939D01*
X109035000Y-115398061D01*
X108995226Y-115198102D01*
X108917205Y-115009744D01*
X108803937Y-114840226D01*
X108659774Y-114696063D01*
X108490256Y-114582795D01*
X108301898Y-114504774D01*
X108101939Y-114465000D01*
X107898061Y-114465000D01*
X107698102Y-114504774D01*
X107509744Y-114582795D01*
X107340226Y-114696063D01*
X107196063Y-114840226D01*
X107082795Y-115009744D01*
X107004774Y-115198102D01*
X106965000Y-115398061D01*
X106965000Y-115460198D01*
X105210199Y-117215000D01*
X105148061Y-117215000D01*
X104948102Y-117254774D01*
X104759744Y-117332795D01*
X104590226Y-117446063D01*
X104446063Y-117590226D01*
X104332795Y-117759744D01*
X104254774Y-117948102D01*
X104215000Y-118148061D01*
X89635000Y-118148061D01*
X89635000Y-118017911D01*
X89599068Y-117837271D01*
X89569133Y-117765000D01*
X89857000Y-117765000D01*
X90066233Y-117719376D01*
X90262545Y-117633809D01*
X90438391Y-117511587D01*
X90587014Y-117357408D01*
X90702702Y-117177197D01*
X90774408Y-116974001D01*
X90647502Y-116807000D01*
X89307000Y-116807000D01*
X89307000Y-116827000D01*
X89053000Y-116827000D01*
X89053000Y-116807000D01*
X87712498Y-116807000D01*
X87585592Y-116974001D01*
X86454408Y-116974001D01*
X86327502Y-116807000D01*
X85137000Y-116807000D01*
X84883000Y-116807000D01*
X84863000Y-116807000D01*
X84863000Y-116553000D01*
X84883000Y-116553000D01*
X84883000Y-115595000D01*
X85137000Y-115595000D01*
X85137000Y-116553000D01*
X86327502Y-116553000D01*
X86454408Y-116385999D01*
X87585592Y-116385999D01*
X87712498Y-116553000D01*
X89053000Y-116553000D01*
X89053000Y-115595000D01*
X89307000Y-115595000D01*
X89307000Y-116553000D01*
X90647502Y-116553000D01*
X90774408Y-116385999D01*
X90702702Y-116182803D01*
X90587014Y-116002592D01*
X90438391Y-115848413D01*
X90262545Y-115726191D01*
X90066233Y-115640624D01*
X89857000Y-115595000D01*
X89307000Y-115595000D01*
X89053000Y-115595000D01*
X88503000Y-115595000D01*
X88293767Y-115640624D01*
X88097455Y-115726191D01*
X87921609Y-115848413D01*
X87772986Y-116002592D01*
X87657298Y-116182803D01*
X87585592Y-116385999D01*
X86454408Y-116385999D01*
X86382702Y-116182803D01*
X86267014Y-116002592D01*
X86118391Y-115848413D01*
X85942545Y-115726191D01*
X85746233Y-115640624D01*
X85537000Y-115595000D01*
X85137000Y-115595000D01*
X84883000Y-115595000D01*
X84483000Y-115595000D01*
X84273767Y-115640624D01*
X84077455Y-115726191D01*
X83901609Y-115848413D01*
X83752986Y-116002592D01*
X83660000Y-116147439D01*
X83660000Y-114596468D01*
X84333137Y-114596468D01*
X84591298Y-114999073D01*
X85110715Y-115274651D01*
X85673913Y-115443601D01*
X86259250Y-115499430D01*
X86844233Y-115439992D01*
X87406379Y-115267571D01*
X87908702Y-114999073D01*
X88166863Y-114596468D01*
X86250000Y-112679605D01*
X84333137Y-114596468D01*
X83660000Y-114596468D01*
X83660000Y-113988590D01*
X83750927Y-114158702D01*
X84153532Y-114416863D01*
X86070395Y-112500000D01*
X86429605Y-112500000D01*
X88346468Y-114416863D01*
X88749073Y-114158702D01*
X89024651Y-113639285D01*
X89193601Y-113076087D01*
X89249430Y-112490750D01*
X89189992Y-111905767D01*
X89017571Y-111343621D01*
X88749073Y-110841298D01*
X88346468Y-110583137D01*
X86429605Y-112500000D01*
X86070395Y-112500000D01*
X86056253Y-112485858D01*
X86235858Y-112306253D01*
X86250000Y-112320395D01*
X88166863Y-110403532D01*
X87908702Y-110000927D01*
X87736304Y-109909461D01*
X89761657Y-109908727D01*
X89755820Y-109910498D01*
X89645506Y-109969463D01*
X89548815Y-110048815D01*
X89469463Y-110145506D01*
X89410498Y-110255820D01*
X89374188Y-110375518D01*
X89361928Y-110500000D01*
X89361928Y-113000000D01*
X89374188Y-113124482D01*
X89410498Y-113244180D01*
X89469463Y-113354494D01*
X89548815Y-113451185D01*
X89645506Y-113530537D01*
X89755820Y-113589502D01*
X89875518Y-113625812D01*
X90000000Y-113638072D01*
X92500000Y-113638072D01*
X92624482Y-113625812D01*
X92744180Y-113589502D01*
X92854494Y-113530537D01*
X92951185Y-113451185D01*
X93030537Y-113354494D01*
X93089502Y-113244180D01*
X93125812Y-113124482D01*
X93138072Y-113000000D01*
X93361928Y-113000000D01*
X93374188Y-113124482D01*
X93410498Y-113244180D01*
X93469463Y-113354494D01*
X93548815Y-113451185D01*
X93645506Y-113530537D01*
X93755820Y-113589502D01*
X93875518Y-113625812D01*
X94000000Y-113638072D01*
X94964250Y-113635000D01*
X95123000Y-113476250D01*
X95123000Y-111877000D01*
X93523750Y-111877000D01*
X93365000Y-112035750D01*
X93361928Y-113000000D01*
X93138072Y-113000000D01*
X93138072Y-110500000D01*
X93125812Y-110375518D01*
X93089502Y-110255820D01*
X93030537Y-110145506D01*
X92951185Y-110048815D01*
X92854494Y-109969463D01*
X92744180Y-109910498D01*
X92734792Y-109907650D01*
X93766440Y-109907277D01*
X93755820Y-109910498D01*
X93645506Y-109969463D01*
X93548815Y-110048815D01*
X93469463Y-110145506D01*
X93410498Y-110255820D01*
X93374188Y-110375518D01*
X93361928Y-110500000D01*
X93365000Y-111464250D01*
X93523750Y-111623000D01*
X95123000Y-111623000D01*
X95123000Y-111603000D01*
X95377000Y-111603000D01*
X95377000Y-111623000D01*
X95397000Y-111623000D01*
X95397000Y-111877000D01*
X95377000Y-111877000D01*
X95377000Y-113476250D01*
X95481136Y-113580386D01*
X93490283Y-115571239D01*
X93461285Y-115595037D01*
X93437487Y-115624035D01*
X93437486Y-115624036D01*
X93366311Y-115710762D01*
X93327422Y-115783518D01*
X93295739Y-115842791D01*
X93252298Y-115985999D01*
X93197348Y-116040949D01*
X93084080Y-116210467D01*
X93006059Y-116398825D01*
X92966285Y-116598784D01*
X92966285Y-116802662D01*
X93006059Y-117002621D01*
X93084080Y-117190979D01*
X93197348Y-117360497D01*
X93341511Y-117504660D01*
X93511029Y-117617928D01*
X93699387Y-117695949D01*
X93899346Y-117735723D01*
X94103224Y-117735723D01*
X94303183Y-117695949D01*
X94491541Y-117617928D01*
X94661059Y-117504660D01*
X94805222Y-117360497D01*
X94918490Y-117190979D01*
X94996511Y-117002621D01*
X95036285Y-116802662D01*
X95036285Y-116598784D01*
X94996511Y-116398825D01*
X94942556Y-116268568D01*
X97761004Y-113450121D01*
X97790001Y-113426324D01*
X97884974Y-113310599D01*
X97955546Y-113178570D01*
X97999003Y-113035309D01*
X98010000Y-112923656D01*
X98010000Y-112923646D01*
X98013676Y-112886323D01*
X98010000Y-112849000D01*
X98010000Y-111953711D01*
X98053937Y-111909774D01*
X98167205Y-111740256D01*
X98245226Y-111551898D01*
X98285000Y-111351939D01*
X98285000Y-111148061D01*
X98245226Y-110948102D01*
X98167205Y-110759744D01*
X98053937Y-110590226D01*
X97909774Y-110446063D01*
X97740256Y-110332795D01*
X97551898Y-110254774D01*
X97351939Y-110215000D01*
X97148061Y-110215000D01*
X97075408Y-110229452D01*
X97030537Y-110145506D01*
X96951185Y-110048815D01*
X96854494Y-109969463D01*
X96744180Y-109910498D01*
X96730021Y-109906203D01*
X112717839Y-109900411D01*
X113254317Y-109953014D01*
G37*
%TD.AperFunction*%
%TD*%
M02*
