%TF.GenerationSoftware,KiCad,Pcbnew,5.1.12-84ad8e8a86~92~ubuntu20.04.1*%
%TF.CreationDate,2023-02-19T01:27:16+01:00*%
%TF.ProjectId,tp5000_lifepo4_charger,74703530-3030-45f6-9c69-6665706f345f,rev?*%
%TF.SameCoordinates,Original*%
%TF.FileFunction,Legend,Bot*%
%TF.FilePolarity,Positive*%
%FSLAX46Y46*%
G04 Gerber Fmt 4.6, Leading zero omitted, Abs format (unit mm)*
G04 Created by KiCad (PCBNEW 5.1.12-84ad8e8a86~92~ubuntu20.04.1) date 2023-02-19 01:27:16*
%MOMM*%
%LPD*%
G01*
G04 APERTURE LIST*
%ADD10C,0.150000*%
G04 APERTURE END LIST*
D10*
X110392857Y-114329761D02*
X109250000Y-114329761D01*
X109821428Y-116329761D02*
X109821428Y-114329761D01*
X108583333Y-116329761D02*
X108583333Y-114329761D01*
X107821428Y-114329761D01*
X107630952Y-114425000D01*
X107535714Y-114520238D01*
X107440476Y-114710714D01*
X107440476Y-114996428D01*
X107535714Y-115186904D01*
X107630952Y-115282142D01*
X107821428Y-115377380D01*
X108583333Y-115377380D01*
X105630952Y-114329761D02*
X106583333Y-114329761D01*
X106678571Y-115282142D01*
X106583333Y-115186904D01*
X106392857Y-115091666D01*
X105916666Y-115091666D01*
X105726190Y-115186904D01*
X105630952Y-115282142D01*
X105535714Y-115472619D01*
X105535714Y-115948809D01*
X105630952Y-116139285D01*
X105726190Y-116234523D01*
X105916666Y-116329761D01*
X106392857Y-116329761D01*
X106583333Y-116234523D01*
X106678571Y-116139285D01*
X104297619Y-114329761D02*
X104107142Y-114329761D01*
X103916666Y-114425000D01*
X103821428Y-114520238D01*
X103726190Y-114710714D01*
X103630952Y-115091666D01*
X103630952Y-115567857D01*
X103726190Y-115948809D01*
X103821428Y-116139285D01*
X103916666Y-116234523D01*
X104107142Y-116329761D01*
X104297619Y-116329761D01*
X104488095Y-116234523D01*
X104583333Y-116139285D01*
X104678571Y-115948809D01*
X104773809Y-115567857D01*
X104773809Y-115091666D01*
X104678571Y-114710714D01*
X104583333Y-114520238D01*
X104488095Y-114425000D01*
X104297619Y-114329761D01*
X102392857Y-114329761D02*
X102202380Y-114329761D01*
X102011904Y-114425000D01*
X101916666Y-114520238D01*
X101821428Y-114710714D01*
X101726190Y-115091666D01*
X101726190Y-115567857D01*
X101821428Y-115948809D01*
X101916666Y-116139285D01*
X102011904Y-116234523D01*
X102202380Y-116329761D01*
X102392857Y-116329761D01*
X102583333Y-116234523D01*
X102678571Y-116139285D01*
X102773809Y-115948809D01*
X102869047Y-115567857D01*
X102869047Y-115091666D01*
X102773809Y-114710714D01*
X102678571Y-114520238D01*
X102583333Y-114425000D01*
X102392857Y-114329761D01*
X100488095Y-114329761D02*
X100297619Y-114329761D01*
X100107142Y-114425000D01*
X100011904Y-114520238D01*
X99916666Y-114710714D01*
X99821428Y-115091666D01*
X99821428Y-115567857D01*
X99916666Y-115948809D01*
X100011904Y-116139285D01*
X100107142Y-116234523D01*
X100297619Y-116329761D01*
X100488095Y-116329761D01*
X100678571Y-116234523D01*
X100773809Y-116139285D01*
X100869047Y-115948809D01*
X100964285Y-115567857D01*
X100964285Y-115091666D01*
X100869047Y-114710714D01*
X100773809Y-114520238D01*
X100678571Y-114425000D01*
X100488095Y-114329761D01*
X115250000Y-119479761D02*
X116202380Y-119479761D01*
X116202380Y-117479761D01*
X114583333Y-119479761D02*
X114583333Y-118146428D01*
X114583333Y-117479761D02*
X114678571Y-117575000D01*
X114583333Y-117670238D01*
X114488095Y-117575000D01*
X114583333Y-117479761D01*
X114583333Y-117670238D01*
X112964285Y-118432142D02*
X113630952Y-118432142D01*
X113630952Y-119479761D02*
X113630952Y-117479761D01*
X112678571Y-117479761D01*
X111154761Y-119384523D02*
X111345238Y-119479761D01*
X111726190Y-119479761D01*
X111916666Y-119384523D01*
X112011904Y-119194047D01*
X112011904Y-118432142D01*
X111916666Y-118241666D01*
X111726190Y-118146428D01*
X111345238Y-118146428D01*
X111154761Y-118241666D01*
X111059523Y-118432142D01*
X111059523Y-118622619D01*
X112011904Y-118813095D01*
X110202380Y-119479761D02*
X110202380Y-117479761D01*
X109440476Y-117479761D01*
X109250000Y-117575000D01*
X109154761Y-117670238D01*
X109059523Y-117860714D01*
X109059523Y-118146428D01*
X109154761Y-118336904D01*
X109250000Y-118432142D01*
X109440476Y-118527380D01*
X110202380Y-118527380D01*
X107916666Y-119479761D02*
X108107142Y-119384523D01*
X108202380Y-119289285D01*
X108297619Y-119098809D01*
X108297619Y-118527380D01*
X108202380Y-118336904D01*
X108107142Y-118241666D01*
X107916666Y-118146428D01*
X107630952Y-118146428D01*
X107440476Y-118241666D01*
X107345238Y-118336904D01*
X107250000Y-118527380D01*
X107250000Y-119098809D01*
X107345238Y-119289285D01*
X107440476Y-119384523D01*
X107630952Y-119479761D01*
X107916666Y-119479761D01*
X105535714Y-118146428D02*
X105535714Y-119479761D01*
X106011904Y-117384523D02*
X106488095Y-118813095D01*
X105250000Y-118813095D01*
X101821428Y-119289285D02*
X101916666Y-119384523D01*
X102202380Y-119479761D01*
X102392857Y-119479761D01*
X102678571Y-119384523D01*
X102869047Y-119194047D01*
X102964285Y-119003571D01*
X103059523Y-118622619D01*
X103059523Y-118336904D01*
X102964285Y-117955952D01*
X102869047Y-117765476D01*
X102678571Y-117575000D01*
X102392857Y-117479761D01*
X102202380Y-117479761D01*
X101916666Y-117575000D01*
X101821428Y-117670238D01*
X100964285Y-119479761D02*
X100964285Y-117479761D01*
X100107142Y-119479761D02*
X100107142Y-118432142D01*
X100202380Y-118241666D01*
X100392857Y-118146428D01*
X100678571Y-118146428D01*
X100869047Y-118241666D01*
X100964285Y-118336904D01*
X98297619Y-119479761D02*
X98297619Y-118432142D01*
X98392857Y-118241666D01*
X98583333Y-118146428D01*
X98964285Y-118146428D01*
X99154761Y-118241666D01*
X98297619Y-119384523D02*
X98488095Y-119479761D01*
X98964285Y-119479761D01*
X99154761Y-119384523D01*
X99250000Y-119194047D01*
X99250000Y-119003571D01*
X99154761Y-118813095D01*
X98964285Y-118717857D01*
X98488095Y-118717857D01*
X98297619Y-118622619D01*
X97345238Y-119479761D02*
X97345238Y-118146428D01*
X97345238Y-118527380D02*
X97250000Y-118336904D01*
X97154761Y-118241666D01*
X96964285Y-118146428D01*
X96773809Y-118146428D01*
X95250000Y-118146428D02*
X95250000Y-119765476D01*
X95345238Y-119955952D01*
X95440476Y-120051190D01*
X95630952Y-120146428D01*
X95916666Y-120146428D01*
X96107142Y-120051190D01*
X95250000Y-119384523D02*
X95440476Y-119479761D01*
X95821428Y-119479761D01*
X96011904Y-119384523D01*
X96107142Y-119289285D01*
X96202380Y-119098809D01*
X96202380Y-118527380D01*
X96107142Y-118336904D01*
X96011904Y-118241666D01*
X95821428Y-118146428D01*
X95440476Y-118146428D01*
X95250000Y-118241666D01*
X93535714Y-119384523D02*
X93726190Y-119479761D01*
X94107142Y-119479761D01*
X94297619Y-119384523D01*
X94392857Y-119194047D01*
X94392857Y-118432142D01*
X94297619Y-118241666D01*
X94107142Y-118146428D01*
X93726190Y-118146428D01*
X93535714Y-118241666D01*
X93440476Y-118432142D01*
X93440476Y-118622619D01*
X94392857Y-118813095D01*
X92583333Y-119479761D02*
X92583333Y-118146428D01*
X92583333Y-118527380D02*
X92488095Y-118336904D01*
X92392857Y-118241666D01*
X92202380Y-118146428D01*
X92011904Y-118146428D01*
X111464285Y-120578571D02*
X110535714Y-120578571D01*
X111035714Y-121150000D01*
X110821428Y-121150000D01*
X110678571Y-121221428D01*
X110607142Y-121292857D01*
X110535714Y-121435714D01*
X110535714Y-121792857D01*
X110607142Y-121935714D01*
X110678571Y-122007142D01*
X110821428Y-122078571D01*
X111250000Y-122078571D01*
X111392857Y-122007142D01*
X111464285Y-121935714D01*
X109892857Y-121935714D02*
X109821428Y-122007142D01*
X109892857Y-122078571D01*
X109964285Y-122007142D01*
X109892857Y-121935714D01*
X109892857Y-122078571D01*
X108892857Y-120578571D02*
X108750000Y-120578571D01*
X108607142Y-120650000D01*
X108535714Y-120721428D01*
X108464285Y-120864285D01*
X108392857Y-121150000D01*
X108392857Y-121507142D01*
X108464285Y-121792857D01*
X108535714Y-121935714D01*
X108607142Y-122007142D01*
X108750000Y-122078571D01*
X108892857Y-122078571D01*
X109035714Y-122007142D01*
X109107142Y-121935714D01*
X109178571Y-121792857D01*
X109250000Y-121507142D01*
X109250000Y-121150000D01*
X109178571Y-120864285D01*
X109107142Y-120721428D01*
X109035714Y-120650000D01*
X108892857Y-120578571D01*
X107964285Y-120578571D02*
X107464285Y-122078571D01*
X106964285Y-120578571D01*
X105321428Y-121507142D02*
X104178571Y-121507142D01*
X102464285Y-120578571D02*
X101535714Y-120578571D01*
X102035714Y-121150000D01*
X101821428Y-121150000D01*
X101678571Y-121221428D01*
X101607142Y-121292857D01*
X101535714Y-121435714D01*
X101535714Y-121792857D01*
X101607142Y-121935714D01*
X101678571Y-122007142D01*
X101821428Y-122078571D01*
X102250000Y-122078571D01*
X102392857Y-122007142D01*
X102464285Y-121935714D01*
X100892857Y-121935714D02*
X100821428Y-122007142D01*
X100892857Y-122078571D01*
X100964285Y-122007142D01*
X100892857Y-121935714D01*
X100892857Y-122078571D01*
X99535714Y-120578571D02*
X99821428Y-120578571D01*
X99964285Y-120650000D01*
X100035714Y-120721428D01*
X100178571Y-120935714D01*
X100250000Y-121221428D01*
X100250000Y-121792857D01*
X100178571Y-121935714D01*
X100107142Y-122007142D01*
X99964285Y-122078571D01*
X99678571Y-122078571D01*
X99535714Y-122007142D01*
X99464285Y-121935714D01*
X99392857Y-121792857D01*
X99392857Y-121435714D01*
X99464285Y-121292857D01*
X99535714Y-121221428D01*
X99678571Y-121150000D01*
X99964285Y-121150000D01*
X100107142Y-121221428D01*
X100178571Y-121292857D01*
X100250000Y-121435714D01*
X98964285Y-120578571D02*
X98464285Y-122078571D01*
X97964285Y-120578571D01*
X110928571Y-124478571D02*
X111428571Y-123764285D01*
X111785714Y-124478571D02*
X111785714Y-122978571D01*
X111214285Y-122978571D01*
X111071428Y-123050000D01*
X111000000Y-123121428D01*
X110928571Y-123264285D01*
X110928571Y-123478571D01*
X111000000Y-123621428D01*
X111071428Y-123692857D01*
X111214285Y-123764285D01*
X111785714Y-123764285D01*
X109500000Y-124478571D02*
X110357142Y-124478571D01*
X109928571Y-124478571D02*
X109928571Y-122978571D01*
X110071428Y-123192857D01*
X110214285Y-123335714D01*
X110357142Y-123407142D01*
X106928571Y-124478571D02*
X107785714Y-124478571D01*
X107357142Y-124478571D02*
X107357142Y-122978571D01*
X107500000Y-123192857D01*
X107642857Y-123335714D01*
X107785714Y-123407142D01*
X106357142Y-124478571D02*
X106000000Y-124478571D01*
X106000000Y-124192857D01*
X106142857Y-124121428D01*
X106285714Y-123978571D01*
X106357142Y-123764285D01*
X106357142Y-123407142D01*
X106285714Y-123192857D01*
X106142857Y-123050000D01*
X105928571Y-122978571D01*
X105642857Y-122978571D01*
X105428571Y-123050000D01*
X105285714Y-123192857D01*
X105214285Y-123407142D01*
X105214285Y-123764285D01*
X105285714Y-123978571D01*
X105428571Y-124121428D01*
X105571428Y-124192857D01*
X105571428Y-124478571D01*
X105214285Y-124478571D01*
X103785714Y-124478571D02*
X104642857Y-124478571D01*
X104214285Y-124478571D02*
X104214285Y-122978571D01*
X104357142Y-123192857D01*
X104500000Y-123335714D01*
X104642857Y-123407142D01*
X102857142Y-122978571D02*
X102714285Y-122978571D01*
X102571428Y-123050000D01*
X102500000Y-123121428D01*
X102428571Y-123264285D01*
X102357142Y-123550000D01*
X102357142Y-123907142D01*
X102428571Y-124192857D01*
X102500000Y-124335714D01*
X102571428Y-124407142D01*
X102714285Y-124478571D01*
X102857142Y-124478571D01*
X103000000Y-124407142D01*
X103071428Y-124335714D01*
X103142857Y-124192857D01*
X103214285Y-123907142D01*
X103214285Y-123550000D01*
X103142857Y-123264285D01*
X103071428Y-123121428D01*
X103000000Y-123050000D01*
X102857142Y-122978571D01*
X101428571Y-122978571D02*
X101285714Y-122978571D01*
X101142857Y-123050000D01*
X101071428Y-123121428D01*
X101000000Y-123264285D01*
X100928571Y-123550000D01*
X100928571Y-123907142D01*
X101000000Y-124192857D01*
X101071428Y-124335714D01*
X101142857Y-124407142D01*
X101285714Y-124478571D01*
X101428571Y-124478571D01*
X101571428Y-124407142D01*
X101642857Y-124335714D01*
X101714285Y-124192857D01*
X101785714Y-123907142D01*
X101785714Y-123550000D01*
X101714285Y-123264285D01*
X101642857Y-123121428D01*
X101571428Y-123050000D01*
X101428571Y-122978571D01*
X100285714Y-124478571D02*
X100285714Y-123478571D01*
X100285714Y-123621428D02*
X100214285Y-123550000D01*
X100071428Y-123478571D01*
X99857142Y-123478571D01*
X99714285Y-123550000D01*
X99642857Y-123692857D01*
X99642857Y-124478571D01*
X99642857Y-123692857D02*
X99571428Y-123550000D01*
X99428571Y-123478571D01*
X99214285Y-123478571D01*
X99071428Y-123550000D01*
X99000000Y-123692857D01*
X99000000Y-124478571D01*
X98357142Y-124050000D02*
X97642857Y-124050000D01*
X98500000Y-124478571D02*
X98000000Y-122978571D01*
X97500000Y-124478571D01*
X110535714Y-125378571D02*
X110392857Y-125378571D01*
X110250000Y-125450000D01*
X110178571Y-125521428D01*
X110107142Y-125664285D01*
X110035714Y-125950000D01*
X110035714Y-126307142D01*
X110107142Y-126592857D01*
X110178571Y-126735714D01*
X110250000Y-126807142D01*
X110392857Y-126878571D01*
X110535714Y-126878571D01*
X110678571Y-126807142D01*
X110750000Y-126735714D01*
X110821428Y-126592857D01*
X110892857Y-126307142D01*
X110892857Y-125950000D01*
X110821428Y-125664285D01*
X110750000Y-125521428D01*
X110678571Y-125450000D01*
X110535714Y-125378571D01*
X109392857Y-126735714D02*
X109321428Y-126807142D01*
X109392857Y-126878571D01*
X109464285Y-126807142D01*
X109392857Y-126735714D01*
X109392857Y-126878571D01*
X108750000Y-125521428D02*
X108678571Y-125450000D01*
X108535714Y-125378571D01*
X108178571Y-125378571D01*
X108035714Y-125450000D01*
X107964285Y-125521428D01*
X107892857Y-125664285D01*
X107892857Y-125807142D01*
X107964285Y-126021428D01*
X108821428Y-126878571D01*
X107892857Y-126878571D01*
X107321428Y-126878571D02*
X106964285Y-126878571D01*
X106964285Y-126592857D01*
X107107142Y-126521428D01*
X107250000Y-126378571D01*
X107321428Y-126164285D01*
X107321428Y-125807142D01*
X107250000Y-125592857D01*
X107107142Y-125450000D01*
X106892857Y-125378571D01*
X106607142Y-125378571D01*
X106392857Y-125450000D01*
X106250000Y-125592857D01*
X106178571Y-125807142D01*
X106178571Y-126164285D01*
X106250000Y-126378571D01*
X106392857Y-126521428D01*
X106535714Y-126592857D01*
X106535714Y-126878571D01*
X106178571Y-126878571D01*
X104821428Y-125378571D02*
X105535714Y-125378571D01*
X105607142Y-126092857D01*
X105535714Y-126021428D01*
X105392857Y-125950000D01*
X105035714Y-125950000D01*
X104892857Y-126021428D01*
X104821428Y-126092857D01*
X104750000Y-126235714D01*
X104750000Y-126592857D01*
X104821428Y-126735714D01*
X104892857Y-126807142D01*
X105035714Y-126878571D01*
X105392857Y-126878571D01*
X105535714Y-126807142D01*
X105607142Y-126735714D01*
X103821428Y-125378571D02*
X103678571Y-125378571D01*
X103535714Y-125450000D01*
X103464285Y-125521428D01*
X103392857Y-125664285D01*
X103321428Y-125950000D01*
X103321428Y-126307142D01*
X103392857Y-126592857D01*
X103464285Y-126735714D01*
X103535714Y-126807142D01*
X103678571Y-126878571D01*
X103821428Y-126878571D01*
X103964285Y-126807142D01*
X104035714Y-126735714D01*
X104107142Y-126592857D01*
X104178571Y-126307142D01*
X104178571Y-125950000D01*
X104107142Y-125664285D01*
X104035714Y-125521428D01*
X103964285Y-125450000D01*
X103821428Y-125378571D01*
X102392857Y-125378571D02*
X102250000Y-125378571D01*
X102107142Y-125450000D01*
X102035714Y-125521428D01*
X101964285Y-125664285D01*
X101892857Y-125950000D01*
X101892857Y-126307142D01*
X101964285Y-126592857D01*
X102035714Y-126735714D01*
X102107142Y-126807142D01*
X102250000Y-126878571D01*
X102392857Y-126878571D01*
X102535714Y-126807142D01*
X102607142Y-126735714D01*
X102678571Y-126592857D01*
X102750000Y-126307142D01*
X102750000Y-125950000D01*
X102678571Y-125664285D01*
X102607142Y-125521428D01*
X102535714Y-125450000D01*
X102392857Y-125378571D01*
X101250000Y-126878571D02*
X101250000Y-125878571D01*
X101250000Y-126021428D02*
X101178571Y-125950000D01*
X101035714Y-125878571D01*
X100821428Y-125878571D01*
X100678571Y-125950000D01*
X100607142Y-126092857D01*
X100607142Y-126878571D01*
X100607142Y-126092857D02*
X100535714Y-125950000D01*
X100392857Y-125878571D01*
X100178571Y-125878571D01*
X100035714Y-125950000D01*
X99964285Y-126092857D01*
X99964285Y-126878571D01*
X99321428Y-126450000D02*
X98607142Y-126450000D01*
X99464285Y-126878571D02*
X98964285Y-125378571D01*
X98464285Y-126878571D01*
X111250000Y-127778571D02*
X111107142Y-127778571D01*
X110964285Y-127850000D01*
X110892857Y-127921428D01*
X110821428Y-128064285D01*
X110750000Y-128350000D01*
X110750000Y-128707142D01*
X110821428Y-128992857D01*
X110892857Y-129135714D01*
X110964285Y-129207142D01*
X111107142Y-129278571D01*
X111250000Y-129278571D01*
X111392857Y-129207142D01*
X111464285Y-129135714D01*
X111535714Y-128992857D01*
X111607142Y-128707142D01*
X111607142Y-128350000D01*
X111535714Y-128064285D01*
X111464285Y-127921428D01*
X111392857Y-127850000D01*
X111250000Y-127778571D01*
X110107142Y-129135714D02*
X110035714Y-129207142D01*
X110107142Y-129278571D01*
X110178571Y-129207142D01*
X110107142Y-129135714D01*
X110107142Y-129278571D01*
X108607142Y-129278571D02*
X109464285Y-129278571D01*
X109035714Y-129278571D02*
X109035714Y-127778571D01*
X109178571Y-127992857D01*
X109321428Y-128135714D01*
X109464285Y-128207142D01*
X108035714Y-129278571D02*
X107678571Y-129278571D01*
X107678571Y-128992857D01*
X107821428Y-128921428D01*
X107964285Y-128778571D01*
X108035714Y-128564285D01*
X108035714Y-128207142D01*
X107964285Y-127992857D01*
X107821428Y-127850000D01*
X107607142Y-127778571D01*
X107321428Y-127778571D01*
X107107142Y-127850000D01*
X106964285Y-127992857D01*
X106892857Y-128207142D01*
X106892857Y-128564285D01*
X106964285Y-128778571D01*
X107107142Y-128921428D01*
X107250000Y-128992857D01*
X107250000Y-129278571D01*
X106892857Y-129278571D01*
X105464285Y-129278571D02*
X106321428Y-129278571D01*
X105892857Y-129278571D02*
X105892857Y-127778571D01*
X106035714Y-127992857D01*
X106178571Y-128135714D01*
X106321428Y-128207142D01*
X104535714Y-127778571D02*
X104392857Y-127778571D01*
X104250000Y-127850000D01*
X104178571Y-127921428D01*
X104107142Y-128064285D01*
X104035714Y-128350000D01*
X104035714Y-128707142D01*
X104107142Y-128992857D01*
X104178571Y-129135714D01*
X104250000Y-129207142D01*
X104392857Y-129278571D01*
X104535714Y-129278571D01*
X104678571Y-129207142D01*
X104750000Y-129135714D01*
X104821428Y-128992857D01*
X104892857Y-128707142D01*
X104892857Y-128350000D01*
X104821428Y-128064285D01*
X104750000Y-127921428D01*
X104678571Y-127850000D01*
X104535714Y-127778571D01*
X103107142Y-127778571D02*
X102964285Y-127778571D01*
X102821428Y-127850000D01*
X102750000Y-127921428D01*
X102678571Y-128064285D01*
X102607142Y-128350000D01*
X102607142Y-128707142D01*
X102678571Y-128992857D01*
X102750000Y-129135714D01*
X102821428Y-129207142D01*
X102964285Y-129278571D01*
X103107142Y-129278571D01*
X103250000Y-129207142D01*
X103321428Y-129135714D01*
X103392857Y-128992857D01*
X103464285Y-128707142D01*
X103464285Y-128350000D01*
X103392857Y-128064285D01*
X103321428Y-127921428D01*
X103250000Y-127850000D01*
X103107142Y-127778571D01*
X101678571Y-127778571D02*
X101535714Y-127778571D01*
X101392857Y-127850000D01*
X101321428Y-127921428D01*
X101250000Y-128064285D01*
X101178571Y-128350000D01*
X101178571Y-128707142D01*
X101250000Y-128992857D01*
X101321428Y-129135714D01*
X101392857Y-129207142D01*
X101535714Y-129278571D01*
X101678571Y-129278571D01*
X101821428Y-129207142D01*
X101892857Y-129135714D01*
X101964285Y-128992857D01*
X102035714Y-128707142D01*
X102035714Y-128350000D01*
X101964285Y-128064285D01*
X101892857Y-127921428D01*
X101821428Y-127850000D01*
X101678571Y-127778571D01*
X100535714Y-129278571D02*
X100535714Y-128278571D01*
X100535714Y-128421428D02*
X100464285Y-128350000D01*
X100321428Y-128278571D01*
X100107142Y-128278571D01*
X99964285Y-128350000D01*
X99892857Y-128492857D01*
X99892857Y-129278571D01*
X99892857Y-128492857D02*
X99821428Y-128350000D01*
X99678571Y-128278571D01*
X99464285Y-128278571D01*
X99321428Y-128350000D01*
X99250000Y-128492857D01*
X99250000Y-129278571D01*
X98607142Y-128850000D02*
X97892857Y-128850000D01*
X98750000Y-129278571D02*
X98250000Y-127778571D01*
X97750000Y-129278571D01*
M02*
