%TF.GenerationSoftware,KiCad,Pcbnew,5.1.12-84ad8e8a86~92~ubuntu20.04.1*%
%TF.CreationDate,2023-07-09T19:05:36+02:00*%
%TF.ProjectId,tp5000_charger,74703530-3030-45f6-9368-61726765722e,rev?*%
%TF.SameCoordinates,Original*%
%TF.FileFunction,Legend,Bot*%
%TF.FilePolarity,Positive*%
%FSLAX46Y46*%
G04 Gerber Fmt 4.6, Leading zero omitted, Abs format (unit mm)*
G04 Created by KiCad (PCBNEW 5.1.12-84ad8e8a86~92~ubuntu20.04.1) date 2023-07-09 19:05:36*
%MOMM*%
%LPD*%
G01*
G04 APERTURE LIST*
%ADD10C,0.150000*%
G04 APERTURE END LIST*
D10*
X102278571Y-116142857D02*
X102278571Y-117000000D01*
X103778571Y-116571428D02*
X102278571Y-116571428D01*
X103778571Y-117500000D02*
X102278571Y-117500000D01*
X102278571Y-118071428D01*
X102350000Y-118214285D01*
X102421428Y-118285714D01*
X102564285Y-118357142D01*
X102778571Y-118357142D01*
X102921428Y-118285714D01*
X102992857Y-118214285D01*
X103064285Y-118071428D01*
X103064285Y-117500000D01*
X102278571Y-119714285D02*
X102278571Y-119000000D01*
X102992857Y-118928571D01*
X102921428Y-119000000D01*
X102850000Y-119142857D01*
X102850000Y-119500000D01*
X102921428Y-119642857D01*
X102992857Y-119714285D01*
X103135714Y-119785714D01*
X103492857Y-119785714D01*
X103635714Y-119714285D01*
X103707142Y-119642857D01*
X103778571Y-119500000D01*
X103778571Y-119142857D01*
X103707142Y-119000000D01*
X103635714Y-118928571D01*
X102278571Y-120714285D02*
X102278571Y-120857142D01*
X102350000Y-121000000D01*
X102421428Y-121071428D01*
X102564285Y-121142857D01*
X102850000Y-121214285D01*
X103207142Y-121214285D01*
X103492857Y-121142857D01*
X103635714Y-121071428D01*
X103707142Y-121000000D01*
X103778571Y-120857142D01*
X103778571Y-120714285D01*
X103707142Y-120571428D01*
X103635714Y-120500000D01*
X103492857Y-120428571D01*
X103207142Y-120357142D01*
X102850000Y-120357142D01*
X102564285Y-120428571D01*
X102421428Y-120500000D01*
X102350000Y-120571428D01*
X102278571Y-120714285D01*
X102278571Y-122142857D02*
X102278571Y-122285714D01*
X102350000Y-122428571D01*
X102421428Y-122500000D01*
X102564285Y-122571428D01*
X102850000Y-122642857D01*
X103207142Y-122642857D01*
X103492857Y-122571428D01*
X103635714Y-122500000D01*
X103707142Y-122428571D01*
X103778571Y-122285714D01*
X103778571Y-122142857D01*
X103707142Y-122000000D01*
X103635714Y-121928571D01*
X103492857Y-121857142D01*
X103207142Y-121785714D01*
X102850000Y-121785714D01*
X102564285Y-121857142D01*
X102421428Y-121928571D01*
X102350000Y-122000000D01*
X102278571Y-122142857D01*
X102278571Y-123571428D02*
X102278571Y-123714285D01*
X102350000Y-123857142D01*
X102421428Y-123928571D01*
X102564285Y-124000000D01*
X102850000Y-124071428D01*
X103207142Y-124071428D01*
X103492857Y-124000000D01*
X103635714Y-123928571D01*
X103707142Y-123857142D01*
X103778571Y-123714285D01*
X103778571Y-123571428D01*
X103707142Y-123428571D01*
X103635714Y-123357142D01*
X103492857Y-123285714D01*
X103207142Y-123214285D01*
X102850000Y-123214285D01*
X102564285Y-123285714D01*
X102421428Y-123357142D01*
X102350000Y-123428571D01*
X102278571Y-123571428D01*
X106178571Y-112214285D02*
X106178571Y-111500000D01*
X104678571Y-111500000D01*
X106178571Y-112714285D02*
X105178571Y-112714285D01*
X104678571Y-112714285D02*
X104750000Y-112642857D01*
X104821428Y-112714285D01*
X104750000Y-112785714D01*
X104678571Y-112714285D01*
X104821428Y-112714285D01*
X105178571Y-113214285D02*
X105178571Y-113785714D01*
X104678571Y-113428571D02*
X105964285Y-113428571D01*
X106107142Y-113500000D01*
X106178571Y-113642857D01*
X106178571Y-113785714D01*
X106178571Y-114285714D02*
X104678571Y-114285714D01*
X106178571Y-114928571D02*
X105392857Y-114928571D01*
X105250000Y-114857142D01*
X105178571Y-114714285D01*
X105178571Y-114500000D01*
X105250000Y-114357142D01*
X105321428Y-114285714D01*
X106178571Y-115642857D02*
X105178571Y-115642857D01*
X104678571Y-115642857D02*
X104750000Y-115571428D01*
X104821428Y-115642857D01*
X104750000Y-115714285D01*
X104678571Y-115642857D01*
X104821428Y-115642857D01*
X105178571Y-117000000D02*
X106178571Y-117000000D01*
X105178571Y-116357142D02*
X105964285Y-116357142D01*
X106107142Y-116428571D01*
X106178571Y-116571428D01*
X106178571Y-116785714D01*
X106107142Y-116928571D01*
X106035714Y-117000000D01*
X106178571Y-117714285D02*
X105178571Y-117714285D01*
X105321428Y-117714285D02*
X105250000Y-117785714D01*
X105178571Y-117928571D01*
X105178571Y-118142857D01*
X105250000Y-118285714D01*
X105392857Y-118357142D01*
X106178571Y-118357142D01*
X105392857Y-118357142D02*
X105250000Y-118428571D01*
X105178571Y-118571428D01*
X105178571Y-118785714D01*
X105250000Y-118928571D01*
X105392857Y-119000000D01*
X106178571Y-119000000D01*
X106035714Y-121714285D02*
X106107142Y-121642857D01*
X106178571Y-121428571D01*
X106178571Y-121285714D01*
X106107142Y-121071428D01*
X105964285Y-120928571D01*
X105821428Y-120857142D01*
X105535714Y-120785714D01*
X105321428Y-120785714D01*
X105035714Y-120857142D01*
X104892857Y-120928571D01*
X104750000Y-121071428D01*
X104678571Y-121285714D01*
X104678571Y-121428571D01*
X104750000Y-121642857D01*
X104821428Y-121714285D01*
X106178571Y-122357142D02*
X104678571Y-122357142D01*
X106178571Y-123000000D02*
X105392857Y-123000000D01*
X105250000Y-122928571D01*
X105178571Y-122785714D01*
X105178571Y-122571428D01*
X105250000Y-122428571D01*
X105321428Y-122357142D01*
X106178571Y-124357142D02*
X105392857Y-124357142D01*
X105250000Y-124285714D01*
X105178571Y-124142857D01*
X105178571Y-123857142D01*
X105250000Y-123714285D01*
X106107142Y-124357142D02*
X106178571Y-124214285D01*
X106178571Y-123857142D01*
X106107142Y-123714285D01*
X105964285Y-123642857D01*
X105821428Y-123642857D01*
X105678571Y-123714285D01*
X105607142Y-123857142D01*
X105607142Y-124214285D01*
X105535714Y-124357142D01*
X106178571Y-125071428D02*
X105178571Y-125071428D01*
X105464285Y-125071428D02*
X105321428Y-125142857D01*
X105250000Y-125214285D01*
X105178571Y-125357142D01*
X105178571Y-125500000D01*
X105178571Y-126642857D02*
X106392857Y-126642857D01*
X106535714Y-126571428D01*
X106607142Y-126500000D01*
X106678571Y-126357142D01*
X106678571Y-126142857D01*
X106607142Y-126000000D01*
X106107142Y-126642857D02*
X106178571Y-126500000D01*
X106178571Y-126214285D01*
X106107142Y-126071428D01*
X106035714Y-126000000D01*
X105892857Y-125928571D01*
X105464285Y-125928571D01*
X105321428Y-126000000D01*
X105250000Y-126071428D01*
X105178571Y-126214285D01*
X105178571Y-126500000D01*
X105250000Y-126642857D01*
X106107142Y-127928571D02*
X106178571Y-127785714D01*
X106178571Y-127500000D01*
X106107142Y-127357142D01*
X105964285Y-127285714D01*
X105392857Y-127285714D01*
X105250000Y-127357142D01*
X105178571Y-127500000D01*
X105178571Y-127785714D01*
X105250000Y-127928571D01*
X105392857Y-128000000D01*
X105535714Y-128000000D01*
X105678571Y-127285714D01*
X106178571Y-128642857D02*
X105178571Y-128642857D01*
X105464285Y-128642857D02*
X105321428Y-128714285D01*
X105250000Y-128785714D01*
X105178571Y-128928571D01*
X105178571Y-129071428D01*
X107078571Y-118464285D02*
X108578571Y-118964285D01*
X107078571Y-119464285D01*
X108578571Y-120750000D02*
X108578571Y-119892857D01*
X108578571Y-120321428D02*
X107078571Y-120321428D01*
X107292857Y-120178571D01*
X107435714Y-120035714D01*
X107507142Y-119892857D01*
X108435714Y-121392857D02*
X108507142Y-121464285D01*
X108578571Y-121392857D01*
X108507142Y-121321428D01*
X108435714Y-121392857D01*
X108578571Y-121392857D01*
X107221428Y-122035714D02*
X107150000Y-122107142D01*
X107078571Y-122250000D01*
X107078571Y-122607142D01*
X107150000Y-122750000D01*
X107221428Y-122821428D01*
X107364285Y-122892857D01*
X107507142Y-122892857D01*
X107721428Y-122821428D01*
X108578571Y-121964285D01*
X108578571Y-122892857D01*
X99092976Y-124727380D02*
X99426309Y-124251190D01*
X99664404Y-124727380D02*
X99664404Y-123727380D01*
X99283452Y-123727380D01*
X99188214Y-123775000D01*
X99140595Y-123822619D01*
X99092976Y-123917857D01*
X99092976Y-124060714D01*
X99140595Y-124155952D01*
X99188214Y-124203571D01*
X99283452Y-124251190D01*
X99664404Y-124251190D01*
X98664404Y-124727380D02*
X98664404Y-124060714D01*
X98664404Y-123727380D02*
X98712023Y-123775000D01*
X98664404Y-123822619D01*
X98616785Y-123775000D01*
X98664404Y-123727380D01*
X98664404Y-123822619D01*
X98188214Y-124632142D02*
X98140595Y-124679761D01*
X98188214Y-124727380D01*
X98235833Y-124679761D01*
X98188214Y-124632142D01*
X98188214Y-124727380D01*
X98188214Y-124108333D02*
X98140595Y-124155952D01*
X98188214Y-124203571D01*
X98235833Y-124155952D01*
X98188214Y-124108333D01*
X98188214Y-124203571D01*
X99140595Y-126377380D02*
X99712023Y-126377380D01*
X99426309Y-126377380D02*
X99426309Y-125377380D01*
X99521547Y-125520238D01*
X99616785Y-125615476D01*
X99712023Y-125663095D01*
X98712023Y-125853571D02*
X97950119Y-125853571D01*
X97950119Y-126139285D02*
X98712023Y-126139285D01*
X96950119Y-126377380D02*
X97521547Y-126377380D01*
X97235833Y-126377380D02*
X97235833Y-125377380D01*
X97331071Y-125520238D01*
X97426309Y-125615476D01*
X97521547Y-125663095D01*
X96331071Y-125377380D02*
X96235833Y-125377380D01*
X96140595Y-125425000D01*
X96092976Y-125472619D01*
X96045357Y-125567857D01*
X95997738Y-125758333D01*
X95997738Y-125996428D01*
X96045357Y-126186904D01*
X96092976Y-126282142D01*
X96140595Y-126329761D01*
X96235833Y-126377380D01*
X96331071Y-126377380D01*
X96426309Y-126329761D01*
X96473928Y-126282142D01*
X96521547Y-126186904D01*
X96569166Y-125996428D01*
X96569166Y-125758333D01*
X96521547Y-125567857D01*
X96473928Y-125472619D01*
X96426309Y-125425000D01*
X96331071Y-125377380D01*
X95378690Y-125377380D02*
X95283452Y-125377380D01*
X95188214Y-125425000D01*
X95140595Y-125472619D01*
X95092976Y-125567857D01*
X95045357Y-125758333D01*
X95045357Y-125996428D01*
X95092976Y-126186904D01*
X95140595Y-126282142D01*
X95188214Y-126329761D01*
X95283452Y-126377380D01*
X95378690Y-126377380D01*
X95473928Y-126329761D01*
X95521547Y-126282142D01*
X95569166Y-126186904D01*
X95616785Y-125996428D01*
X95616785Y-125758333D01*
X95569166Y-125567857D01*
X95521547Y-125472619D01*
X95473928Y-125425000D01*
X95378690Y-125377380D01*
X94616785Y-126377380D02*
X94616785Y-125710714D01*
X94616785Y-125805952D02*
X94569166Y-125758333D01*
X94473928Y-125710714D01*
X94331071Y-125710714D01*
X94235833Y-125758333D01*
X94188214Y-125853571D01*
X94188214Y-126377380D01*
X94188214Y-125853571D02*
X94140595Y-125758333D01*
X94045357Y-125710714D01*
X93902500Y-125710714D01*
X93807261Y-125758333D01*
X93759642Y-125853571D01*
X93759642Y-126377380D01*
X93331071Y-126091666D02*
X92854880Y-126091666D01*
X93426309Y-126377380D02*
X93092976Y-125377380D01*
X92759642Y-126377380D01*
X99473928Y-127027380D02*
X99378690Y-127027380D01*
X99283452Y-127075000D01*
X99235833Y-127122619D01*
X99188214Y-127217857D01*
X99140595Y-127408333D01*
X99140595Y-127646428D01*
X99188214Y-127836904D01*
X99235833Y-127932142D01*
X99283452Y-127979761D01*
X99378690Y-128027380D01*
X99473928Y-128027380D01*
X99569166Y-127979761D01*
X99616785Y-127932142D01*
X99664404Y-127836904D01*
X99712023Y-127646428D01*
X99712023Y-127408333D01*
X99664404Y-127217857D01*
X99616785Y-127122619D01*
X99569166Y-127075000D01*
X99473928Y-127027380D01*
X98712023Y-127932142D02*
X98664404Y-127979761D01*
X98712023Y-128027380D01*
X98759642Y-127979761D01*
X98712023Y-127932142D01*
X98712023Y-128027380D01*
X98283452Y-127122619D02*
X98235833Y-127075000D01*
X98140595Y-127027380D01*
X97902500Y-127027380D01*
X97807261Y-127075000D01*
X97759642Y-127122619D01*
X97712023Y-127217857D01*
X97712023Y-127313095D01*
X97759642Y-127455952D01*
X98331071Y-128027380D01*
X97712023Y-128027380D01*
X97283452Y-127503571D02*
X96521547Y-127503571D01*
X96521547Y-127789285D02*
X97283452Y-127789285D01*
X95569166Y-127027380D02*
X96045357Y-127027380D01*
X96092976Y-127503571D01*
X96045357Y-127455952D01*
X95950119Y-127408333D01*
X95712023Y-127408333D01*
X95616785Y-127455952D01*
X95569166Y-127503571D01*
X95521547Y-127598809D01*
X95521547Y-127836904D01*
X95569166Y-127932142D01*
X95616785Y-127979761D01*
X95712023Y-128027380D01*
X95950119Y-128027380D01*
X96045357Y-127979761D01*
X96092976Y-127932142D01*
X94902500Y-127027380D02*
X94807261Y-127027380D01*
X94712023Y-127075000D01*
X94664404Y-127122619D01*
X94616785Y-127217857D01*
X94569166Y-127408333D01*
X94569166Y-127646428D01*
X94616785Y-127836904D01*
X94664404Y-127932142D01*
X94712023Y-127979761D01*
X94807261Y-128027380D01*
X94902500Y-128027380D01*
X94997738Y-127979761D01*
X95045357Y-127932142D01*
X95092976Y-127836904D01*
X95140595Y-127646428D01*
X95140595Y-127408333D01*
X95092976Y-127217857D01*
X95045357Y-127122619D01*
X94997738Y-127075000D01*
X94902500Y-127027380D01*
X93950119Y-127027380D02*
X93854880Y-127027380D01*
X93759642Y-127075000D01*
X93712023Y-127122619D01*
X93664404Y-127217857D01*
X93616785Y-127408333D01*
X93616785Y-127646428D01*
X93664404Y-127836904D01*
X93712023Y-127932142D01*
X93759642Y-127979761D01*
X93854880Y-128027380D01*
X93950119Y-128027380D01*
X94045357Y-127979761D01*
X94092976Y-127932142D01*
X94140595Y-127836904D01*
X94188214Y-127646428D01*
X94188214Y-127408333D01*
X94140595Y-127217857D01*
X94092976Y-127122619D01*
X94045357Y-127075000D01*
X93950119Y-127027380D01*
X93188214Y-128027380D02*
X93188214Y-127360714D01*
X93188214Y-127455952D02*
X93140595Y-127408333D01*
X93045357Y-127360714D01*
X92902500Y-127360714D01*
X92807261Y-127408333D01*
X92759642Y-127503571D01*
X92759642Y-128027380D01*
X92759642Y-127503571D02*
X92712023Y-127408333D01*
X92616785Y-127360714D01*
X92473928Y-127360714D01*
X92378690Y-127408333D01*
X92331071Y-127503571D01*
X92331071Y-128027380D01*
X91902500Y-127741666D02*
X91426309Y-127741666D01*
X91997738Y-128027380D02*
X91664404Y-127027380D01*
X91331071Y-128027380D01*
X99473928Y-128677380D02*
X99378690Y-128677380D01*
X99283452Y-128725000D01*
X99235833Y-128772619D01*
X99188214Y-128867857D01*
X99140595Y-129058333D01*
X99140595Y-129296428D01*
X99188214Y-129486904D01*
X99235833Y-129582142D01*
X99283452Y-129629761D01*
X99378690Y-129677380D01*
X99473928Y-129677380D01*
X99569166Y-129629761D01*
X99616785Y-129582142D01*
X99664404Y-129486904D01*
X99712023Y-129296428D01*
X99712023Y-129058333D01*
X99664404Y-128867857D01*
X99616785Y-128772619D01*
X99569166Y-128725000D01*
X99473928Y-128677380D01*
X98712023Y-129582142D02*
X98664404Y-129629761D01*
X98712023Y-129677380D01*
X98759642Y-129629761D01*
X98712023Y-129582142D01*
X98712023Y-129677380D01*
X97712023Y-129677380D02*
X98283452Y-129677380D01*
X97997738Y-129677380D02*
X97997738Y-128677380D01*
X98092976Y-128820238D01*
X98188214Y-128915476D01*
X98283452Y-128963095D01*
X97283452Y-129153571D02*
X96521547Y-129153571D01*
X96521547Y-129439285D02*
X97283452Y-129439285D01*
X95521547Y-129677380D02*
X96092976Y-129677380D01*
X95807261Y-129677380D02*
X95807261Y-128677380D01*
X95902500Y-128820238D01*
X95997738Y-128915476D01*
X96092976Y-128963095D01*
X94902500Y-128677380D02*
X94807261Y-128677380D01*
X94712023Y-128725000D01*
X94664404Y-128772619D01*
X94616785Y-128867857D01*
X94569166Y-129058333D01*
X94569166Y-129296428D01*
X94616785Y-129486904D01*
X94664404Y-129582142D01*
X94712023Y-129629761D01*
X94807261Y-129677380D01*
X94902500Y-129677380D01*
X94997738Y-129629761D01*
X95045357Y-129582142D01*
X95092976Y-129486904D01*
X95140595Y-129296428D01*
X95140595Y-129058333D01*
X95092976Y-128867857D01*
X95045357Y-128772619D01*
X94997738Y-128725000D01*
X94902500Y-128677380D01*
X93950119Y-128677380D02*
X93854880Y-128677380D01*
X93759642Y-128725000D01*
X93712023Y-128772619D01*
X93664404Y-128867857D01*
X93616785Y-129058333D01*
X93616785Y-129296428D01*
X93664404Y-129486904D01*
X93712023Y-129582142D01*
X93759642Y-129629761D01*
X93854880Y-129677380D01*
X93950119Y-129677380D01*
X94045357Y-129629761D01*
X94092976Y-129582142D01*
X94140595Y-129486904D01*
X94188214Y-129296428D01*
X94188214Y-129058333D01*
X94140595Y-128867857D01*
X94092976Y-128772619D01*
X94045357Y-128725000D01*
X93950119Y-128677380D01*
X92997738Y-128677380D02*
X92902500Y-128677380D01*
X92807261Y-128725000D01*
X92759642Y-128772619D01*
X92712023Y-128867857D01*
X92664404Y-129058333D01*
X92664404Y-129296428D01*
X92712023Y-129486904D01*
X92759642Y-129582142D01*
X92807261Y-129629761D01*
X92902500Y-129677380D01*
X92997738Y-129677380D01*
X93092976Y-129629761D01*
X93140595Y-129582142D01*
X93188214Y-129486904D01*
X93235833Y-129296428D01*
X93235833Y-129058333D01*
X93188214Y-128867857D01*
X93140595Y-128772619D01*
X93092976Y-128725000D01*
X92997738Y-128677380D01*
X92235833Y-129677380D02*
X92235833Y-129010714D01*
X92235833Y-129105952D02*
X92188214Y-129058333D01*
X92092976Y-129010714D01*
X91950119Y-129010714D01*
X91854880Y-129058333D01*
X91807261Y-129153571D01*
X91807261Y-129677380D01*
X91807261Y-129153571D02*
X91759642Y-129058333D01*
X91664404Y-129010714D01*
X91521547Y-129010714D01*
X91426309Y-129058333D01*
X91378690Y-129153571D01*
X91378690Y-129677380D01*
X90950119Y-129391666D02*
X90473928Y-129391666D01*
X91045357Y-129677380D02*
X90712023Y-128677380D01*
X90378690Y-129677380D01*
X99092976Y-119302380D02*
X99426309Y-118826190D01*
X99664404Y-119302380D02*
X99664404Y-118302380D01*
X99283452Y-118302380D01*
X99188214Y-118350000D01*
X99140595Y-118397619D01*
X99092976Y-118492857D01*
X99092976Y-118635714D01*
X99140595Y-118730952D01*
X99188214Y-118778571D01*
X99283452Y-118826190D01*
X99664404Y-118826190D01*
X98712023Y-119254761D02*
X98616785Y-119302380D01*
X98426309Y-119302380D01*
X98331071Y-119254761D01*
X98283452Y-119159523D01*
X98283452Y-119111904D01*
X98331071Y-119016666D01*
X98426309Y-118969047D01*
X98569166Y-118969047D01*
X98664404Y-118921428D01*
X98712023Y-118826190D01*
X98712023Y-118778571D01*
X98664404Y-118683333D01*
X98569166Y-118635714D01*
X98426309Y-118635714D01*
X98331071Y-118683333D01*
X97473928Y-119254761D02*
X97569166Y-119302380D01*
X97759642Y-119302380D01*
X97854880Y-119254761D01*
X97902500Y-119159523D01*
X97902500Y-118778571D01*
X97854880Y-118683333D01*
X97759642Y-118635714D01*
X97569166Y-118635714D01*
X97473928Y-118683333D01*
X97426309Y-118778571D01*
X97426309Y-118873809D01*
X97902500Y-118969047D01*
X96854880Y-119302380D02*
X96950119Y-119254761D01*
X96997738Y-119159523D01*
X96997738Y-118302380D01*
X96473928Y-119207142D02*
X96426309Y-119254761D01*
X96473928Y-119302380D01*
X96521547Y-119254761D01*
X96473928Y-119207142D01*
X96473928Y-119302380D01*
X96473928Y-118683333D02*
X96426309Y-118730952D01*
X96473928Y-118778571D01*
X96521547Y-118730952D01*
X96473928Y-118683333D01*
X96473928Y-118778571D01*
X99140595Y-120952380D02*
X99712023Y-120952380D01*
X99426309Y-120952380D02*
X99426309Y-119952380D01*
X99521547Y-120095238D01*
X99616785Y-120190476D01*
X99712023Y-120238095D01*
X98521547Y-119952380D02*
X98426309Y-119952380D01*
X98331071Y-120000000D01*
X98283452Y-120047619D01*
X98235833Y-120142857D01*
X98188214Y-120333333D01*
X98188214Y-120571428D01*
X98235833Y-120761904D01*
X98283452Y-120857142D01*
X98331071Y-120904761D01*
X98426309Y-120952380D01*
X98521547Y-120952380D01*
X98616785Y-120904761D01*
X98664404Y-120857142D01*
X98712023Y-120761904D01*
X98759642Y-120571428D01*
X98759642Y-120333333D01*
X98712023Y-120142857D01*
X98664404Y-120047619D01*
X98616785Y-120000000D01*
X98521547Y-119952380D01*
X97759642Y-120952380D02*
X97759642Y-119952380D01*
X97664404Y-120571428D02*
X97378690Y-120952380D01*
X97378690Y-120285714D02*
X97759642Y-120666666D01*
X96950119Y-120428571D02*
X96188214Y-120428571D01*
X96188214Y-120714285D02*
X96950119Y-120714285D01*
X95283452Y-120285714D02*
X95283452Y-120952380D01*
X95521547Y-119904761D02*
X95759642Y-120619047D01*
X95140595Y-120619047D01*
X94759642Y-120857142D02*
X94712023Y-120904761D01*
X94759642Y-120952380D01*
X94807261Y-120904761D01*
X94759642Y-120857142D01*
X94759642Y-120952380D01*
X94331071Y-120047619D02*
X94283452Y-120000000D01*
X94188214Y-119952380D01*
X93950119Y-119952380D01*
X93854880Y-120000000D01*
X93807261Y-120047619D01*
X93759642Y-120142857D01*
X93759642Y-120238095D01*
X93807261Y-120380952D01*
X94378690Y-120952380D01*
X93759642Y-120952380D01*
X93473928Y-119952380D02*
X93140595Y-120952380D01*
X92807261Y-119952380D01*
X99521547Y-122602380D02*
X99616785Y-122554761D01*
X99664404Y-122507142D01*
X99712023Y-122411904D01*
X99712023Y-122126190D01*
X99664404Y-122030952D01*
X99616785Y-121983333D01*
X99521547Y-121935714D01*
X99378690Y-121935714D01*
X99283452Y-121983333D01*
X99235833Y-122030952D01*
X99188214Y-122126190D01*
X99188214Y-122411904D01*
X99235833Y-122507142D01*
X99283452Y-122554761D01*
X99378690Y-122602380D01*
X99521547Y-122602380D01*
X98759642Y-121935714D02*
X98759642Y-122935714D01*
X98759642Y-121983333D02*
X98664404Y-121935714D01*
X98473928Y-121935714D01*
X98378690Y-121983333D01*
X98331071Y-122030952D01*
X98283452Y-122126190D01*
X98283452Y-122411904D01*
X98331071Y-122507142D01*
X98378690Y-122554761D01*
X98473928Y-122602380D01*
X98664404Y-122602380D01*
X98759642Y-122554761D01*
X97473928Y-122554761D02*
X97569166Y-122602380D01*
X97759642Y-122602380D01*
X97854880Y-122554761D01*
X97902500Y-122459523D01*
X97902500Y-122078571D01*
X97854880Y-121983333D01*
X97759642Y-121935714D01*
X97569166Y-121935714D01*
X97473928Y-121983333D01*
X97426309Y-122078571D01*
X97426309Y-122173809D01*
X97902500Y-122269047D01*
X96997738Y-121935714D02*
X96997738Y-122602380D01*
X96997738Y-122030952D02*
X96950119Y-121983333D01*
X96854880Y-121935714D01*
X96712023Y-121935714D01*
X96616785Y-121983333D01*
X96569166Y-122078571D01*
X96569166Y-122602380D01*
X96092976Y-122078571D02*
X95331071Y-122078571D01*
X95331071Y-122364285D02*
X96092976Y-122364285D01*
X94950119Y-121602380D02*
X94331071Y-121602380D01*
X94664404Y-121983333D01*
X94521547Y-121983333D01*
X94426309Y-122030952D01*
X94378690Y-122078571D01*
X94331071Y-122173809D01*
X94331071Y-122411904D01*
X94378690Y-122507142D01*
X94426309Y-122554761D01*
X94521547Y-122602380D01*
X94807261Y-122602380D01*
X94902500Y-122554761D01*
X94950119Y-122507142D01*
X93902500Y-122507142D02*
X93854880Y-122554761D01*
X93902500Y-122602380D01*
X93950119Y-122554761D01*
X93902500Y-122507142D01*
X93902500Y-122602380D01*
X92997738Y-121602380D02*
X93188214Y-121602380D01*
X93283452Y-121650000D01*
X93331071Y-121697619D01*
X93426309Y-121840476D01*
X93473928Y-122030952D01*
X93473928Y-122411904D01*
X93426309Y-122507142D01*
X93378690Y-122554761D01*
X93283452Y-122602380D01*
X93092976Y-122602380D01*
X92997738Y-122554761D01*
X92950119Y-122507142D01*
X92902500Y-122411904D01*
X92902500Y-122173809D01*
X92950119Y-122078571D01*
X92997738Y-122030952D01*
X93092976Y-121983333D01*
X93283452Y-121983333D01*
X93378690Y-122030952D01*
X93426309Y-122078571D01*
X93473928Y-122173809D01*
X92616785Y-121602380D02*
X92283452Y-122602380D01*
X91950119Y-121602380D01*
X110702380Y-128035714D02*
X110702380Y-128226190D01*
X110750000Y-128321428D01*
X110845238Y-128416666D01*
X111035714Y-128464285D01*
X111369047Y-128464285D01*
X111559523Y-128416666D01*
X111654761Y-128321428D01*
X111702380Y-128226190D01*
X111702380Y-128035714D01*
X111654761Y-127940476D01*
X111559523Y-127845238D01*
X111369047Y-127797619D01*
X111035714Y-127797619D01*
X110845238Y-127845238D01*
X110750000Y-127940476D01*
X110702380Y-128035714D01*
X111321428Y-128892857D02*
X111321428Y-129654761D01*
X111178571Y-123952380D02*
X111226190Y-124095238D01*
X111273809Y-124142857D01*
X111369047Y-124190476D01*
X111511904Y-124190476D01*
X111607142Y-124142857D01*
X111654761Y-124095238D01*
X111702380Y-124000000D01*
X111702380Y-123619047D01*
X110702380Y-123619047D01*
X110702380Y-123952380D01*
X110750000Y-124047619D01*
X110797619Y-124095238D01*
X110892857Y-124142857D01*
X110988095Y-124142857D01*
X111083333Y-124095238D01*
X111130952Y-124047619D01*
X111178571Y-123952380D01*
X111178571Y-123619047D01*
X111321428Y-124619047D02*
X111321428Y-125380952D01*
X111178571Y-117202380D02*
X111226190Y-117345238D01*
X111273809Y-117392857D01*
X111369047Y-117440476D01*
X111511904Y-117440476D01*
X111607142Y-117392857D01*
X111654761Y-117345238D01*
X111702380Y-117250000D01*
X111702380Y-116869047D01*
X110702380Y-116869047D01*
X110702380Y-117202380D01*
X110750000Y-117297619D01*
X110797619Y-117345238D01*
X110892857Y-117392857D01*
X110988095Y-117392857D01*
X111083333Y-117345238D01*
X111130952Y-117297619D01*
X111178571Y-117202380D01*
X111178571Y-116869047D01*
X111321428Y-117869047D02*
X111321428Y-118630952D01*
X111702380Y-118250000D02*
X110940476Y-118250000D01*
X110702380Y-112535714D02*
X110702380Y-112726190D01*
X110750000Y-112821428D01*
X110845238Y-112916666D01*
X111035714Y-112964285D01*
X111369047Y-112964285D01*
X111559523Y-112916666D01*
X111654761Y-112821428D01*
X111702380Y-112726190D01*
X111702380Y-112535714D01*
X111654761Y-112440476D01*
X111559523Y-112345238D01*
X111369047Y-112297619D01*
X111035714Y-112297619D01*
X110845238Y-112345238D01*
X110750000Y-112440476D01*
X110702380Y-112535714D01*
X111321428Y-113392857D02*
X111321428Y-114154761D01*
X111702380Y-113773809D02*
X110940476Y-113773809D01*
X93857142Y-113547619D02*
X93857142Y-114547619D01*
X94333333Y-113547619D02*
X94333333Y-114547619D01*
X94904761Y-113547619D01*
X94904761Y-114547619D01*
X95380952Y-113928571D02*
X96142857Y-113928571D01*
X89857142Y-113547619D02*
X89857142Y-114547619D01*
X90333333Y-113547619D02*
X90333333Y-114547619D01*
X90904761Y-113547619D01*
X90904761Y-114547619D01*
X91380952Y-113928571D02*
X92142857Y-113928571D01*
X91761904Y-113547619D02*
X91761904Y-114309523D01*
M02*
