M48
; DRILL file {KiCad 5.1.12-84ad8e8a86~92~ubuntu20.04.1} date Sun 19 Feb 2023 01:27:13 AM CET
; FORMAT={-:-/ absolute / inch / decimal}
; #@! TF.CreationDate,2023-02-19T01:27:13+01:00
; #@! TF.GenerationSoftware,Kicad,Pcbnew,5.1.12-84ad8e8a86~92~ubuntu20.04.1
; #@! TF.FileFunction,Plated,1,2,PTH
FMAT,2
INCH
T1C0.0157
T2C0.0236
T3C0.0787
%
G90
G05
T1
X3.6024Y-4.4882
X3.6024Y-4.9311
X3.6614Y-4.4291
X3.7205Y-4.4882
X3.8287Y-4.8425
X3.8976Y-4.9803
X3.9469Y-4.6555
X3.9567Y-4.6063
X3.9567Y-5.1378
X3.9665Y-4.9213
X4.0157Y-4.5472
X4.0157Y-5.1969
X4.0551Y-4.498
X4.0748Y-4.6063
X4.0748Y-5.1378
X4.2717Y-5.0394
X4.3307Y-5.0886
X4.3898Y-5.0394
X4.4488Y-4.6457
X4.4882Y-4.9409
X4.5079Y-5.1476
X4.5187Y-4.7835
X4.5472Y-5.1476
X4.5669Y-4.7835
X4.626Y-4.8819
X4.7441Y-4.8819
T3
X3.3858Y-4.3307
X3.3858Y-5.2756
X4.7638Y-4.3307
X4.7638Y-4.5669
X4.7638Y-5.0394
X4.7638Y-5.2756
T2
G00X3.3563Y-4.6331
M15
G01X3.3327Y-4.6331
M16
G05
G00X3.3563Y-4.9732
M15
G01X3.3327Y-4.9732
M16
G05
G00X3.5307Y-4.6331
M15
G01X3.4874Y-4.6331
M16
G05
G00X3.5307Y-4.9732
M15
G01X3.4874Y-4.9732
M16
G05
T0
M30
