M48
; DRILL file {KiCad 5.1.12-84ad8e8a86~92~ubuntu20.04.1} date Sun 09 Jul 2023 07:05:38 PM CEST
; FORMAT={-:-/ absolute / inch / decimal}
; #@! TF.CreationDate,2023-07-09T19:05:38+02:00
; #@! TF.GenerationSoftware,Kicad,Pcbnew,5.1.12-84ad8e8a86~92~ubuntu20.04.1
; #@! TF.FileFunction,Plated,1,2,PTH
FMAT,2
INCH
T1C0.0157
T2C0.0236
T3C0.0472
T4C0.1063
%
G90
G05
T1
X3.5787Y-4.6366
X3.5827Y-4.8917
X3.6713Y-5.1772
X3.7008Y-4.5945
X3.7303Y-4.8622
X3.7402Y-4.5925
X3.8287Y-4.3799
X3.8583Y-4.7047
X3.9173Y-4.626
X4.0354Y-5.1673
X4.065Y-4.5374
X4.1142Y-4.4882
X4.1437Y-4.6555
X4.2126Y-4.9508
X4.2323Y-5.0886
X4.252Y-4.5472
X4.2717Y-5.0886
X4.2815Y-4.7441
T3
X3.5925Y-4.3996
X3.75Y-4.3996
X4.4783Y-4.4685
X4.4783Y-4.6358
X4.4783Y-4.8917
X4.4783Y-5.0591
T4
X3.3957Y-4.4291
X3.3957Y-5.0984
T2
G00X3.3311Y-4.5937
M15
G01X3.3626Y-4.5937
M16
G05
G00X3.3311Y-4.9339
M15
G01X3.3626Y-4.9339
M16
G05
G00X3.4894Y-4.5937
M15
G01X3.5327Y-4.5937
M16
G05
G00X3.4894Y-4.9339
M15
G01X3.5327Y-4.9339
M16
G05
T0
M30
