%TF.GenerationSoftware,KiCad,Pcbnew,5.1.12-84ad8e8a86~92~ubuntu20.04.1*%
%TF.CreationDate,2023-02-19T01:27:16+01:00*%
%TF.ProjectId,tp5000_lifepo4_charger,74703530-3030-45f6-9c69-6665706f345f,rev?*%
%TF.SameCoordinates,Original*%
%TF.FileFunction,Copper,L2,Bot*%
%TF.FilePolarity,Positive*%
%FSLAX46Y46*%
G04 Gerber Fmt 4.6, Leading zero omitted, Abs format (unit mm)*
G04 Created by KiCad (PCBNEW 5.1.12-84ad8e8a86~92~ubuntu20.04.1) date 2023-02-19 01:27:16*
%MOMM*%
%LPD*%
G01*
G04 APERTURE LIST*
%TA.AperFunction,ComponentPad*%
%ADD10R,4.000000X4.000000*%
%TD*%
%TA.AperFunction,ComponentPad*%
%ADD11O,1.600000X1.000000*%
%TD*%
%TA.AperFunction,ComponentPad*%
%ADD12O,2.100000X1.000000*%
%TD*%
%TA.AperFunction,ViaPad*%
%ADD13C,0.800000*%
%TD*%
%TA.AperFunction,Conductor*%
%ADD14C,0.250000*%
%TD*%
%TA.AperFunction,Conductor*%
%ADD15C,0.254000*%
%TD*%
%TA.AperFunction,Conductor*%
%ADD16C,0.100000*%
%TD*%
G04 APERTURE END LIST*
D10*
%TO.P,J1,1*%
%TO.N,VIN*%
X86000000Y-110000000D03*
%TD*%
%TO.P,J2,1*%
%TO.N,GND*%
X121000000Y-134000000D03*
%TD*%
%TO.P,J3,1*%
%TO.N,B+*%
X121000000Y-110000000D03*
%TD*%
%TO.P,J4,1*%
%TO.N,GND*%
X86000000Y-134000000D03*
%TD*%
%TO.P,J5,1*%
%TO.N,B+*%
X121000000Y-116000000D03*
%TD*%
%TO.P,J6,1*%
%TO.N,B-*%
X121000000Y-128000000D03*
%TD*%
D11*
%TO.P,P1,S1*%
%TO.N,GND*%
X84950000Y-126320000D03*
X84950000Y-117680000D03*
D12*
X89130000Y-117680000D03*
X89130000Y-126320000D03*
%TD*%
D13*
%TO.N,GND*%
X100750000Y-125000000D03*
X99000000Y-126500000D03*
X97250000Y-123000000D03*
X100500000Y-117000000D03*
X100250000Y-118250000D03*
X102000000Y-115500000D03*
X103500000Y-117000000D03*
X93000000Y-112500000D03*
X91500000Y-114000000D03*
X94500000Y-114000000D03*
X91500000Y-125250000D03*
X103500000Y-130500000D03*
X102000000Y-132000000D03*
X100500000Y-130500000D03*
X108500000Y-128000000D03*
X110000000Y-129250000D03*
X111500000Y-128000000D03*
X114500000Y-130750000D03*
X115500000Y-130750000D03*
X117500000Y-124000000D03*
X120500000Y-124000000D03*
X103000000Y-114250000D03*
%TO.N,B-*%
X114775000Y-121500000D03*
X113000000Y-118000000D03*
%TO.N,Net-(U2-Pad3)*%
X114000000Y-125500000D03*
X116000000Y-121500000D03*
%TD*%
D14*
%TO.N,B-*%
X113000000Y-119725000D02*
X113000000Y-118000000D01*
X114775000Y-121500000D02*
X113000000Y-119725000D01*
%TO.N,Net-(U2-Pad3)*%
X116000000Y-123500000D02*
X116000000Y-121500000D01*
X114000000Y-125500000D02*
X116000000Y-123500000D01*
%TD*%
D15*
%TO.N,GND*%
X118410498Y-107755820D02*
X118374188Y-107875518D01*
X118361928Y-108000000D01*
X118361928Y-112000000D01*
X118374188Y-112124482D01*
X118410498Y-112244180D01*
X118469463Y-112354494D01*
X118548815Y-112451185D01*
X118645506Y-112530537D01*
X118755820Y-112589502D01*
X118875518Y-112625812D01*
X119000000Y-112638072D01*
X123000000Y-112638072D01*
X123124482Y-112625812D01*
X123244180Y-112589502D01*
X123340000Y-112538284D01*
X123340000Y-113461716D01*
X123244180Y-113410498D01*
X123124482Y-113374188D01*
X123000000Y-113361928D01*
X119000000Y-113361928D01*
X118875518Y-113374188D01*
X118755820Y-113410498D01*
X118645506Y-113469463D01*
X118548815Y-113548815D01*
X118469463Y-113645506D01*
X118410498Y-113755820D01*
X118374188Y-113875518D01*
X118361928Y-114000000D01*
X118361928Y-118000000D01*
X118374188Y-118124482D01*
X118410498Y-118244180D01*
X118469463Y-118354494D01*
X118548815Y-118451185D01*
X118645506Y-118530537D01*
X118755820Y-118589502D01*
X118875518Y-118625812D01*
X119000000Y-118638072D01*
X123000000Y-118638072D01*
X123124482Y-118625812D01*
X123244180Y-118589502D01*
X123340000Y-118538284D01*
X123340001Y-125461716D01*
X123244180Y-125410498D01*
X123124482Y-125374188D01*
X123000000Y-125361928D01*
X119000000Y-125361928D01*
X118875518Y-125374188D01*
X118755820Y-125410498D01*
X118645506Y-125469463D01*
X118548815Y-125548815D01*
X118469463Y-125645506D01*
X118410498Y-125755820D01*
X118374188Y-125875518D01*
X118361928Y-126000000D01*
X118361928Y-130000000D01*
X118374188Y-130124482D01*
X118410498Y-130244180D01*
X118469463Y-130354494D01*
X118548815Y-130451185D01*
X118645506Y-130530537D01*
X118755820Y-130589502D01*
X118875518Y-130625812D01*
X119000000Y-130638072D01*
X123000000Y-130638072D01*
X123124482Y-130625812D01*
X123244180Y-130589502D01*
X123340001Y-130538284D01*
X123340001Y-131461716D01*
X123244180Y-131410498D01*
X123124482Y-131374188D01*
X123000000Y-131361928D01*
X121285750Y-131365000D01*
X121127000Y-131523750D01*
X121127000Y-133873000D01*
X121147000Y-133873000D01*
X121147000Y-134127000D01*
X121127000Y-134127000D01*
X121127000Y-134147000D01*
X120873000Y-134147000D01*
X120873000Y-134127000D01*
X118523750Y-134127000D01*
X118365000Y-134285750D01*
X118361928Y-136000000D01*
X118374188Y-136124482D01*
X118410498Y-136244180D01*
X118461716Y-136340000D01*
X88538284Y-136340000D01*
X88589502Y-136244180D01*
X88625812Y-136124482D01*
X88638072Y-136000000D01*
X88635000Y-134285750D01*
X88476250Y-134127000D01*
X86127000Y-134127000D01*
X86127000Y-134147000D01*
X85873000Y-134147000D01*
X85873000Y-134127000D01*
X85853000Y-134127000D01*
X85853000Y-133873000D01*
X85873000Y-133873000D01*
X85873000Y-131523750D01*
X86127000Y-131523750D01*
X86127000Y-133873000D01*
X88476250Y-133873000D01*
X88635000Y-133714250D01*
X88636750Y-132737314D01*
X106332905Y-132737314D01*
X106332905Y-133262686D01*
X106435400Y-133777963D01*
X106636451Y-134263343D01*
X106928332Y-134700174D01*
X107299826Y-135071668D01*
X107736657Y-135363549D01*
X108222037Y-135564600D01*
X108737314Y-135667095D01*
X109262686Y-135667095D01*
X109777963Y-135564600D01*
X110263343Y-135363549D01*
X110700174Y-135071668D01*
X111071668Y-134700174D01*
X111363549Y-134263343D01*
X111564600Y-133777963D01*
X111667095Y-133262686D01*
X111667095Y-132737314D01*
X111564600Y-132222037D01*
X111472630Y-132000000D01*
X118361928Y-132000000D01*
X118365000Y-133714250D01*
X118523750Y-133873000D01*
X120873000Y-133873000D01*
X120873000Y-131523750D01*
X120714250Y-131365000D01*
X119000000Y-131361928D01*
X118875518Y-131374188D01*
X118755820Y-131410498D01*
X118645506Y-131469463D01*
X118548815Y-131548815D01*
X118469463Y-131645506D01*
X118410498Y-131755820D01*
X118374188Y-131875518D01*
X118361928Y-132000000D01*
X111472630Y-132000000D01*
X111363549Y-131736657D01*
X111071668Y-131299826D01*
X110700174Y-130928332D01*
X110263343Y-130636451D01*
X109777963Y-130435400D01*
X109262686Y-130332905D01*
X108737314Y-130332905D01*
X108222037Y-130435400D01*
X107736657Y-130636451D01*
X107299826Y-130928332D01*
X106928332Y-131299826D01*
X106636451Y-131736657D01*
X106435400Y-132222037D01*
X106332905Y-132737314D01*
X88636750Y-132737314D01*
X88638072Y-132000000D01*
X88625812Y-131875518D01*
X88589502Y-131755820D01*
X88530537Y-131645506D01*
X88451185Y-131548815D01*
X88354494Y-131469463D01*
X88244180Y-131410498D01*
X88124482Y-131374188D01*
X88000000Y-131361928D01*
X86285750Y-131365000D01*
X86127000Y-131523750D01*
X85873000Y-131523750D01*
X85714250Y-131365000D01*
X84000000Y-131361928D01*
X83875518Y-131374188D01*
X83755820Y-131410498D01*
X83660000Y-131461716D01*
X83660000Y-126882371D01*
X83757631Y-127032764D01*
X83913831Y-127193161D01*
X84098322Y-127320003D01*
X84304013Y-127408415D01*
X84523000Y-127455000D01*
X84823000Y-127455000D01*
X84823000Y-126447000D01*
X85077000Y-126447000D01*
X85077000Y-127455000D01*
X85377000Y-127455000D01*
X85595987Y-127408415D01*
X85801678Y-127320003D01*
X85986169Y-127193161D01*
X86142369Y-127032764D01*
X86264276Y-126844976D01*
X86344119Y-126621874D01*
X87485881Y-126621874D01*
X87565724Y-126844976D01*
X87687631Y-127032764D01*
X87843831Y-127193161D01*
X88028322Y-127320003D01*
X88234013Y-127408415D01*
X88453000Y-127455000D01*
X89003000Y-127455000D01*
X89003000Y-126447000D01*
X89257000Y-126447000D01*
X89257000Y-127455000D01*
X89807000Y-127455000D01*
X90025987Y-127408415D01*
X90231678Y-127320003D01*
X90416169Y-127193161D01*
X90572369Y-127032764D01*
X90694276Y-126844976D01*
X90774119Y-126621874D01*
X90647954Y-126447000D01*
X89257000Y-126447000D01*
X89003000Y-126447000D01*
X87612046Y-126447000D01*
X87485881Y-126621874D01*
X86344119Y-126621874D01*
X86217954Y-126447000D01*
X85077000Y-126447000D01*
X84823000Y-126447000D01*
X84803000Y-126447000D01*
X84803000Y-126193000D01*
X84823000Y-126193000D01*
X84823000Y-125185000D01*
X85077000Y-125185000D01*
X85077000Y-126193000D01*
X86217954Y-126193000D01*
X86344119Y-126018126D01*
X87485881Y-126018126D01*
X87612046Y-126193000D01*
X89003000Y-126193000D01*
X89003000Y-126173000D01*
X89257000Y-126173000D01*
X89257000Y-126193000D01*
X90647954Y-126193000D01*
X90774119Y-126018126D01*
X90694276Y-125795024D01*
X90572369Y-125607236D01*
X90416169Y-125446839D01*
X90231678Y-125319997D01*
X90025987Y-125231585D01*
X89807000Y-125185000D01*
X89516904Y-125185000D01*
X89523108Y-125170022D01*
X89560000Y-124984552D01*
X89560000Y-124795448D01*
X89523108Y-124609978D01*
X89450741Y-124435269D01*
X89345681Y-124278036D01*
X89211964Y-124144319D01*
X89054731Y-124039259D01*
X88880022Y-123966892D01*
X88694552Y-123930000D01*
X88505448Y-123930000D01*
X88319978Y-123966892D01*
X88145269Y-124039259D01*
X87988036Y-124144319D01*
X87854319Y-124278036D01*
X87749259Y-124435269D01*
X87676892Y-124609978D01*
X87640000Y-124795448D01*
X87640000Y-124984552D01*
X87676892Y-125170022D01*
X87749259Y-125344731D01*
X87828206Y-125462884D01*
X87687631Y-125607236D01*
X87565724Y-125795024D01*
X87485881Y-126018126D01*
X86344119Y-126018126D01*
X86264276Y-125795024D01*
X86142369Y-125607236D01*
X85986169Y-125446839D01*
X85801678Y-125319997D01*
X85595987Y-125231585D01*
X85377000Y-125185000D01*
X85077000Y-125185000D01*
X84823000Y-125185000D01*
X84523000Y-125185000D01*
X84304013Y-125231585D01*
X84098322Y-125319997D01*
X83913831Y-125446839D01*
X83757631Y-125607236D01*
X83660000Y-125757629D01*
X83660000Y-118242371D01*
X83757631Y-118392764D01*
X83913831Y-118553161D01*
X84098322Y-118680003D01*
X84304013Y-118768415D01*
X84523000Y-118815000D01*
X84823000Y-118815000D01*
X84823000Y-117807000D01*
X85077000Y-117807000D01*
X85077000Y-118815000D01*
X85377000Y-118815000D01*
X85595987Y-118768415D01*
X85801678Y-118680003D01*
X85986169Y-118553161D01*
X86142369Y-118392764D01*
X86264276Y-118204976D01*
X86344119Y-117981874D01*
X87485881Y-117981874D01*
X87565724Y-118204976D01*
X87687631Y-118392764D01*
X87828206Y-118537116D01*
X87749259Y-118655269D01*
X87676892Y-118829978D01*
X87640000Y-119015448D01*
X87640000Y-119204552D01*
X87676892Y-119390022D01*
X87749259Y-119564731D01*
X87854319Y-119721964D01*
X87988036Y-119855681D01*
X88145269Y-119960741D01*
X88319978Y-120033108D01*
X88505448Y-120070000D01*
X88694552Y-120070000D01*
X88880022Y-120033108D01*
X89054731Y-119960741D01*
X89211964Y-119855681D01*
X89345681Y-119721964D01*
X89450741Y-119564731D01*
X89523108Y-119390022D01*
X89560000Y-119204552D01*
X89560000Y-119015448D01*
X89523108Y-118829978D01*
X89516904Y-118815000D01*
X89807000Y-118815000D01*
X90025987Y-118768415D01*
X90231678Y-118680003D01*
X90416169Y-118553161D01*
X90572369Y-118392764D01*
X90694276Y-118204976D01*
X90774119Y-117981874D01*
X90713652Y-117898061D01*
X111965000Y-117898061D01*
X111965000Y-118101939D01*
X112004774Y-118301898D01*
X112082795Y-118490256D01*
X112196063Y-118659774D01*
X112240001Y-118703712D01*
X112240000Y-119687677D01*
X112236324Y-119725000D01*
X112240000Y-119762322D01*
X112240000Y-119762332D01*
X112250997Y-119873985D01*
X112277314Y-119960741D01*
X112294454Y-120017246D01*
X112365026Y-120149276D01*
X112404871Y-120197826D01*
X112459999Y-120265001D01*
X112489003Y-120288804D01*
X113740000Y-121539802D01*
X113740000Y-121601939D01*
X113779774Y-121801898D01*
X113857795Y-121990256D01*
X113971063Y-122159774D01*
X114115226Y-122303937D01*
X114284744Y-122417205D01*
X114473102Y-122495226D01*
X114673061Y-122535000D01*
X114876939Y-122535000D01*
X115076898Y-122495226D01*
X115240001Y-122427666D01*
X115240000Y-123185198D01*
X113960199Y-124465000D01*
X113898061Y-124465000D01*
X113698102Y-124504774D01*
X113509744Y-124582795D01*
X113340226Y-124696063D01*
X113196063Y-124840226D01*
X113082795Y-125009744D01*
X113004774Y-125198102D01*
X112965000Y-125398061D01*
X112965000Y-125601939D01*
X113004774Y-125801898D01*
X113082795Y-125990256D01*
X113196063Y-126159774D01*
X113340226Y-126303937D01*
X113509744Y-126417205D01*
X113698102Y-126495226D01*
X113898061Y-126535000D01*
X114101939Y-126535000D01*
X114301898Y-126495226D01*
X114490256Y-126417205D01*
X114659774Y-126303937D01*
X114803937Y-126159774D01*
X114917205Y-125990256D01*
X114995226Y-125801898D01*
X115035000Y-125601939D01*
X115035000Y-125539801D01*
X116511004Y-124063798D01*
X116540001Y-124040001D01*
X116600000Y-123966892D01*
X116634974Y-123924277D01*
X116705546Y-123792247D01*
X116705546Y-123792246D01*
X116749003Y-123648986D01*
X116760000Y-123537333D01*
X116760000Y-123537324D01*
X116763676Y-123500001D01*
X116760000Y-123462678D01*
X116760000Y-122203711D01*
X116803937Y-122159774D01*
X116917205Y-121990256D01*
X116995226Y-121801898D01*
X117035000Y-121601939D01*
X117035000Y-121398061D01*
X116995226Y-121198102D01*
X116917205Y-121009744D01*
X116803937Y-120840226D01*
X116659774Y-120696063D01*
X116490256Y-120582795D01*
X116301898Y-120504774D01*
X116101939Y-120465000D01*
X115898061Y-120465000D01*
X115698102Y-120504774D01*
X115509744Y-120582795D01*
X115387500Y-120664476D01*
X115265256Y-120582795D01*
X115076898Y-120504774D01*
X114876939Y-120465000D01*
X114814802Y-120465000D01*
X113760000Y-119410199D01*
X113760000Y-118703711D01*
X113803937Y-118659774D01*
X113917205Y-118490256D01*
X113995226Y-118301898D01*
X114035000Y-118101939D01*
X114035000Y-117898061D01*
X113995226Y-117698102D01*
X113917205Y-117509744D01*
X113803937Y-117340226D01*
X113659774Y-117196063D01*
X113490256Y-117082795D01*
X113301898Y-117004774D01*
X113101939Y-116965000D01*
X112898061Y-116965000D01*
X112698102Y-117004774D01*
X112509744Y-117082795D01*
X112340226Y-117196063D01*
X112196063Y-117340226D01*
X112082795Y-117509744D01*
X112004774Y-117698102D01*
X111965000Y-117898061D01*
X90713652Y-117898061D01*
X90647954Y-117807000D01*
X89257000Y-117807000D01*
X89257000Y-117827000D01*
X89003000Y-117827000D01*
X89003000Y-117807000D01*
X87612046Y-117807000D01*
X87485881Y-117981874D01*
X86344119Y-117981874D01*
X86217954Y-117807000D01*
X85077000Y-117807000D01*
X84823000Y-117807000D01*
X84803000Y-117807000D01*
X84803000Y-117553000D01*
X84823000Y-117553000D01*
X84823000Y-116545000D01*
X85077000Y-116545000D01*
X85077000Y-117553000D01*
X86217954Y-117553000D01*
X86344119Y-117378126D01*
X87485881Y-117378126D01*
X87612046Y-117553000D01*
X89003000Y-117553000D01*
X89003000Y-116545000D01*
X89257000Y-116545000D01*
X89257000Y-117553000D01*
X90647954Y-117553000D01*
X90774119Y-117378126D01*
X90694276Y-117155024D01*
X90572369Y-116967236D01*
X90416169Y-116806839D01*
X90231678Y-116679997D01*
X90025987Y-116591585D01*
X89807000Y-116545000D01*
X89257000Y-116545000D01*
X89003000Y-116545000D01*
X88453000Y-116545000D01*
X88234013Y-116591585D01*
X88028322Y-116679997D01*
X87843831Y-116806839D01*
X87687631Y-116967236D01*
X87565724Y-117155024D01*
X87485881Y-117378126D01*
X86344119Y-117378126D01*
X86264276Y-117155024D01*
X86142369Y-116967236D01*
X85986169Y-116806839D01*
X85801678Y-116679997D01*
X85595987Y-116591585D01*
X85377000Y-116545000D01*
X85077000Y-116545000D01*
X84823000Y-116545000D01*
X84523000Y-116545000D01*
X84304013Y-116591585D01*
X84098322Y-116679997D01*
X83913831Y-116806839D01*
X83757631Y-116967236D01*
X83660000Y-117117629D01*
X83660000Y-112538284D01*
X83755820Y-112589502D01*
X83875518Y-112625812D01*
X84000000Y-112638072D01*
X88000000Y-112638072D01*
X88124482Y-112625812D01*
X88244180Y-112589502D01*
X88354494Y-112530537D01*
X88451185Y-112451185D01*
X88530537Y-112354494D01*
X88589502Y-112244180D01*
X88625812Y-112124482D01*
X88638072Y-112000000D01*
X88638072Y-110737314D01*
X106332905Y-110737314D01*
X106332905Y-111262686D01*
X106435400Y-111777963D01*
X106636451Y-112263343D01*
X106928332Y-112700174D01*
X107299826Y-113071668D01*
X107736657Y-113363549D01*
X108222037Y-113564600D01*
X108737314Y-113667095D01*
X109262686Y-113667095D01*
X109777963Y-113564600D01*
X110263343Y-113363549D01*
X110700174Y-113071668D01*
X111071668Y-112700174D01*
X111363549Y-112263343D01*
X111564600Y-111777963D01*
X111667095Y-111262686D01*
X111667095Y-110737314D01*
X111564600Y-110222037D01*
X111363549Y-109736657D01*
X111071668Y-109299826D01*
X110700174Y-108928332D01*
X110263343Y-108636451D01*
X109777963Y-108435400D01*
X109262686Y-108332905D01*
X108737314Y-108332905D01*
X108222037Y-108435400D01*
X107736657Y-108636451D01*
X107299826Y-108928332D01*
X106928332Y-109299826D01*
X106636451Y-109736657D01*
X106435400Y-110222037D01*
X106332905Y-110737314D01*
X88638072Y-110737314D01*
X88638072Y-108000000D01*
X88625812Y-107875518D01*
X88589502Y-107755820D01*
X88538284Y-107660000D01*
X118461716Y-107660000D01*
X118410498Y-107755820D01*
%TA.AperFunction,Conductor*%
D16*
G36*
X118410498Y-107755820D02*
G01*
X118374188Y-107875518D01*
X118361928Y-108000000D01*
X118361928Y-112000000D01*
X118374188Y-112124482D01*
X118410498Y-112244180D01*
X118469463Y-112354494D01*
X118548815Y-112451185D01*
X118645506Y-112530537D01*
X118755820Y-112589502D01*
X118875518Y-112625812D01*
X119000000Y-112638072D01*
X123000000Y-112638072D01*
X123124482Y-112625812D01*
X123244180Y-112589502D01*
X123340000Y-112538284D01*
X123340000Y-113461716D01*
X123244180Y-113410498D01*
X123124482Y-113374188D01*
X123000000Y-113361928D01*
X119000000Y-113361928D01*
X118875518Y-113374188D01*
X118755820Y-113410498D01*
X118645506Y-113469463D01*
X118548815Y-113548815D01*
X118469463Y-113645506D01*
X118410498Y-113755820D01*
X118374188Y-113875518D01*
X118361928Y-114000000D01*
X118361928Y-118000000D01*
X118374188Y-118124482D01*
X118410498Y-118244180D01*
X118469463Y-118354494D01*
X118548815Y-118451185D01*
X118645506Y-118530537D01*
X118755820Y-118589502D01*
X118875518Y-118625812D01*
X119000000Y-118638072D01*
X123000000Y-118638072D01*
X123124482Y-118625812D01*
X123244180Y-118589502D01*
X123340000Y-118538284D01*
X123340001Y-125461716D01*
X123244180Y-125410498D01*
X123124482Y-125374188D01*
X123000000Y-125361928D01*
X119000000Y-125361928D01*
X118875518Y-125374188D01*
X118755820Y-125410498D01*
X118645506Y-125469463D01*
X118548815Y-125548815D01*
X118469463Y-125645506D01*
X118410498Y-125755820D01*
X118374188Y-125875518D01*
X118361928Y-126000000D01*
X118361928Y-130000000D01*
X118374188Y-130124482D01*
X118410498Y-130244180D01*
X118469463Y-130354494D01*
X118548815Y-130451185D01*
X118645506Y-130530537D01*
X118755820Y-130589502D01*
X118875518Y-130625812D01*
X119000000Y-130638072D01*
X123000000Y-130638072D01*
X123124482Y-130625812D01*
X123244180Y-130589502D01*
X123340001Y-130538284D01*
X123340001Y-131461716D01*
X123244180Y-131410498D01*
X123124482Y-131374188D01*
X123000000Y-131361928D01*
X121285750Y-131365000D01*
X121127000Y-131523750D01*
X121127000Y-133873000D01*
X121147000Y-133873000D01*
X121147000Y-134127000D01*
X121127000Y-134127000D01*
X121127000Y-134147000D01*
X120873000Y-134147000D01*
X120873000Y-134127000D01*
X118523750Y-134127000D01*
X118365000Y-134285750D01*
X118361928Y-136000000D01*
X118374188Y-136124482D01*
X118410498Y-136244180D01*
X118461716Y-136340000D01*
X88538284Y-136340000D01*
X88589502Y-136244180D01*
X88625812Y-136124482D01*
X88638072Y-136000000D01*
X88635000Y-134285750D01*
X88476250Y-134127000D01*
X86127000Y-134127000D01*
X86127000Y-134147000D01*
X85873000Y-134147000D01*
X85873000Y-134127000D01*
X85853000Y-134127000D01*
X85853000Y-133873000D01*
X85873000Y-133873000D01*
X85873000Y-131523750D01*
X86127000Y-131523750D01*
X86127000Y-133873000D01*
X88476250Y-133873000D01*
X88635000Y-133714250D01*
X88636750Y-132737314D01*
X106332905Y-132737314D01*
X106332905Y-133262686D01*
X106435400Y-133777963D01*
X106636451Y-134263343D01*
X106928332Y-134700174D01*
X107299826Y-135071668D01*
X107736657Y-135363549D01*
X108222037Y-135564600D01*
X108737314Y-135667095D01*
X109262686Y-135667095D01*
X109777963Y-135564600D01*
X110263343Y-135363549D01*
X110700174Y-135071668D01*
X111071668Y-134700174D01*
X111363549Y-134263343D01*
X111564600Y-133777963D01*
X111667095Y-133262686D01*
X111667095Y-132737314D01*
X111564600Y-132222037D01*
X111472630Y-132000000D01*
X118361928Y-132000000D01*
X118365000Y-133714250D01*
X118523750Y-133873000D01*
X120873000Y-133873000D01*
X120873000Y-131523750D01*
X120714250Y-131365000D01*
X119000000Y-131361928D01*
X118875518Y-131374188D01*
X118755820Y-131410498D01*
X118645506Y-131469463D01*
X118548815Y-131548815D01*
X118469463Y-131645506D01*
X118410498Y-131755820D01*
X118374188Y-131875518D01*
X118361928Y-132000000D01*
X111472630Y-132000000D01*
X111363549Y-131736657D01*
X111071668Y-131299826D01*
X110700174Y-130928332D01*
X110263343Y-130636451D01*
X109777963Y-130435400D01*
X109262686Y-130332905D01*
X108737314Y-130332905D01*
X108222037Y-130435400D01*
X107736657Y-130636451D01*
X107299826Y-130928332D01*
X106928332Y-131299826D01*
X106636451Y-131736657D01*
X106435400Y-132222037D01*
X106332905Y-132737314D01*
X88636750Y-132737314D01*
X88638072Y-132000000D01*
X88625812Y-131875518D01*
X88589502Y-131755820D01*
X88530537Y-131645506D01*
X88451185Y-131548815D01*
X88354494Y-131469463D01*
X88244180Y-131410498D01*
X88124482Y-131374188D01*
X88000000Y-131361928D01*
X86285750Y-131365000D01*
X86127000Y-131523750D01*
X85873000Y-131523750D01*
X85714250Y-131365000D01*
X84000000Y-131361928D01*
X83875518Y-131374188D01*
X83755820Y-131410498D01*
X83660000Y-131461716D01*
X83660000Y-126882371D01*
X83757631Y-127032764D01*
X83913831Y-127193161D01*
X84098322Y-127320003D01*
X84304013Y-127408415D01*
X84523000Y-127455000D01*
X84823000Y-127455000D01*
X84823000Y-126447000D01*
X85077000Y-126447000D01*
X85077000Y-127455000D01*
X85377000Y-127455000D01*
X85595987Y-127408415D01*
X85801678Y-127320003D01*
X85986169Y-127193161D01*
X86142369Y-127032764D01*
X86264276Y-126844976D01*
X86344119Y-126621874D01*
X87485881Y-126621874D01*
X87565724Y-126844976D01*
X87687631Y-127032764D01*
X87843831Y-127193161D01*
X88028322Y-127320003D01*
X88234013Y-127408415D01*
X88453000Y-127455000D01*
X89003000Y-127455000D01*
X89003000Y-126447000D01*
X89257000Y-126447000D01*
X89257000Y-127455000D01*
X89807000Y-127455000D01*
X90025987Y-127408415D01*
X90231678Y-127320003D01*
X90416169Y-127193161D01*
X90572369Y-127032764D01*
X90694276Y-126844976D01*
X90774119Y-126621874D01*
X90647954Y-126447000D01*
X89257000Y-126447000D01*
X89003000Y-126447000D01*
X87612046Y-126447000D01*
X87485881Y-126621874D01*
X86344119Y-126621874D01*
X86217954Y-126447000D01*
X85077000Y-126447000D01*
X84823000Y-126447000D01*
X84803000Y-126447000D01*
X84803000Y-126193000D01*
X84823000Y-126193000D01*
X84823000Y-125185000D01*
X85077000Y-125185000D01*
X85077000Y-126193000D01*
X86217954Y-126193000D01*
X86344119Y-126018126D01*
X87485881Y-126018126D01*
X87612046Y-126193000D01*
X89003000Y-126193000D01*
X89003000Y-126173000D01*
X89257000Y-126173000D01*
X89257000Y-126193000D01*
X90647954Y-126193000D01*
X90774119Y-126018126D01*
X90694276Y-125795024D01*
X90572369Y-125607236D01*
X90416169Y-125446839D01*
X90231678Y-125319997D01*
X90025987Y-125231585D01*
X89807000Y-125185000D01*
X89516904Y-125185000D01*
X89523108Y-125170022D01*
X89560000Y-124984552D01*
X89560000Y-124795448D01*
X89523108Y-124609978D01*
X89450741Y-124435269D01*
X89345681Y-124278036D01*
X89211964Y-124144319D01*
X89054731Y-124039259D01*
X88880022Y-123966892D01*
X88694552Y-123930000D01*
X88505448Y-123930000D01*
X88319978Y-123966892D01*
X88145269Y-124039259D01*
X87988036Y-124144319D01*
X87854319Y-124278036D01*
X87749259Y-124435269D01*
X87676892Y-124609978D01*
X87640000Y-124795448D01*
X87640000Y-124984552D01*
X87676892Y-125170022D01*
X87749259Y-125344731D01*
X87828206Y-125462884D01*
X87687631Y-125607236D01*
X87565724Y-125795024D01*
X87485881Y-126018126D01*
X86344119Y-126018126D01*
X86264276Y-125795024D01*
X86142369Y-125607236D01*
X85986169Y-125446839D01*
X85801678Y-125319997D01*
X85595987Y-125231585D01*
X85377000Y-125185000D01*
X85077000Y-125185000D01*
X84823000Y-125185000D01*
X84523000Y-125185000D01*
X84304013Y-125231585D01*
X84098322Y-125319997D01*
X83913831Y-125446839D01*
X83757631Y-125607236D01*
X83660000Y-125757629D01*
X83660000Y-118242371D01*
X83757631Y-118392764D01*
X83913831Y-118553161D01*
X84098322Y-118680003D01*
X84304013Y-118768415D01*
X84523000Y-118815000D01*
X84823000Y-118815000D01*
X84823000Y-117807000D01*
X85077000Y-117807000D01*
X85077000Y-118815000D01*
X85377000Y-118815000D01*
X85595987Y-118768415D01*
X85801678Y-118680003D01*
X85986169Y-118553161D01*
X86142369Y-118392764D01*
X86264276Y-118204976D01*
X86344119Y-117981874D01*
X87485881Y-117981874D01*
X87565724Y-118204976D01*
X87687631Y-118392764D01*
X87828206Y-118537116D01*
X87749259Y-118655269D01*
X87676892Y-118829978D01*
X87640000Y-119015448D01*
X87640000Y-119204552D01*
X87676892Y-119390022D01*
X87749259Y-119564731D01*
X87854319Y-119721964D01*
X87988036Y-119855681D01*
X88145269Y-119960741D01*
X88319978Y-120033108D01*
X88505448Y-120070000D01*
X88694552Y-120070000D01*
X88880022Y-120033108D01*
X89054731Y-119960741D01*
X89211964Y-119855681D01*
X89345681Y-119721964D01*
X89450741Y-119564731D01*
X89523108Y-119390022D01*
X89560000Y-119204552D01*
X89560000Y-119015448D01*
X89523108Y-118829978D01*
X89516904Y-118815000D01*
X89807000Y-118815000D01*
X90025987Y-118768415D01*
X90231678Y-118680003D01*
X90416169Y-118553161D01*
X90572369Y-118392764D01*
X90694276Y-118204976D01*
X90774119Y-117981874D01*
X90713652Y-117898061D01*
X111965000Y-117898061D01*
X111965000Y-118101939D01*
X112004774Y-118301898D01*
X112082795Y-118490256D01*
X112196063Y-118659774D01*
X112240001Y-118703712D01*
X112240000Y-119687677D01*
X112236324Y-119725000D01*
X112240000Y-119762322D01*
X112240000Y-119762332D01*
X112250997Y-119873985D01*
X112277314Y-119960741D01*
X112294454Y-120017246D01*
X112365026Y-120149276D01*
X112404871Y-120197826D01*
X112459999Y-120265001D01*
X112489003Y-120288804D01*
X113740000Y-121539802D01*
X113740000Y-121601939D01*
X113779774Y-121801898D01*
X113857795Y-121990256D01*
X113971063Y-122159774D01*
X114115226Y-122303937D01*
X114284744Y-122417205D01*
X114473102Y-122495226D01*
X114673061Y-122535000D01*
X114876939Y-122535000D01*
X115076898Y-122495226D01*
X115240001Y-122427666D01*
X115240000Y-123185198D01*
X113960199Y-124465000D01*
X113898061Y-124465000D01*
X113698102Y-124504774D01*
X113509744Y-124582795D01*
X113340226Y-124696063D01*
X113196063Y-124840226D01*
X113082795Y-125009744D01*
X113004774Y-125198102D01*
X112965000Y-125398061D01*
X112965000Y-125601939D01*
X113004774Y-125801898D01*
X113082795Y-125990256D01*
X113196063Y-126159774D01*
X113340226Y-126303937D01*
X113509744Y-126417205D01*
X113698102Y-126495226D01*
X113898061Y-126535000D01*
X114101939Y-126535000D01*
X114301898Y-126495226D01*
X114490256Y-126417205D01*
X114659774Y-126303937D01*
X114803937Y-126159774D01*
X114917205Y-125990256D01*
X114995226Y-125801898D01*
X115035000Y-125601939D01*
X115035000Y-125539801D01*
X116511004Y-124063798D01*
X116540001Y-124040001D01*
X116600000Y-123966892D01*
X116634974Y-123924277D01*
X116705546Y-123792247D01*
X116705546Y-123792246D01*
X116749003Y-123648986D01*
X116760000Y-123537333D01*
X116760000Y-123537324D01*
X116763676Y-123500001D01*
X116760000Y-123462678D01*
X116760000Y-122203711D01*
X116803937Y-122159774D01*
X116917205Y-121990256D01*
X116995226Y-121801898D01*
X117035000Y-121601939D01*
X117035000Y-121398061D01*
X116995226Y-121198102D01*
X116917205Y-121009744D01*
X116803937Y-120840226D01*
X116659774Y-120696063D01*
X116490256Y-120582795D01*
X116301898Y-120504774D01*
X116101939Y-120465000D01*
X115898061Y-120465000D01*
X115698102Y-120504774D01*
X115509744Y-120582795D01*
X115387500Y-120664476D01*
X115265256Y-120582795D01*
X115076898Y-120504774D01*
X114876939Y-120465000D01*
X114814802Y-120465000D01*
X113760000Y-119410199D01*
X113760000Y-118703711D01*
X113803937Y-118659774D01*
X113917205Y-118490256D01*
X113995226Y-118301898D01*
X114035000Y-118101939D01*
X114035000Y-117898061D01*
X113995226Y-117698102D01*
X113917205Y-117509744D01*
X113803937Y-117340226D01*
X113659774Y-117196063D01*
X113490256Y-117082795D01*
X113301898Y-117004774D01*
X113101939Y-116965000D01*
X112898061Y-116965000D01*
X112698102Y-117004774D01*
X112509744Y-117082795D01*
X112340226Y-117196063D01*
X112196063Y-117340226D01*
X112082795Y-117509744D01*
X112004774Y-117698102D01*
X111965000Y-117898061D01*
X90713652Y-117898061D01*
X90647954Y-117807000D01*
X89257000Y-117807000D01*
X89257000Y-117827000D01*
X89003000Y-117827000D01*
X89003000Y-117807000D01*
X87612046Y-117807000D01*
X87485881Y-117981874D01*
X86344119Y-117981874D01*
X86217954Y-117807000D01*
X85077000Y-117807000D01*
X84823000Y-117807000D01*
X84803000Y-117807000D01*
X84803000Y-117553000D01*
X84823000Y-117553000D01*
X84823000Y-116545000D01*
X85077000Y-116545000D01*
X85077000Y-117553000D01*
X86217954Y-117553000D01*
X86344119Y-117378126D01*
X87485881Y-117378126D01*
X87612046Y-117553000D01*
X89003000Y-117553000D01*
X89003000Y-116545000D01*
X89257000Y-116545000D01*
X89257000Y-117553000D01*
X90647954Y-117553000D01*
X90774119Y-117378126D01*
X90694276Y-117155024D01*
X90572369Y-116967236D01*
X90416169Y-116806839D01*
X90231678Y-116679997D01*
X90025987Y-116591585D01*
X89807000Y-116545000D01*
X89257000Y-116545000D01*
X89003000Y-116545000D01*
X88453000Y-116545000D01*
X88234013Y-116591585D01*
X88028322Y-116679997D01*
X87843831Y-116806839D01*
X87687631Y-116967236D01*
X87565724Y-117155024D01*
X87485881Y-117378126D01*
X86344119Y-117378126D01*
X86264276Y-117155024D01*
X86142369Y-116967236D01*
X85986169Y-116806839D01*
X85801678Y-116679997D01*
X85595987Y-116591585D01*
X85377000Y-116545000D01*
X85077000Y-116545000D01*
X84823000Y-116545000D01*
X84523000Y-116545000D01*
X84304013Y-116591585D01*
X84098322Y-116679997D01*
X83913831Y-116806839D01*
X83757631Y-116967236D01*
X83660000Y-117117629D01*
X83660000Y-112538284D01*
X83755820Y-112589502D01*
X83875518Y-112625812D01*
X84000000Y-112638072D01*
X88000000Y-112638072D01*
X88124482Y-112625812D01*
X88244180Y-112589502D01*
X88354494Y-112530537D01*
X88451185Y-112451185D01*
X88530537Y-112354494D01*
X88589502Y-112244180D01*
X88625812Y-112124482D01*
X88638072Y-112000000D01*
X88638072Y-110737314D01*
X106332905Y-110737314D01*
X106332905Y-111262686D01*
X106435400Y-111777963D01*
X106636451Y-112263343D01*
X106928332Y-112700174D01*
X107299826Y-113071668D01*
X107736657Y-113363549D01*
X108222037Y-113564600D01*
X108737314Y-113667095D01*
X109262686Y-113667095D01*
X109777963Y-113564600D01*
X110263343Y-113363549D01*
X110700174Y-113071668D01*
X111071668Y-112700174D01*
X111363549Y-112263343D01*
X111564600Y-111777963D01*
X111667095Y-111262686D01*
X111667095Y-110737314D01*
X111564600Y-110222037D01*
X111363549Y-109736657D01*
X111071668Y-109299826D01*
X110700174Y-108928332D01*
X110263343Y-108636451D01*
X109777963Y-108435400D01*
X109262686Y-108332905D01*
X108737314Y-108332905D01*
X108222037Y-108435400D01*
X107736657Y-108636451D01*
X107299826Y-108928332D01*
X106928332Y-109299826D01*
X106636451Y-109736657D01*
X106435400Y-110222037D01*
X106332905Y-110737314D01*
X88638072Y-110737314D01*
X88638072Y-108000000D01*
X88625812Y-107875518D01*
X88589502Y-107755820D01*
X88538284Y-107660000D01*
X118461716Y-107660000D01*
X118410498Y-107755820D01*
G37*
%TD.AperFunction*%
%TD*%
M02*
