%TF.GenerationSoftware,KiCad,Pcbnew,5.1.12-84ad8e8a86~92~ubuntu20.04.1*%
%TF.CreationDate,2023-07-09T19:05:36+02:00*%
%TF.ProjectId,tp5000_charger,74703530-3030-45f6-9368-61726765722e,rev?*%
%TF.SameCoordinates,Original*%
%TF.FileFunction,Legend,Top*%
%TF.FilePolarity,Positive*%
%FSLAX46Y46*%
G04 Gerber Fmt 4.6, Leading zero omitted, Abs format (unit mm)*
G04 Created by KiCad (PCBNEW 5.1.12-84ad8e8a86~92~ubuntu20.04.1) date 2023-07-09 19:05:36*
%MOMM*%
%LPD*%
G01*
G04 APERTURE LIST*
%ADD10C,0.150000*%
%ADD11C,0.120000*%
G04 APERTURE END LIST*
D10*
X91250000Y-125071428D02*
X91392857Y-125214285D01*
X91250000Y-125357142D01*
X91107142Y-125214285D01*
X91250000Y-125071428D01*
X91250000Y-125357142D01*
X110702380Y-128964285D02*
X110702380Y-128773809D01*
X110750000Y-128678571D01*
X110845238Y-128583333D01*
X111035714Y-128535714D01*
X111369047Y-128535714D01*
X111559523Y-128583333D01*
X111654761Y-128678571D01*
X111702380Y-128773809D01*
X111702380Y-128964285D01*
X111654761Y-129059523D01*
X111559523Y-129154761D01*
X111369047Y-129202380D01*
X111035714Y-129202380D01*
X110845238Y-129154761D01*
X110750000Y-129059523D01*
X110702380Y-128964285D01*
X111321428Y-128107142D02*
X111321428Y-127345238D01*
X111178571Y-124547619D02*
X111226190Y-124404761D01*
X111273809Y-124357142D01*
X111369047Y-124309523D01*
X111511904Y-124309523D01*
X111607142Y-124357142D01*
X111654761Y-124404761D01*
X111702380Y-124500000D01*
X111702380Y-124880952D01*
X110702380Y-124880952D01*
X110702380Y-124547619D01*
X110750000Y-124452380D01*
X110797619Y-124404761D01*
X110892857Y-124357142D01*
X110988095Y-124357142D01*
X111083333Y-124404761D01*
X111130952Y-124452380D01*
X111178571Y-124547619D01*
X111178571Y-124880952D01*
X111321428Y-123880952D02*
X111321428Y-123119047D01*
X92250000Y-118678571D02*
X92107142Y-118535714D01*
X92250000Y-118392857D01*
X92392857Y-118535714D01*
X92250000Y-118678571D01*
X92250000Y-118392857D01*
X104750000Y-110071428D02*
X104892857Y-110214285D01*
X104750000Y-110357142D01*
X104607142Y-110214285D01*
X104750000Y-110071428D01*
X104750000Y-110357142D01*
X97750000Y-110071428D02*
X97892857Y-110214285D01*
X97750000Y-110357142D01*
X97607142Y-110214285D01*
X97750000Y-110071428D01*
X97750000Y-110357142D01*
X100952380Y-116785714D02*
X100476190Y-117119047D01*
X100952380Y-117357142D02*
X99952380Y-117357142D01*
X99952380Y-116976190D01*
X100000000Y-116880952D01*
X100047619Y-116833333D01*
X100142857Y-116785714D01*
X100285714Y-116785714D01*
X100380952Y-116833333D01*
X100428571Y-116880952D01*
X100476190Y-116976190D01*
X100476190Y-117357142D01*
X100904761Y-116404761D02*
X100952380Y-116309523D01*
X100952380Y-116119047D01*
X100904761Y-116023809D01*
X100809523Y-115976190D01*
X100761904Y-115976190D01*
X100666666Y-116023809D01*
X100619047Y-116119047D01*
X100619047Y-116261904D01*
X100571428Y-116357142D01*
X100476190Y-116404761D01*
X100428571Y-116404761D01*
X100333333Y-116357142D01*
X100285714Y-116261904D01*
X100285714Y-116119047D01*
X100333333Y-116023809D01*
X100904761Y-115166666D02*
X100952380Y-115261904D01*
X100952380Y-115452380D01*
X100904761Y-115547619D01*
X100809523Y-115595238D01*
X100428571Y-115595238D01*
X100333333Y-115547619D01*
X100285714Y-115452380D01*
X100285714Y-115261904D01*
X100333333Y-115166666D01*
X100428571Y-115119047D01*
X100523809Y-115119047D01*
X100619047Y-115595238D01*
X100952380Y-114547619D02*
X100904761Y-114642857D01*
X100809523Y-114690476D01*
X99952380Y-114690476D01*
X101202380Y-122678571D02*
X100726190Y-123011904D01*
X101202380Y-123250000D02*
X100202380Y-123250000D01*
X100202380Y-122869047D01*
X100250000Y-122773809D01*
X100297619Y-122726190D01*
X100392857Y-122678571D01*
X100535714Y-122678571D01*
X100630952Y-122726190D01*
X100678571Y-122773809D01*
X100726190Y-122869047D01*
X100726190Y-123250000D01*
X101202380Y-122250000D02*
X100535714Y-122250000D01*
X100202380Y-122250000D02*
X100250000Y-122297619D01*
X100297619Y-122250000D01*
X100250000Y-122202380D01*
X100202380Y-122250000D01*
X100297619Y-122250000D01*
X110702380Y-114214285D02*
X110702380Y-114023809D01*
X110750000Y-113928571D01*
X110845238Y-113833333D01*
X111035714Y-113785714D01*
X111369047Y-113785714D01*
X111559523Y-113833333D01*
X111654761Y-113928571D01*
X111702380Y-114023809D01*
X111702380Y-114214285D01*
X111654761Y-114309523D01*
X111559523Y-114404761D01*
X111369047Y-114452380D01*
X111035714Y-114452380D01*
X110845238Y-114404761D01*
X110750000Y-114309523D01*
X110702380Y-114214285D01*
X111321428Y-113357142D02*
X111321428Y-112595238D01*
X111702380Y-112976190D02*
X110940476Y-112976190D01*
X111178571Y-118047619D02*
X111226190Y-117904761D01*
X111273809Y-117857142D01*
X111369047Y-117809523D01*
X111511904Y-117809523D01*
X111607142Y-117857142D01*
X111654761Y-117904761D01*
X111702380Y-118000000D01*
X111702380Y-118380952D01*
X110702380Y-118380952D01*
X110702380Y-118047619D01*
X110750000Y-117952380D01*
X110797619Y-117904761D01*
X110892857Y-117857142D01*
X110988095Y-117857142D01*
X111083333Y-117904761D01*
X111130952Y-117952380D01*
X111178571Y-118047619D01*
X111178571Y-118380952D01*
X111321428Y-117380952D02*
X111321428Y-116619047D01*
X111702380Y-117000000D02*
X110940476Y-117000000D01*
X92000000Y-116678571D02*
X91857142Y-116535714D01*
X92000000Y-116392857D01*
X92142857Y-116535714D01*
X92000000Y-116678571D01*
X92000000Y-116392857D01*
X103750000Y-126571428D02*
X103892857Y-126714285D01*
X103750000Y-126857142D01*
X103607142Y-126714285D01*
X103750000Y-126571428D01*
X103750000Y-126857142D01*
X109000000Y-112571428D02*
X109142857Y-112714285D01*
X109000000Y-112857142D01*
X108857142Y-112714285D01*
X109000000Y-112571428D01*
X109000000Y-112857142D01*
D11*
%TO.C,J2*%
X112300000Y-127050000D02*
X115200000Y-127050000D01*
X115200000Y-127050000D02*
X115200000Y-129950000D01*
X115200000Y-129950000D02*
X112300000Y-129950000D01*
X112300000Y-129950000D02*
X112300000Y-127050000D01*
%TO.C,J6*%
X112300000Y-122800000D02*
X115200000Y-122800000D01*
X115200000Y-122800000D02*
X115200000Y-125700000D01*
X115200000Y-125700000D02*
X112300000Y-125700000D01*
X112300000Y-125700000D02*
X112300000Y-122800000D01*
%TO.C,J7*%
X87920000Y-116530000D02*
X86120000Y-116530000D01*
X82410000Y-116530000D02*
X83870000Y-116530000D01*
X82410000Y-125470000D02*
X83870000Y-125470000D01*
X87920000Y-125470000D02*
X86120000Y-125470000D01*
X82410000Y-125470000D02*
X82410000Y-116530000D01*
%TO.C,R5*%
X98639564Y-116735000D02*
X98185436Y-116735000D01*
X98639564Y-115265000D02*
X98185436Y-115265000D01*
%TO.C,D2*%
X100437500Y-110290000D02*
X97752500Y-110290000D01*
X97752500Y-110290000D02*
X97752500Y-112210000D01*
X97752500Y-112210000D02*
X100437500Y-112210000D01*
%TO.C,D3*%
X104747500Y-110290000D02*
X102062500Y-110290000D01*
X104747500Y-112210000D02*
X104747500Y-110290000D01*
X102062500Y-112210000D02*
X104747500Y-112210000D01*
%TO.C,D1*%
X94900000Y-124100000D02*
X94900000Y-129500000D01*
X91600000Y-124100000D02*
X91600000Y-129500000D01*
X94900000Y-124100000D02*
X91600000Y-124100000D01*
%TO.C,R1*%
X103410000Y-124027064D02*
X103410000Y-122572936D01*
X101590000Y-124027064D02*
X101590000Y-122572936D01*
%TO.C,U1*%
X93365000Y-118140000D02*
X92640000Y-118140000D01*
X96860000Y-122360000D02*
X96860000Y-121635000D01*
X96135000Y-122360000D02*
X96860000Y-122360000D01*
X92640000Y-122360000D02*
X92640000Y-121635000D01*
X93365000Y-122360000D02*
X92640000Y-122360000D01*
X96860000Y-118140000D02*
X96860000Y-118865000D01*
X96135000Y-118140000D02*
X96860000Y-118140000D01*
%TO.C,U2*%
X106340000Y-117200000D02*
X106340000Y-119650000D01*
X109560000Y-119000000D02*
X109560000Y-117200000D01*
%TO.C,U3*%
X109610000Y-124862500D02*
X109610000Y-121262500D01*
X109610000Y-124862500D02*
X109610000Y-127062500D01*
X106390000Y-124862500D02*
X106390000Y-122662500D01*
X106390000Y-124862500D02*
X106390000Y-127062500D01*
%TO.C,C1*%
X91290000Y-116185000D02*
X95200000Y-116185000D01*
X91290000Y-114315000D02*
X91290000Y-116185000D01*
X95200000Y-114315000D02*
X91290000Y-114315000D01*
%TO.C,C2*%
X100235000Y-120061252D02*
X100235000Y-119538748D01*
X98765000Y-120061252D02*
X98765000Y-119538748D01*
%TO.C,C3*%
X103435000Y-129950000D02*
X103435000Y-126040000D01*
X103435000Y-126040000D02*
X101565000Y-126040000D01*
X101565000Y-126040000D02*
X101565000Y-129950000D01*
%TO.C,C4*%
X105735000Y-122188748D02*
X105735000Y-122711252D01*
X104265000Y-122188748D02*
X104265000Y-122711252D01*
%TO.C,C5*%
X109460000Y-113065000D02*
X105550000Y-113065000D01*
X109460000Y-114935000D02*
X109460000Y-113065000D01*
X105550000Y-114935000D02*
X109460000Y-114935000D01*
%TO.C,J1*%
X89800000Y-113200000D02*
X89800000Y-110300000D01*
X92700000Y-113200000D02*
X89800000Y-113200000D01*
X92700000Y-110300000D02*
X92700000Y-113200000D01*
X89800000Y-110300000D02*
X92700000Y-110300000D01*
%TO.C,J3*%
X112300000Y-112050000D02*
X115200000Y-112050000D01*
X115200000Y-112050000D02*
X115200000Y-114950000D01*
X115200000Y-114950000D02*
X112300000Y-114950000D01*
X112300000Y-114950000D02*
X112300000Y-112050000D01*
%TO.C,J4*%
X93800000Y-113200000D02*
X93800000Y-110300000D01*
X96700000Y-113200000D02*
X93800000Y-113200000D01*
X96700000Y-110300000D02*
X96700000Y-113200000D01*
X93800000Y-110300000D02*
X96700000Y-110300000D01*
%TO.C,J5*%
X112300000Y-119200000D02*
X112300000Y-116300000D01*
X115200000Y-119200000D02*
X112300000Y-119200000D01*
X115200000Y-116300000D02*
X115200000Y-119200000D01*
X112300000Y-116300000D02*
X115200000Y-116300000D01*
%TO.C,L1*%
X95750000Y-128800000D02*
X100850000Y-128800000D01*
X95750000Y-123700000D02*
X100850000Y-123700000D01*
%TO.C,R2*%
X99564564Y-112765000D02*
X99110436Y-112765000D01*
X99564564Y-114235000D02*
X99110436Y-114235000D01*
%TO.C,R3*%
X104389564Y-117485000D02*
X103935436Y-117485000D01*
X104389564Y-116015000D02*
X103935436Y-116015000D01*
%TO.C,R4*%
X103935436Y-120235000D02*
X104389564Y-120235000D01*
X103935436Y-118765000D02*
X104389564Y-118765000D01*
%TD*%
M02*
