%TF.GenerationSoftware,KiCad,Pcbnew,5.1.12-84ad8e8a86~92~ubuntu20.04.1*%
%TF.CreationDate,2023-03-19T01:12:36+01:00*%
%TF.ProjectId,tp5000_charger,74703530-3030-45f6-9368-61726765722e,rev?*%
%TF.SameCoordinates,Original*%
%TF.FileFunction,Copper,L1,Top*%
%TF.FilePolarity,Positive*%
%FSLAX46Y46*%
G04 Gerber Fmt 4.6, Leading zero omitted, Abs format (unit mm)*
G04 Created by KiCad (PCBNEW 5.1.12-84ad8e8a86~92~ubuntu20.04.1) date 2023-03-19 01:12:36*
%MOMM*%
%LPD*%
G01*
G04 APERTURE LIST*
%TA.AperFunction,ComponentPad*%
%ADD10R,2.500000X2.500000*%
%TD*%
%TA.AperFunction,ComponentPad*%
%ADD11C,4.700000*%
%TD*%
%TA.AperFunction,ComponentPad*%
%ADD12O,2.000000X0.900000*%
%TD*%
%TA.AperFunction,ComponentPad*%
%ADD13O,1.700000X0.900000*%
%TD*%
%TA.AperFunction,SMDPad,CuDef*%
%ADD14R,1.160000X0.300000*%
%TD*%
%TA.AperFunction,SMDPad,CuDef*%
%ADD15R,1.160000X0.600000*%
%TD*%
%TA.AperFunction,SMDPad,CuDef*%
%ADD16R,1.800000X2.500000*%
%TD*%
%TA.AperFunction,SMDPad,CuDef*%
%ADD17R,2.100000X2.100000*%
%TD*%
%TA.AperFunction,SMDPad,CuDef*%
%ADD18R,0.650000X1.060000*%
%TD*%
%TA.AperFunction,SMDPad,CuDef*%
%ADD19R,1.500000X4.200000*%
%TD*%
%TA.AperFunction,ViaPad*%
%ADD20C,0.800000*%
%TD*%
%TA.AperFunction,Conductor*%
%ADD21C,0.500000*%
%TD*%
%TA.AperFunction,Conductor*%
%ADD22C,0.250000*%
%TD*%
%TA.AperFunction,Conductor*%
%ADD23C,0.400000*%
%TD*%
G04 APERTURE END LIST*
D10*
%TO.P,J2,1*%
%TO.N,GND*%
X113750000Y-128500000D03*
%TD*%
%TO.P,J6,1*%
%TO.N,B-*%
X113750000Y-124250000D03*
%TD*%
D11*
%TO.P,H2,1*%
%TO.N,GND*%
X86250000Y-129500000D03*
%TD*%
D12*
%TO.P,J7,S1*%
%TO.N,GND*%
X89180000Y-116680000D03*
X89180000Y-125320000D03*
D13*
X85010000Y-116680000D03*
X85010000Y-125320000D03*
D14*
%TO.P,J7,B7*%
%TO.N,Net-(J7-PadB6)*%
X89760000Y-120250000D03*
%TO.P,J7,A6*%
%TO.N,Net-(J7-PadA6)*%
X89760000Y-120750000D03*
%TO.P,J7,A7*%
X89760000Y-121250000D03*
%TO.P,J7,B8*%
%TO.N,Net-(J7-PadB8)*%
X89760000Y-119250000D03*
%TO.P,J7,A5*%
%TO.N,Net-(J7-PadA5)*%
X89760000Y-119750000D03*
%TO.P,J7,A8*%
%TO.N,Net-(J7-PadA8)*%
X89760000Y-122250000D03*
%TO.P,J7,B6*%
%TO.N,Net-(J7-PadB6)*%
X89760000Y-121750000D03*
%TO.P,J7,B5*%
%TO.N,Net-(J7-PadB5)*%
X89760000Y-122750000D03*
D15*
%TO.P,J7,A4*%
%TO.N,VIN*%
X89760000Y-118600000D03*
%TO.P,J7,B9*%
X89760000Y-118600000D03*
%TO.P,J7,A1*%
%TO.N,GND*%
X89760000Y-117800000D03*
%TO.P,J7,B12*%
X89760000Y-117800000D03*
%TO.P,J7,B4*%
%TO.N,VIN*%
X89760000Y-123400000D03*
%TO.P,J7,B1*%
%TO.N,GND*%
X89760000Y-124200000D03*
%TO.P,J7,A9*%
%TO.N,VIN*%
X89760000Y-123400000D03*
%TO.P,J7,A12*%
%TO.N,GND*%
X89760000Y-124200000D03*
%TD*%
%TO.P,R5,2*%
%TO.N,VIN*%
%TA.AperFunction,SMDPad,CuDef*%
G36*
G01*
X98012500Y-115549999D02*
X98012500Y-116450001D01*
G75*
G02*
X97762501Y-116700000I-249999J0D01*
G01*
X97237499Y-116700000D01*
G75*
G02*
X96987500Y-116450001I0J249999D01*
G01*
X96987500Y-115549999D01*
G75*
G02*
X97237499Y-115300000I249999J0D01*
G01*
X97762501Y-115300000D01*
G75*
G02*
X98012500Y-115549999I0J-249999D01*
G01*
G37*
%TD.AperFunction*%
%TO.P,R5,1*%
%TO.N,Net-(R5-Pad1)*%
%TA.AperFunction,SMDPad,CuDef*%
G36*
G01*
X99837500Y-115549999D02*
X99837500Y-116450001D01*
G75*
G02*
X99587501Y-116700000I-249999J0D01*
G01*
X99062499Y-116700000D01*
G75*
G02*
X98812500Y-116450001I0J249999D01*
G01*
X98812500Y-115549999D01*
G75*
G02*
X99062499Y-115300000I249999J0D01*
G01*
X99587501Y-115300000D01*
G75*
G02*
X99837500Y-115549999I0J-249999D01*
G01*
G37*
%TD.AperFunction*%
%TD*%
%TO.P,D2,2*%
%TO.N,Net-(D2-Pad2)*%
%TA.AperFunction,SMDPad,CuDef*%
G36*
G01*
X99887500Y-111706250D02*
X99887500Y-110793750D01*
G75*
G02*
X100131250Y-110550000I243750J0D01*
G01*
X100618750Y-110550000D01*
G75*
G02*
X100862500Y-110793750I0J-243750D01*
G01*
X100862500Y-111706250D01*
G75*
G02*
X100618750Y-111950000I-243750J0D01*
G01*
X100131250Y-111950000D01*
G75*
G02*
X99887500Y-111706250I0J243750D01*
G01*
G37*
%TD.AperFunction*%
%TO.P,D2,1*%
%TO.N,Net-(D2-Pad1)*%
%TA.AperFunction,SMDPad,CuDef*%
G36*
G01*
X98012500Y-111706250D02*
X98012500Y-110793750D01*
G75*
G02*
X98256250Y-110550000I243750J0D01*
G01*
X98743750Y-110550000D01*
G75*
G02*
X98987500Y-110793750I0J-243750D01*
G01*
X98987500Y-111706250D01*
G75*
G02*
X98743750Y-111950000I-243750J0D01*
G01*
X98256250Y-111950000D01*
G75*
G02*
X98012500Y-111706250I0J243750D01*
G01*
G37*
%TD.AperFunction*%
%TD*%
%TO.P,D3,1*%
%TO.N,Net-(D3-Pad1)*%
%TA.AperFunction,SMDPad,CuDef*%
G36*
G01*
X104487500Y-110793750D02*
X104487500Y-111706250D01*
G75*
G02*
X104243750Y-111950000I-243750J0D01*
G01*
X103756250Y-111950000D01*
G75*
G02*
X103512500Y-111706250I0J243750D01*
G01*
X103512500Y-110793750D01*
G75*
G02*
X103756250Y-110550000I243750J0D01*
G01*
X104243750Y-110550000D01*
G75*
G02*
X104487500Y-110793750I0J-243750D01*
G01*
G37*
%TD.AperFunction*%
%TO.P,D3,2*%
%TO.N,Net-(D2-Pad2)*%
%TA.AperFunction,SMDPad,CuDef*%
G36*
G01*
X102612500Y-110793750D02*
X102612500Y-111706250D01*
G75*
G02*
X102368750Y-111950000I-243750J0D01*
G01*
X101881250Y-111950000D01*
G75*
G02*
X101637500Y-111706250I0J243750D01*
G01*
X101637500Y-110793750D01*
G75*
G02*
X101881250Y-110550000I243750J0D01*
G01*
X102368750Y-110550000D01*
G75*
G02*
X102612500Y-110793750I0J-243750D01*
G01*
G37*
%TD.AperFunction*%
%TD*%
D16*
%TO.P,D1,1*%
%TO.N,Net-(D1-Pad1)*%
X93250000Y-125500000D03*
%TO.P,D1,2*%
%TO.N,GND*%
X93250000Y-129500000D03*
%TD*%
%TO.P,R1,1*%
%TO.N,Net-(C3-Pad1)*%
%TA.AperFunction,SMDPad,CuDef*%
G36*
G01*
X103125001Y-125500000D02*
X101874999Y-125500000D01*
G75*
G02*
X101625000Y-125250001I0J249999D01*
G01*
X101625000Y-124449999D01*
G75*
G02*
X101874999Y-124200000I249999J0D01*
G01*
X103125001Y-124200000D01*
G75*
G02*
X103375000Y-124449999I0J-249999D01*
G01*
X103375000Y-125250001D01*
G75*
G02*
X103125001Y-125500000I-249999J0D01*
G01*
G37*
%TD.AperFunction*%
%TO.P,R1,2*%
%TO.N,B+*%
%TA.AperFunction,SMDPad,CuDef*%
G36*
G01*
X103125001Y-122400000D02*
X101874999Y-122400000D01*
G75*
G02*
X101625000Y-122150001I0J249999D01*
G01*
X101625000Y-121349999D01*
G75*
G02*
X101874999Y-121100000I249999J0D01*
G01*
X103125001Y-121100000D01*
G75*
G02*
X103375000Y-121349999I0J-249999D01*
G01*
X103375000Y-122150001D01*
G75*
G02*
X103125001Y-122400000I-249999J0D01*
G01*
G37*
%TD.AperFunction*%
%TD*%
%TO.P,U1,1*%
%TO.N,VIN*%
%TA.AperFunction,SMDPad,CuDef*%
G36*
G01*
X92375000Y-119350000D02*
X92375000Y-119200000D01*
G75*
G02*
X92450000Y-119125000I75000J0D01*
G01*
X93150000Y-119125000D01*
G75*
G02*
X93225000Y-119200000I0J-75000D01*
G01*
X93225000Y-119350000D01*
G75*
G02*
X93150000Y-119425000I-75000J0D01*
G01*
X92450000Y-119425000D01*
G75*
G02*
X92375000Y-119350000I0J75000D01*
G01*
G37*
%TD.AperFunction*%
%TO.P,U1,2*%
%TA.AperFunction,SMDPad,CuDef*%
G36*
G01*
X92375000Y-120000000D02*
X92375000Y-119850000D01*
G75*
G02*
X92450000Y-119775000I75000J0D01*
G01*
X93150000Y-119775000D01*
G75*
G02*
X93225000Y-119850000I0J-75000D01*
G01*
X93225000Y-120000000D01*
G75*
G02*
X93150000Y-120075000I-75000J0D01*
G01*
X92450000Y-120075000D01*
G75*
G02*
X92375000Y-120000000I0J75000D01*
G01*
G37*
%TD.AperFunction*%
%TO.P,U1,3*%
%TO.N,Net-(D1-Pad1)*%
%TA.AperFunction,SMDPad,CuDef*%
G36*
G01*
X92375000Y-120650000D02*
X92375000Y-120500000D01*
G75*
G02*
X92450000Y-120425000I75000J0D01*
G01*
X93150000Y-120425000D01*
G75*
G02*
X93225000Y-120500000I0J-75000D01*
G01*
X93225000Y-120650000D01*
G75*
G02*
X93150000Y-120725000I-75000J0D01*
G01*
X92450000Y-120725000D01*
G75*
G02*
X92375000Y-120650000I0J75000D01*
G01*
G37*
%TD.AperFunction*%
%TO.P,U1,4*%
%TA.AperFunction,SMDPad,CuDef*%
G36*
G01*
X92375000Y-121300000D02*
X92375000Y-121150000D01*
G75*
G02*
X92450000Y-121075000I75000J0D01*
G01*
X93150000Y-121075000D01*
G75*
G02*
X93225000Y-121150000I0J-75000D01*
G01*
X93225000Y-121300000D01*
G75*
G02*
X93150000Y-121375000I-75000J0D01*
G01*
X92450000Y-121375000D01*
G75*
G02*
X92375000Y-121300000I0J75000D01*
G01*
G37*
%TD.AperFunction*%
%TO.P,U1,5*%
%TA.AperFunction,SMDPad,CuDef*%
G36*
G01*
X93625000Y-122550000D02*
X93625000Y-121850000D01*
G75*
G02*
X93700000Y-121775000I75000J0D01*
G01*
X93850000Y-121775000D01*
G75*
G02*
X93925000Y-121850000I0J-75000D01*
G01*
X93925000Y-122550000D01*
G75*
G02*
X93850000Y-122625000I-75000J0D01*
G01*
X93700000Y-122625000D01*
G75*
G02*
X93625000Y-122550000I0J75000D01*
G01*
G37*
%TD.AperFunction*%
%TO.P,U1,6*%
%TO.N,GND*%
%TA.AperFunction,SMDPad,CuDef*%
G36*
G01*
X94275000Y-122550000D02*
X94275000Y-121850000D01*
G75*
G02*
X94350000Y-121775000I75000J0D01*
G01*
X94500000Y-121775000D01*
G75*
G02*
X94575000Y-121850000I0J-75000D01*
G01*
X94575000Y-122550000D01*
G75*
G02*
X94500000Y-122625000I-75000J0D01*
G01*
X94350000Y-122625000D01*
G75*
G02*
X94275000Y-122550000I0J75000D01*
G01*
G37*
%TD.AperFunction*%
%TO.P,U1,7*%
%TA.AperFunction,SMDPad,CuDef*%
G36*
G01*
X94925000Y-122550000D02*
X94925000Y-121850000D01*
G75*
G02*
X95000000Y-121775000I75000J0D01*
G01*
X95150000Y-121775000D01*
G75*
G02*
X95225000Y-121850000I0J-75000D01*
G01*
X95225000Y-122550000D01*
G75*
G02*
X95150000Y-122625000I-75000J0D01*
G01*
X95000000Y-122625000D01*
G75*
G02*
X94925000Y-122550000I0J75000D01*
G01*
G37*
%TD.AperFunction*%
%TO.P,U1,8*%
%TO.N,Net-(C3-Pad1)*%
%TA.AperFunction,SMDPad,CuDef*%
G36*
G01*
X95575000Y-122550000D02*
X95575000Y-121850000D01*
G75*
G02*
X95650000Y-121775000I75000J0D01*
G01*
X95800000Y-121775000D01*
G75*
G02*
X95875000Y-121850000I0J-75000D01*
G01*
X95875000Y-122550000D01*
G75*
G02*
X95800000Y-122625000I-75000J0D01*
G01*
X95650000Y-122625000D01*
G75*
G02*
X95575000Y-122550000I0J75000D01*
G01*
G37*
%TD.AperFunction*%
%TO.P,U1,9*%
%TO.N,B+*%
%TA.AperFunction,SMDPad,CuDef*%
G36*
G01*
X96275000Y-121300000D02*
X96275000Y-121150000D01*
G75*
G02*
X96350000Y-121075000I75000J0D01*
G01*
X97050000Y-121075000D01*
G75*
G02*
X97125000Y-121150000I0J-75000D01*
G01*
X97125000Y-121300000D01*
G75*
G02*
X97050000Y-121375000I-75000J0D01*
G01*
X96350000Y-121375000D01*
G75*
G02*
X96275000Y-121300000I0J75000D01*
G01*
G37*
%TD.AperFunction*%
%TO.P,U1,10*%
%TO.N,Net-(C2-Pad1)*%
%TA.AperFunction,SMDPad,CuDef*%
G36*
G01*
X96275000Y-120650000D02*
X96275000Y-120500000D01*
G75*
G02*
X96350000Y-120425000I75000J0D01*
G01*
X97050000Y-120425000D01*
G75*
G02*
X97125000Y-120500000I0J-75000D01*
G01*
X97125000Y-120650000D01*
G75*
G02*
X97050000Y-120725000I-75000J0D01*
G01*
X96350000Y-120725000D01*
G75*
G02*
X96275000Y-120650000I0J75000D01*
G01*
G37*
%TD.AperFunction*%
%TO.P,U1,11*%
%TO.N,GND*%
%TA.AperFunction,SMDPad,CuDef*%
G36*
G01*
X96275000Y-120000000D02*
X96275000Y-119850000D01*
G75*
G02*
X96350000Y-119775000I75000J0D01*
G01*
X97050000Y-119775000D01*
G75*
G02*
X97125000Y-119850000I0J-75000D01*
G01*
X97125000Y-120000000D01*
G75*
G02*
X97050000Y-120075000I-75000J0D01*
G01*
X96350000Y-120075000D01*
G75*
G02*
X96275000Y-120000000I0J75000D01*
G01*
G37*
%TD.AperFunction*%
%TO.P,U1,12*%
%TA.AperFunction,SMDPad,CuDef*%
G36*
G01*
X96275000Y-119350000D02*
X96275000Y-119200000D01*
G75*
G02*
X96350000Y-119125000I75000J0D01*
G01*
X97050000Y-119125000D01*
G75*
G02*
X97125000Y-119200000I0J-75000D01*
G01*
X97125000Y-119350000D01*
G75*
G02*
X97050000Y-119425000I-75000J0D01*
G01*
X96350000Y-119425000D01*
G75*
G02*
X96275000Y-119350000I0J75000D01*
G01*
G37*
%TD.AperFunction*%
%TO.P,U1,13*%
%TO.N,Net-(R5-Pad1)*%
%TA.AperFunction,SMDPad,CuDef*%
G36*
G01*
X95575000Y-118650000D02*
X95575000Y-117950000D01*
G75*
G02*
X95650000Y-117875000I75000J0D01*
G01*
X95800000Y-117875000D01*
G75*
G02*
X95875000Y-117950000I0J-75000D01*
G01*
X95875000Y-118650000D01*
G75*
G02*
X95800000Y-118725000I-75000J0D01*
G01*
X95650000Y-118725000D01*
G75*
G02*
X95575000Y-118650000I0J75000D01*
G01*
G37*
%TD.AperFunction*%
%TO.P,U1,14*%
%TO.N,Net-(D3-Pad1)*%
%TA.AperFunction,SMDPad,CuDef*%
G36*
G01*
X94925000Y-118650000D02*
X94925000Y-117950000D01*
G75*
G02*
X95000000Y-117875000I75000J0D01*
G01*
X95150000Y-117875000D01*
G75*
G02*
X95225000Y-117950000I0J-75000D01*
G01*
X95225000Y-118650000D01*
G75*
G02*
X95150000Y-118725000I-75000J0D01*
G01*
X95000000Y-118725000D01*
G75*
G02*
X94925000Y-118650000I0J75000D01*
G01*
G37*
%TD.AperFunction*%
%TO.P,U1,15*%
%TO.N,Net-(D2-Pad1)*%
%TA.AperFunction,SMDPad,CuDef*%
G36*
G01*
X94275000Y-118650000D02*
X94275000Y-117950000D01*
G75*
G02*
X94350000Y-117875000I75000J0D01*
G01*
X94500000Y-117875000D01*
G75*
G02*
X94575000Y-117950000I0J-75000D01*
G01*
X94575000Y-118650000D01*
G75*
G02*
X94500000Y-118725000I-75000J0D01*
G01*
X94350000Y-118725000D01*
G75*
G02*
X94275000Y-118650000I0J75000D01*
G01*
G37*
%TD.AperFunction*%
%TO.P,U1,16*%
%TO.N,VIN*%
%TA.AperFunction,SMDPad,CuDef*%
G36*
G01*
X93625000Y-118650000D02*
X93625000Y-117950000D01*
G75*
G02*
X93700000Y-117875000I75000J0D01*
G01*
X93850000Y-117875000D01*
G75*
G02*
X93925000Y-117950000I0J-75000D01*
G01*
X93925000Y-118650000D01*
G75*
G02*
X93850000Y-118725000I-75000J0D01*
G01*
X93700000Y-118725000D01*
G75*
G02*
X93625000Y-118650000I0J75000D01*
G01*
G37*
%TD.AperFunction*%
D17*
%TO.P,U1,17*%
%TO.N,N/C*%
X94750000Y-120250000D03*
%TD*%
D18*
%TO.P,U2,1*%
%TO.N,Net-(U2-Pad1)*%
X107000000Y-119200000D03*
%TO.P,U2,2*%
%TO.N,Net-(R3-Pad1)*%
X107950000Y-119200000D03*
%TO.P,U2,3*%
%TO.N,Net-(U2-Pad3)*%
X108900000Y-119200000D03*
%TO.P,U2,4*%
%TO.N,Net-(U2-Pad4)*%
X108900000Y-117000000D03*
%TO.P,U2,6*%
%TO.N,B-*%
X107000000Y-117000000D03*
%TO.P,U2,5*%
%TO.N,Net-(C4-Pad1)*%
X107950000Y-117000000D03*
%TD*%
%TO.P,U3,1*%
%TO.N,Net-(U3-Pad1)*%
%TA.AperFunction,SMDPad,CuDef*%
G36*
G01*
X108875000Y-121262500D02*
X109075000Y-121262500D01*
G75*
G02*
X109175000Y-121362500I0J-100000D01*
G01*
X109175000Y-122637500D01*
G75*
G02*
X109075000Y-122737500I-100000J0D01*
G01*
X108875000Y-122737500D01*
G75*
G02*
X108775000Y-122637500I0J100000D01*
G01*
X108775000Y-121362500D01*
G75*
G02*
X108875000Y-121262500I100000J0D01*
G01*
G37*
%TD.AperFunction*%
%TO.P,U3,2*%
%TO.N,B-*%
%TA.AperFunction,SMDPad,CuDef*%
G36*
G01*
X108225000Y-121262500D02*
X108425000Y-121262500D01*
G75*
G02*
X108525000Y-121362500I0J-100000D01*
G01*
X108525000Y-122637500D01*
G75*
G02*
X108425000Y-122737500I-100000J0D01*
G01*
X108225000Y-122737500D01*
G75*
G02*
X108125000Y-122637500I0J100000D01*
G01*
X108125000Y-121362500D01*
G75*
G02*
X108225000Y-121262500I100000J0D01*
G01*
G37*
%TD.AperFunction*%
%TO.P,U3,3*%
%TA.AperFunction,SMDPad,CuDef*%
G36*
G01*
X107575000Y-121262500D02*
X107775000Y-121262500D01*
G75*
G02*
X107875000Y-121362500I0J-100000D01*
G01*
X107875000Y-122637500D01*
G75*
G02*
X107775000Y-122737500I-100000J0D01*
G01*
X107575000Y-122737500D01*
G75*
G02*
X107475000Y-122637500I0J100000D01*
G01*
X107475000Y-121362500D01*
G75*
G02*
X107575000Y-121262500I100000J0D01*
G01*
G37*
%TD.AperFunction*%
%TO.P,U3,4*%
%TO.N,Net-(U2-Pad1)*%
%TA.AperFunction,SMDPad,CuDef*%
G36*
G01*
X106925000Y-121262500D02*
X107125000Y-121262500D01*
G75*
G02*
X107225000Y-121362500I0J-100000D01*
G01*
X107225000Y-122637500D01*
G75*
G02*
X107125000Y-122737500I-100000J0D01*
G01*
X106925000Y-122737500D01*
G75*
G02*
X106825000Y-122637500I0J100000D01*
G01*
X106825000Y-121362500D01*
G75*
G02*
X106925000Y-121262500I100000J0D01*
G01*
G37*
%TD.AperFunction*%
%TO.P,U3,5*%
%TO.N,Net-(U2-Pad3)*%
%TA.AperFunction,SMDPad,CuDef*%
G36*
G01*
X106925000Y-126987500D02*
X107125000Y-126987500D01*
G75*
G02*
X107225000Y-127087500I0J-100000D01*
G01*
X107225000Y-128362500D01*
G75*
G02*
X107125000Y-128462500I-100000J0D01*
G01*
X106925000Y-128462500D01*
G75*
G02*
X106825000Y-128362500I0J100000D01*
G01*
X106825000Y-127087500D01*
G75*
G02*
X106925000Y-126987500I100000J0D01*
G01*
G37*
%TD.AperFunction*%
%TO.P,U3,6*%
%TO.N,GND*%
%TA.AperFunction,SMDPad,CuDef*%
G36*
G01*
X107575000Y-126987500D02*
X107775000Y-126987500D01*
G75*
G02*
X107875000Y-127087500I0J-100000D01*
G01*
X107875000Y-128362500D01*
G75*
G02*
X107775000Y-128462500I-100000J0D01*
G01*
X107575000Y-128462500D01*
G75*
G02*
X107475000Y-128362500I0J100000D01*
G01*
X107475000Y-127087500D01*
G75*
G02*
X107575000Y-126987500I100000J0D01*
G01*
G37*
%TD.AperFunction*%
%TO.P,U3,7*%
%TA.AperFunction,SMDPad,CuDef*%
G36*
G01*
X108225000Y-126987500D02*
X108425000Y-126987500D01*
G75*
G02*
X108525000Y-127087500I0J-100000D01*
G01*
X108525000Y-128362500D01*
G75*
G02*
X108425000Y-128462500I-100000J0D01*
G01*
X108225000Y-128462500D01*
G75*
G02*
X108125000Y-128362500I0J100000D01*
G01*
X108125000Y-127087500D01*
G75*
G02*
X108225000Y-126987500I100000J0D01*
G01*
G37*
%TD.AperFunction*%
%TO.P,U3,8*%
%TO.N,Net-(U3-Pad8)*%
%TA.AperFunction,SMDPad,CuDef*%
G36*
G01*
X108875000Y-126987500D02*
X109075000Y-126987500D01*
G75*
G02*
X109175000Y-127087500I0J-100000D01*
G01*
X109175000Y-128362500D01*
G75*
G02*
X109075000Y-128462500I-100000J0D01*
G01*
X108875000Y-128462500D01*
G75*
G02*
X108775000Y-128362500I0J100000D01*
G01*
X108775000Y-127087500D01*
G75*
G02*
X108875000Y-126987500I100000J0D01*
G01*
G37*
%TD.AperFunction*%
%TD*%
%TO.P,C1,1*%
%TO.N,VIN*%
%TA.AperFunction,SMDPad,CuDef*%
G36*
G01*
X91550000Y-115675001D02*
X91550000Y-114824999D01*
G75*
G02*
X91799999Y-114575000I249999J0D01*
G01*
X92700001Y-114575000D01*
G75*
G02*
X92950000Y-114824999I0J-249999D01*
G01*
X92950000Y-115675001D01*
G75*
G02*
X92700001Y-115925000I-249999J0D01*
G01*
X91799999Y-115925000D01*
G75*
G02*
X91550000Y-115675001I0J249999D01*
G01*
G37*
%TD.AperFunction*%
%TO.P,C1,2*%
%TO.N,GND*%
%TA.AperFunction,SMDPad,CuDef*%
G36*
G01*
X94250000Y-115675001D02*
X94250000Y-114824999D01*
G75*
G02*
X94499999Y-114575000I249999J0D01*
G01*
X95400001Y-114575000D01*
G75*
G02*
X95650000Y-114824999I0J-249999D01*
G01*
X95650000Y-115675001D01*
G75*
G02*
X95400001Y-115925000I-249999J0D01*
G01*
X94499999Y-115925000D01*
G75*
G02*
X94250000Y-115675001I0J249999D01*
G01*
G37*
%TD.AperFunction*%
%TD*%
%TO.P,C2,1*%
%TO.N,Net-(C2-Pad1)*%
%TA.AperFunction,SMDPad,CuDef*%
G36*
G01*
X99975000Y-121250000D02*
X99025000Y-121250000D01*
G75*
G02*
X98775000Y-121000000I0J250000D01*
G01*
X98775000Y-120500000D01*
G75*
G02*
X99025000Y-120250000I250000J0D01*
G01*
X99975000Y-120250000D01*
G75*
G02*
X100225000Y-120500000I0J-250000D01*
G01*
X100225000Y-121000000D01*
G75*
G02*
X99975000Y-121250000I-250000J0D01*
G01*
G37*
%TD.AperFunction*%
%TO.P,C2,2*%
%TO.N,GND*%
%TA.AperFunction,SMDPad,CuDef*%
G36*
G01*
X99975000Y-119350000D02*
X99025000Y-119350000D01*
G75*
G02*
X98775000Y-119100000I0J250000D01*
G01*
X98775000Y-118600000D01*
G75*
G02*
X99025000Y-118350000I250000J0D01*
G01*
X99975000Y-118350000D01*
G75*
G02*
X100225000Y-118600000I0J-250000D01*
G01*
X100225000Y-119100000D01*
G75*
G02*
X99975000Y-119350000I-250000J0D01*
G01*
G37*
%TD.AperFunction*%
%TD*%
%TO.P,C3,2*%
%TO.N,GND*%
%TA.AperFunction,SMDPad,CuDef*%
G36*
G01*
X102074999Y-129000000D02*
X102925001Y-129000000D01*
G75*
G02*
X103175000Y-129249999I0J-249999D01*
G01*
X103175000Y-130150001D01*
G75*
G02*
X102925001Y-130400000I-249999J0D01*
G01*
X102074999Y-130400000D01*
G75*
G02*
X101825000Y-130150001I0J249999D01*
G01*
X101825000Y-129249999D01*
G75*
G02*
X102074999Y-129000000I249999J0D01*
G01*
G37*
%TD.AperFunction*%
%TO.P,C3,1*%
%TO.N,Net-(C3-Pad1)*%
%TA.AperFunction,SMDPad,CuDef*%
G36*
G01*
X102074999Y-126300000D02*
X102925001Y-126300000D01*
G75*
G02*
X103175000Y-126549999I0J-249999D01*
G01*
X103175000Y-127450001D01*
G75*
G02*
X102925001Y-127700000I-249999J0D01*
G01*
X102074999Y-127700000D01*
G75*
G02*
X101825000Y-127450001I0J249999D01*
G01*
X101825000Y-126549999D01*
G75*
G02*
X102074999Y-126300000I249999J0D01*
G01*
G37*
%TD.AperFunction*%
%TD*%
%TO.P,C4,2*%
%TO.N,B-*%
%TA.AperFunction,SMDPad,CuDef*%
G36*
G01*
X104525000Y-122900000D02*
X105475000Y-122900000D01*
G75*
G02*
X105725000Y-123150000I0J-250000D01*
G01*
X105725000Y-123650000D01*
G75*
G02*
X105475000Y-123900000I-250000J0D01*
G01*
X104525000Y-123900000D01*
G75*
G02*
X104275000Y-123650000I0J250000D01*
G01*
X104275000Y-123150000D01*
G75*
G02*
X104525000Y-122900000I250000J0D01*
G01*
G37*
%TD.AperFunction*%
%TO.P,C4,1*%
%TO.N,Net-(C4-Pad1)*%
%TA.AperFunction,SMDPad,CuDef*%
G36*
G01*
X104525000Y-121000000D02*
X105475000Y-121000000D01*
G75*
G02*
X105725000Y-121250000I0J-250000D01*
G01*
X105725000Y-121750000D01*
G75*
G02*
X105475000Y-122000000I-250000J0D01*
G01*
X104525000Y-122000000D01*
G75*
G02*
X104275000Y-121750000I0J250000D01*
G01*
X104275000Y-121250000D01*
G75*
G02*
X104525000Y-121000000I250000J0D01*
G01*
G37*
%TD.AperFunction*%
%TD*%
%TO.P,C5,1*%
%TO.N,B+*%
%TA.AperFunction,SMDPad,CuDef*%
G36*
G01*
X109200000Y-113574999D02*
X109200000Y-114425001D01*
G75*
G02*
X108950001Y-114675000I-249999J0D01*
G01*
X108049999Y-114675000D01*
G75*
G02*
X107800000Y-114425001I0J249999D01*
G01*
X107800000Y-113574999D01*
G75*
G02*
X108049999Y-113325000I249999J0D01*
G01*
X108950001Y-113325000D01*
G75*
G02*
X109200000Y-113574999I0J-249999D01*
G01*
G37*
%TD.AperFunction*%
%TO.P,C5,2*%
%TO.N,GND*%
%TA.AperFunction,SMDPad,CuDef*%
G36*
G01*
X106500000Y-113574999D02*
X106500000Y-114425001D01*
G75*
G02*
X106250001Y-114675000I-249999J0D01*
G01*
X105349999Y-114675000D01*
G75*
G02*
X105100000Y-114425001I0J249999D01*
G01*
X105100000Y-113574999D01*
G75*
G02*
X105349999Y-113325000I249999J0D01*
G01*
X106250001Y-113325000D01*
G75*
G02*
X106500000Y-113574999I0J-249999D01*
G01*
G37*
%TD.AperFunction*%
%TD*%
D11*
%TO.P,H1,1*%
%TO.N,GND*%
X86250000Y-112500000D03*
%TD*%
D10*
%TO.P,J1,1*%
%TO.N,VIN*%
X91250000Y-111750000D03*
%TD*%
%TO.P,J3,1*%
%TO.N,B+*%
X113750000Y-113500000D03*
%TD*%
%TO.P,J4,1*%
%TO.N,GND*%
X95250000Y-111750000D03*
%TD*%
%TO.P,J5,1*%
%TO.N,B+*%
X113750000Y-117750000D03*
%TD*%
D19*
%TO.P,L1,1*%
%TO.N,Net-(D1-Pad1)*%
X96500000Y-126250000D03*
%TO.P,L1,2*%
%TO.N,Net-(C3-Pad1)*%
X100100000Y-126250000D03*
%TD*%
%TO.P,R2,1*%
%TO.N,Net-(D2-Pad2)*%
%TA.AperFunction,SMDPad,CuDef*%
G36*
G01*
X100762500Y-113049999D02*
X100762500Y-113950001D01*
G75*
G02*
X100512501Y-114200000I-249999J0D01*
G01*
X99987499Y-114200000D01*
G75*
G02*
X99737500Y-113950001I0J249999D01*
G01*
X99737500Y-113049999D01*
G75*
G02*
X99987499Y-112800000I249999J0D01*
G01*
X100512501Y-112800000D01*
G75*
G02*
X100762500Y-113049999I0J-249999D01*
G01*
G37*
%TD.AperFunction*%
%TO.P,R2,2*%
%TO.N,VIN*%
%TA.AperFunction,SMDPad,CuDef*%
G36*
G01*
X98937500Y-113049999D02*
X98937500Y-113950001D01*
G75*
G02*
X98687501Y-114200000I-249999J0D01*
G01*
X98162499Y-114200000D01*
G75*
G02*
X97912500Y-113950001I0J249999D01*
G01*
X97912500Y-113049999D01*
G75*
G02*
X98162499Y-112800000I249999J0D01*
G01*
X98687501Y-112800000D01*
G75*
G02*
X98937500Y-113049999I0J-249999D01*
G01*
G37*
%TD.AperFunction*%
%TD*%
%TO.P,R3,2*%
%TO.N,GND*%
%TA.AperFunction,SMDPad,CuDef*%
G36*
G01*
X103762500Y-116299999D02*
X103762500Y-117200001D01*
G75*
G02*
X103512501Y-117450000I-249999J0D01*
G01*
X102987499Y-117450000D01*
G75*
G02*
X102737500Y-117200001I0J249999D01*
G01*
X102737500Y-116299999D01*
G75*
G02*
X102987499Y-116050000I249999J0D01*
G01*
X103512501Y-116050000D01*
G75*
G02*
X103762500Y-116299999I0J-249999D01*
G01*
G37*
%TD.AperFunction*%
%TO.P,R3,1*%
%TO.N,Net-(R3-Pad1)*%
%TA.AperFunction,SMDPad,CuDef*%
G36*
G01*
X105587500Y-116299999D02*
X105587500Y-117200001D01*
G75*
G02*
X105337501Y-117450000I-249999J0D01*
G01*
X104812499Y-117450000D01*
G75*
G02*
X104562500Y-117200001I0J249999D01*
G01*
X104562500Y-116299999D01*
G75*
G02*
X104812499Y-116050000I249999J0D01*
G01*
X105337501Y-116050000D01*
G75*
G02*
X105587500Y-116299999I0J-249999D01*
G01*
G37*
%TD.AperFunction*%
%TD*%
%TO.P,R4,1*%
%TO.N,B+*%
%TA.AperFunction,SMDPad,CuDef*%
G36*
G01*
X102737500Y-119950001D02*
X102737500Y-119049999D01*
G75*
G02*
X102987499Y-118800000I249999J0D01*
G01*
X103512501Y-118800000D01*
G75*
G02*
X103762500Y-119049999I0J-249999D01*
G01*
X103762500Y-119950001D01*
G75*
G02*
X103512501Y-120200000I-249999J0D01*
G01*
X102987499Y-120200000D01*
G75*
G02*
X102737500Y-119950001I0J249999D01*
G01*
G37*
%TD.AperFunction*%
%TO.P,R4,2*%
%TO.N,Net-(C4-Pad1)*%
%TA.AperFunction,SMDPad,CuDef*%
G36*
G01*
X104562500Y-119950001D02*
X104562500Y-119049999D01*
G75*
G02*
X104812499Y-118800000I249999J0D01*
G01*
X105337501Y-118800000D01*
G75*
G02*
X105587500Y-119049999I0J-249999D01*
G01*
X105587500Y-119950001D01*
G75*
G02*
X105337501Y-120200000I-249999J0D01*
G01*
X104812499Y-120200000D01*
G75*
G02*
X104562500Y-119950001I0J249999D01*
G01*
G37*
%TD.AperFunction*%
%TD*%
D20*
%TO.N,GND*%
X95000000Y-116650000D03*
X93250000Y-131500000D03*
X102500000Y-131250000D03*
X108500000Y-129250000D03*
X107500000Y-129250000D03*
X94750000Y-123500000D03*
X98000000Y-119500000D03*
X99500000Y-117500000D03*
X103250000Y-115250000D03*
X104500000Y-114000000D03*
X90900000Y-117768794D03*
X91000000Y-124250000D03*
%TO.N,Net-(C4-Pad1)*%
X105250000Y-118250000D03*
X108000000Y-115500000D03*
%TO.N,Net-(D2-Pad1)*%
X94001285Y-116700723D03*
X97250000Y-111250000D03*
%TO.N,Net-(U2-Pad3)*%
X108750000Y-120500000D03*
X107000000Y-125750000D03*
%TD*%
D21*
%TO.N,VIN*%
X91375000Y-119625000D02*
X91750000Y-119250000D01*
D22*
X91775000Y-119275000D02*
X91750000Y-119250000D01*
X92800000Y-119275000D02*
X91775000Y-119275000D01*
X91425000Y-119925000D02*
X91375000Y-119875000D01*
D21*
X91375000Y-119875000D02*
X91375000Y-119625000D01*
D22*
X93775000Y-118300000D02*
X93775000Y-117775000D01*
X93500000Y-117500000D02*
X91750000Y-117500000D01*
X93775000Y-117775000D02*
X93500000Y-117500000D01*
D21*
X91750000Y-119250000D02*
X91750000Y-119750000D01*
X91750000Y-119750000D02*
X91575000Y-119925000D01*
D22*
X91575000Y-119925000D02*
X91425000Y-119925000D01*
X92800000Y-119925000D02*
X91575000Y-119925000D01*
D21*
X92250000Y-115250000D02*
X92250000Y-116350001D01*
X91850001Y-117399999D02*
X91750000Y-117500000D01*
X91850001Y-116750000D02*
X91850001Y-117399999D01*
X92250000Y-116350001D02*
X91850001Y-116750000D01*
X92250000Y-115250000D02*
X92250000Y-114750000D01*
X91250000Y-113750000D02*
X91250000Y-111750000D01*
X92250000Y-114750000D02*
X91250000Y-113750000D01*
X93500000Y-113500000D02*
X98425000Y-113500000D01*
X92250000Y-114750000D02*
X93500000Y-113500000D01*
X98425000Y-113500000D02*
X98425000Y-113825000D01*
X97500000Y-114750000D02*
X97500000Y-116000000D01*
X98425000Y-113825000D02*
X97500000Y-114750000D01*
X91649999Y-118649999D02*
X91750000Y-118750000D01*
X90199999Y-118649999D02*
X91649999Y-118649999D01*
X89760000Y-118600000D02*
X90150000Y-118600000D01*
X91750000Y-118750000D02*
X91750000Y-117500000D01*
X90150000Y-118600000D02*
X90199999Y-118649999D01*
X91750000Y-119250000D02*
X91750000Y-118750000D01*
X91375000Y-122675002D02*
X91375000Y-120125000D01*
X91375000Y-120125000D02*
X91575000Y-119925000D01*
X90650002Y-123400000D02*
X91375000Y-122675002D01*
X89760000Y-123400000D02*
X90650002Y-123400000D01*
%TO.N,GND*%
X94950000Y-116600000D02*
X95000000Y-116650000D01*
X94950000Y-115250000D02*
X94950000Y-116600000D01*
X93250000Y-129500000D02*
X93250000Y-131500000D01*
D22*
X107675000Y-129075000D02*
X107500000Y-129250000D01*
X107675000Y-127725000D02*
X107675000Y-129075000D01*
X108325000Y-129075000D02*
X108500000Y-129250000D01*
X108325000Y-127725000D02*
X108325000Y-129075000D01*
X97575000Y-119925000D02*
X98000000Y-119500000D01*
X96700000Y-119925000D02*
X97575000Y-119925000D01*
X97775000Y-119275000D02*
X98000000Y-119500000D01*
X96700000Y-119275000D02*
X97775000Y-119275000D01*
X94425000Y-123175000D02*
X94750000Y-123500000D01*
X94425000Y-122200000D02*
X94425000Y-123175000D01*
X95075000Y-123175000D02*
X94750000Y-123500000D01*
X95075000Y-122200000D02*
X95075000Y-123175000D01*
D21*
X105800000Y-114000000D02*
X104500000Y-114000000D01*
X103250000Y-116750000D02*
X103250000Y-115250000D01*
X99500000Y-118850000D02*
X99500000Y-117500000D01*
X90868794Y-117800000D02*
X90900000Y-117768794D01*
X89760000Y-117800000D02*
X90868794Y-117800000D01*
X90950000Y-124200000D02*
X91000000Y-124250000D01*
X89760000Y-124200000D02*
X90950000Y-124200000D01*
D22*
%TO.N,Net-(C2-Pad1)*%
X99325000Y-120575000D02*
X99500000Y-120750000D01*
X96700000Y-120575000D02*
X99325000Y-120575000D01*
%TO.N,Net-(C3-Pad1)*%
X95725000Y-122200000D02*
X95725000Y-122975000D01*
X95725000Y-122975000D02*
X96000000Y-123250000D01*
X96000000Y-123250000D02*
X99250000Y-123250000D01*
X100100000Y-124100000D02*
X100100000Y-126250000D01*
X99250000Y-123250000D02*
X100100000Y-124100000D01*
D21*
X100100000Y-126250000D02*
X100750000Y-126250000D01*
X101500000Y-127000000D02*
X102500000Y-127000000D01*
X100750000Y-126250000D02*
X101500000Y-127000000D01*
X102500000Y-127000000D02*
X102500000Y-124850000D01*
%TO.N,B-*%
X105000000Y-123400000D02*
X107350000Y-123400000D01*
D22*
X107675000Y-123325000D02*
X107600000Y-123400000D01*
X107675000Y-122000000D02*
X107675000Y-123325000D01*
D21*
X107600000Y-123400000D02*
X107350000Y-123400000D01*
X108150000Y-123400000D02*
X107600000Y-123400000D01*
D22*
X108325000Y-122000000D02*
X108325000Y-123375000D01*
D21*
X108350000Y-123400000D02*
X108150000Y-123400000D01*
D22*
X108325000Y-123375000D02*
X108350000Y-123400000D01*
D21*
X109900000Y-123400000D02*
X108350000Y-123400000D01*
D22*
X107075001Y-117855001D02*
X109605001Y-117855001D01*
X107000000Y-117780000D02*
X107075001Y-117855001D01*
X107000000Y-117000000D02*
X107000000Y-117780000D01*
X109873461Y-123373461D02*
X109900000Y-123400000D01*
X109873461Y-118123461D02*
X109873461Y-123373461D01*
X109605001Y-117855001D02*
X109873461Y-118123461D01*
D21*
X109873461Y-123373461D02*
X110623461Y-123373461D01*
X111500000Y-124250000D02*
X113750000Y-124250000D01*
X110623461Y-123373461D02*
X111500000Y-124250000D01*
%TO.N,Net-(C4-Pad1)*%
X105075000Y-121425000D02*
X105000000Y-121500000D01*
X105075000Y-119500000D02*
X105075000Y-121425000D01*
D22*
X105075000Y-118425000D02*
X105250000Y-118250000D01*
X105075000Y-119500000D02*
X105075000Y-118425000D01*
X108000000Y-116950000D02*
X107950000Y-117000000D01*
X108000000Y-115500000D02*
X108000000Y-116950000D01*
%TO.N,B+*%
X96700000Y-121225000D02*
X97475000Y-121225000D01*
X98000000Y-121750000D02*
X102500000Y-121750000D01*
X97475000Y-121225000D02*
X98000000Y-121750000D01*
D21*
X102500000Y-121750000D02*
X102500000Y-121250000D01*
X103250000Y-120500000D02*
X103250000Y-119500000D01*
X102500000Y-121250000D02*
X103250000Y-120500000D01*
X112750000Y-112500000D02*
X113750000Y-113500000D01*
X113750000Y-113500000D02*
X113750000Y-117750000D01*
D23*
X102337490Y-118587490D02*
X103250000Y-119500000D01*
X102337490Y-114978508D02*
X102337490Y-118587490D01*
X104391008Y-112924990D02*
X102337490Y-114978508D01*
X107424990Y-112924990D02*
X104391008Y-112924990D01*
X108500000Y-114000000D02*
X107424990Y-112924990D01*
D21*
X113250000Y-114000000D02*
X113750000Y-113500000D01*
X108500000Y-114000000D02*
X113250000Y-114000000D01*
%TO.N,Net-(D1-Pad1)*%
X93250000Y-125500000D02*
X93250000Y-123500000D01*
X93250000Y-123500000D02*
X93500000Y-123500000D01*
X93500000Y-123500000D02*
X93750000Y-123250000D01*
D23*
X92500000Y-123500000D02*
X92025010Y-123025010D01*
X93250000Y-123500000D02*
X92500000Y-123500000D01*
D22*
X92800000Y-120575000D02*
X92175000Y-120575000D01*
X92025010Y-120724990D02*
X92025010Y-121000000D01*
X92175000Y-120575000D02*
X92025010Y-120724990D01*
X92075020Y-121225000D02*
X92025010Y-121275010D01*
X92800000Y-121225000D02*
X92075020Y-121225000D01*
D23*
X92025010Y-121275010D02*
X92025010Y-121000000D01*
X92025010Y-123025010D02*
X92025010Y-121275010D01*
D22*
X93775000Y-123225000D02*
X93750000Y-123250000D01*
X93775000Y-122200000D02*
X93775000Y-123225000D01*
D21*
X93250000Y-125500000D02*
X94250000Y-125500000D01*
X95000000Y-126250000D02*
X96500000Y-126250000D01*
X94250000Y-125500000D02*
X95000000Y-126250000D01*
D22*
%TO.N,Net-(D2-Pad2)*%
X100250000Y-111375000D02*
X100375000Y-111250000D01*
X100250000Y-113500000D02*
X100250000Y-111375000D01*
X100375000Y-111250000D02*
X102125000Y-111250000D01*
%TO.N,Net-(D2-Pad1)*%
X94425000Y-117124438D02*
X94001285Y-116700723D01*
X94425000Y-118300000D02*
X94425000Y-117124438D01*
X97250000Y-111250000D02*
X98500000Y-111250000D01*
%TO.N,Net-(D3-Pad1)*%
X101424990Y-114525010D02*
X104000000Y-111950000D01*
X99274300Y-114525010D02*
X101424990Y-114525010D01*
X98487490Y-115311820D02*
X99274300Y-114525010D01*
X98487490Y-116538200D02*
X98487490Y-115311820D01*
X98000680Y-117025010D02*
X98487490Y-116538200D01*
X104000000Y-111950000D02*
X104000000Y-111250000D01*
X95838580Y-117025010D02*
X98000680Y-117025010D01*
X95075000Y-117788590D02*
X95838580Y-117025010D01*
X95075000Y-118300000D02*
X95075000Y-117788590D01*
%TO.N,Net-(R3-Pad1)*%
X107950000Y-118420000D02*
X107950000Y-119200000D01*
X107874999Y-118344999D02*
X107950000Y-118420000D01*
X106669999Y-118344999D02*
X107874999Y-118344999D01*
X105075000Y-116750000D02*
X106669999Y-118344999D01*
%TO.N,Net-(U2-Pad1)*%
X107000000Y-121975000D02*
X107025000Y-122000000D01*
X107000000Y-119200000D02*
X107000000Y-121975000D01*
%TO.N,Net-(U2-Pad3)*%
X108900000Y-120350000D02*
X108750000Y-120500000D01*
X108900000Y-119200000D02*
X108900000Y-120350000D01*
X107000000Y-127700000D02*
X107025000Y-127725000D01*
X107000000Y-125750000D02*
X107000000Y-127700000D01*
%TO.N,Net-(J7-PadB6)*%
X88930000Y-121750000D02*
X88750000Y-121570000D01*
X89760000Y-121750000D02*
X88930000Y-121750000D01*
X88944998Y-120250000D02*
X89760000Y-120250000D01*
X88750000Y-120444998D02*
X88944998Y-120250000D01*
X88750000Y-121570000D02*
X88750000Y-120444998D01*
%TO.N,Net-(J7-PadA6)*%
X89760000Y-121250000D02*
X90500000Y-121250000D01*
X90500000Y-121250000D02*
X90500000Y-120750000D01*
X90500000Y-120750000D02*
X89760000Y-120750000D01*
%TO.N,Net-(R5-Pad1)*%
X95725000Y-118300000D02*
X95725000Y-117775000D01*
X95725000Y-117775000D02*
X96000000Y-117500000D01*
X98426998Y-117500000D02*
X99176998Y-116750000D01*
X96000000Y-117500000D02*
X98426998Y-117500000D01*
X99176998Y-116148002D02*
X99325000Y-116000000D01*
X99176998Y-116750000D02*
X99176998Y-116148002D01*
%TD*%
M02*
