%TF.GenerationSoftware,KiCad,Pcbnew,5.1.12-84ad8e8a86~92~ubuntu20.04.1*%
%TF.CreationDate,2023-07-09T19:05:36+02:00*%
%TF.ProjectId,tp5000_charger,74703530-3030-45f6-9368-61726765722e,rev?*%
%TF.SameCoordinates,Original*%
%TF.FileFunction,Paste,Top*%
%TF.FilePolarity,Positive*%
%FSLAX46Y46*%
G04 Gerber Fmt 4.6, Leading zero omitted, Abs format (unit mm)*
G04 Created by KiCad (PCBNEW 5.1.12-84ad8e8a86~92~ubuntu20.04.1) date 2023-07-09 19:05:36*
%MOMM*%
%LPD*%
G01*
G04 APERTURE LIST*
%ADD10R,1.160000X0.300000*%
%ADD11R,1.160000X0.600000*%
%ADD12R,1.800000X2.500000*%
%ADD13R,0.650000X1.060000*%
%ADD14R,1.500000X4.200000*%
G04 APERTURE END LIST*
D10*
%TO.C,J7*%
X89760000Y-120250000D03*
X89760000Y-120750000D03*
X89760000Y-121250000D03*
X89760000Y-119250000D03*
X89760000Y-119750000D03*
X89760000Y-122250000D03*
X89760000Y-121750000D03*
X89760000Y-122750000D03*
D11*
X89760000Y-118600000D03*
X89760000Y-118600000D03*
X89760000Y-117800000D03*
X89760000Y-117800000D03*
X89760000Y-123400000D03*
X89760000Y-124200000D03*
X89760000Y-123400000D03*
X89760000Y-124200000D03*
%TD*%
%TO.C,R5*%
G36*
G01*
X98012500Y-115549999D02*
X98012500Y-116450001D01*
G75*
G02*
X97762501Y-116700000I-249999J0D01*
G01*
X97237499Y-116700000D01*
G75*
G02*
X96987500Y-116450001I0J249999D01*
G01*
X96987500Y-115549999D01*
G75*
G02*
X97237499Y-115300000I249999J0D01*
G01*
X97762501Y-115300000D01*
G75*
G02*
X98012500Y-115549999I0J-249999D01*
G01*
G37*
G36*
G01*
X99837500Y-115549999D02*
X99837500Y-116450001D01*
G75*
G02*
X99587501Y-116700000I-249999J0D01*
G01*
X99062499Y-116700000D01*
G75*
G02*
X98812500Y-116450001I0J249999D01*
G01*
X98812500Y-115549999D01*
G75*
G02*
X99062499Y-115300000I249999J0D01*
G01*
X99587501Y-115300000D01*
G75*
G02*
X99837500Y-115549999I0J-249999D01*
G01*
G37*
%TD*%
%TO.C,D2*%
G36*
G01*
X99887500Y-111706250D02*
X99887500Y-110793750D01*
G75*
G02*
X100131250Y-110550000I243750J0D01*
G01*
X100618750Y-110550000D01*
G75*
G02*
X100862500Y-110793750I0J-243750D01*
G01*
X100862500Y-111706250D01*
G75*
G02*
X100618750Y-111950000I-243750J0D01*
G01*
X100131250Y-111950000D01*
G75*
G02*
X99887500Y-111706250I0J243750D01*
G01*
G37*
G36*
G01*
X98012500Y-111706250D02*
X98012500Y-110793750D01*
G75*
G02*
X98256250Y-110550000I243750J0D01*
G01*
X98743750Y-110550000D01*
G75*
G02*
X98987500Y-110793750I0J-243750D01*
G01*
X98987500Y-111706250D01*
G75*
G02*
X98743750Y-111950000I-243750J0D01*
G01*
X98256250Y-111950000D01*
G75*
G02*
X98012500Y-111706250I0J243750D01*
G01*
G37*
%TD*%
%TO.C,D3*%
G36*
G01*
X104487500Y-110793750D02*
X104487500Y-111706250D01*
G75*
G02*
X104243750Y-111950000I-243750J0D01*
G01*
X103756250Y-111950000D01*
G75*
G02*
X103512500Y-111706250I0J243750D01*
G01*
X103512500Y-110793750D01*
G75*
G02*
X103756250Y-110550000I243750J0D01*
G01*
X104243750Y-110550000D01*
G75*
G02*
X104487500Y-110793750I0J-243750D01*
G01*
G37*
G36*
G01*
X102612500Y-110793750D02*
X102612500Y-111706250D01*
G75*
G02*
X102368750Y-111950000I-243750J0D01*
G01*
X101881250Y-111950000D01*
G75*
G02*
X101637500Y-111706250I0J243750D01*
G01*
X101637500Y-110793750D01*
G75*
G02*
X101881250Y-110550000I243750J0D01*
G01*
X102368750Y-110550000D01*
G75*
G02*
X102612500Y-110793750I0J-243750D01*
G01*
G37*
%TD*%
D12*
%TO.C,D1*%
X93250000Y-125500000D03*
X93250000Y-129500000D03*
%TD*%
%TO.C,R1*%
G36*
G01*
X103125001Y-125500000D02*
X101874999Y-125500000D01*
G75*
G02*
X101625000Y-125250001I0J249999D01*
G01*
X101625000Y-124449999D01*
G75*
G02*
X101874999Y-124200000I249999J0D01*
G01*
X103125001Y-124200000D01*
G75*
G02*
X103375000Y-124449999I0J-249999D01*
G01*
X103375000Y-125250001D01*
G75*
G02*
X103125001Y-125500000I-249999J0D01*
G01*
G37*
G36*
G01*
X103125001Y-122400000D02*
X101874999Y-122400000D01*
G75*
G02*
X101625000Y-122150001I0J249999D01*
G01*
X101625000Y-121349999D01*
G75*
G02*
X101874999Y-121100000I249999J0D01*
G01*
X103125001Y-121100000D01*
G75*
G02*
X103375000Y-121349999I0J-249999D01*
G01*
X103375000Y-122150001D01*
G75*
G02*
X103125001Y-122400000I-249999J0D01*
G01*
G37*
%TD*%
%TO.C,U1*%
G36*
G01*
X92375000Y-119350000D02*
X92375000Y-119200000D01*
G75*
G02*
X92450000Y-119125000I75000J0D01*
G01*
X93150000Y-119125000D01*
G75*
G02*
X93225000Y-119200000I0J-75000D01*
G01*
X93225000Y-119350000D01*
G75*
G02*
X93150000Y-119425000I-75000J0D01*
G01*
X92450000Y-119425000D01*
G75*
G02*
X92375000Y-119350000I0J75000D01*
G01*
G37*
G36*
G01*
X92375000Y-120000000D02*
X92375000Y-119850000D01*
G75*
G02*
X92450000Y-119775000I75000J0D01*
G01*
X93150000Y-119775000D01*
G75*
G02*
X93225000Y-119850000I0J-75000D01*
G01*
X93225000Y-120000000D01*
G75*
G02*
X93150000Y-120075000I-75000J0D01*
G01*
X92450000Y-120075000D01*
G75*
G02*
X92375000Y-120000000I0J75000D01*
G01*
G37*
G36*
G01*
X92375000Y-120650000D02*
X92375000Y-120500000D01*
G75*
G02*
X92450000Y-120425000I75000J0D01*
G01*
X93150000Y-120425000D01*
G75*
G02*
X93225000Y-120500000I0J-75000D01*
G01*
X93225000Y-120650000D01*
G75*
G02*
X93150000Y-120725000I-75000J0D01*
G01*
X92450000Y-120725000D01*
G75*
G02*
X92375000Y-120650000I0J75000D01*
G01*
G37*
G36*
G01*
X92375000Y-121300000D02*
X92375000Y-121150000D01*
G75*
G02*
X92450000Y-121075000I75000J0D01*
G01*
X93150000Y-121075000D01*
G75*
G02*
X93225000Y-121150000I0J-75000D01*
G01*
X93225000Y-121300000D01*
G75*
G02*
X93150000Y-121375000I-75000J0D01*
G01*
X92450000Y-121375000D01*
G75*
G02*
X92375000Y-121300000I0J75000D01*
G01*
G37*
G36*
G01*
X93625000Y-122550000D02*
X93625000Y-121850000D01*
G75*
G02*
X93700000Y-121775000I75000J0D01*
G01*
X93850000Y-121775000D01*
G75*
G02*
X93925000Y-121850000I0J-75000D01*
G01*
X93925000Y-122550000D01*
G75*
G02*
X93850000Y-122625000I-75000J0D01*
G01*
X93700000Y-122625000D01*
G75*
G02*
X93625000Y-122550000I0J75000D01*
G01*
G37*
G36*
G01*
X94275000Y-122550000D02*
X94275000Y-121850000D01*
G75*
G02*
X94350000Y-121775000I75000J0D01*
G01*
X94500000Y-121775000D01*
G75*
G02*
X94575000Y-121850000I0J-75000D01*
G01*
X94575000Y-122550000D01*
G75*
G02*
X94500000Y-122625000I-75000J0D01*
G01*
X94350000Y-122625000D01*
G75*
G02*
X94275000Y-122550000I0J75000D01*
G01*
G37*
G36*
G01*
X94925000Y-122550000D02*
X94925000Y-121850000D01*
G75*
G02*
X95000000Y-121775000I75000J0D01*
G01*
X95150000Y-121775000D01*
G75*
G02*
X95225000Y-121850000I0J-75000D01*
G01*
X95225000Y-122550000D01*
G75*
G02*
X95150000Y-122625000I-75000J0D01*
G01*
X95000000Y-122625000D01*
G75*
G02*
X94925000Y-122550000I0J75000D01*
G01*
G37*
G36*
G01*
X95575000Y-122550000D02*
X95575000Y-121850000D01*
G75*
G02*
X95650000Y-121775000I75000J0D01*
G01*
X95800000Y-121775000D01*
G75*
G02*
X95875000Y-121850000I0J-75000D01*
G01*
X95875000Y-122550000D01*
G75*
G02*
X95800000Y-122625000I-75000J0D01*
G01*
X95650000Y-122625000D01*
G75*
G02*
X95575000Y-122550000I0J75000D01*
G01*
G37*
G36*
G01*
X96275000Y-121300000D02*
X96275000Y-121150000D01*
G75*
G02*
X96350000Y-121075000I75000J0D01*
G01*
X97050000Y-121075000D01*
G75*
G02*
X97125000Y-121150000I0J-75000D01*
G01*
X97125000Y-121300000D01*
G75*
G02*
X97050000Y-121375000I-75000J0D01*
G01*
X96350000Y-121375000D01*
G75*
G02*
X96275000Y-121300000I0J75000D01*
G01*
G37*
G36*
G01*
X96275000Y-120650000D02*
X96275000Y-120500000D01*
G75*
G02*
X96350000Y-120425000I75000J0D01*
G01*
X97050000Y-120425000D01*
G75*
G02*
X97125000Y-120500000I0J-75000D01*
G01*
X97125000Y-120650000D01*
G75*
G02*
X97050000Y-120725000I-75000J0D01*
G01*
X96350000Y-120725000D01*
G75*
G02*
X96275000Y-120650000I0J75000D01*
G01*
G37*
G36*
G01*
X96275000Y-120000000D02*
X96275000Y-119850000D01*
G75*
G02*
X96350000Y-119775000I75000J0D01*
G01*
X97050000Y-119775000D01*
G75*
G02*
X97125000Y-119850000I0J-75000D01*
G01*
X97125000Y-120000000D01*
G75*
G02*
X97050000Y-120075000I-75000J0D01*
G01*
X96350000Y-120075000D01*
G75*
G02*
X96275000Y-120000000I0J75000D01*
G01*
G37*
G36*
G01*
X96275000Y-119350000D02*
X96275000Y-119200000D01*
G75*
G02*
X96350000Y-119125000I75000J0D01*
G01*
X97050000Y-119125000D01*
G75*
G02*
X97125000Y-119200000I0J-75000D01*
G01*
X97125000Y-119350000D01*
G75*
G02*
X97050000Y-119425000I-75000J0D01*
G01*
X96350000Y-119425000D01*
G75*
G02*
X96275000Y-119350000I0J75000D01*
G01*
G37*
G36*
G01*
X95575000Y-118650000D02*
X95575000Y-117950000D01*
G75*
G02*
X95650000Y-117875000I75000J0D01*
G01*
X95800000Y-117875000D01*
G75*
G02*
X95875000Y-117950000I0J-75000D01*
G01*
X95875000Y-118650000D01*
G75*
G02*
X95800000Y-118725000I-75000J0D01*
G01*
X95650000Y-118725000D01*
G75*
G02*
X95575000Y-118650000I0J75000D01*
G01*
G37*
G36*
G01*
X94925000Y-118650000D02*
X94925000Y-117950000D01*
G75*
G02*
X95000000Y-117875000I75000J0D01*
G01*
X95150000Y-117875000D01*
G75*
G02*
X95225000Y-117950000I0J-75000D01*
G01*
X95225000Y-118650000D01*
G75*
G02*
X95150000Y-118725000I-75000J0D01*
G01*
X95000000Y-118725000D01*
G75*
G02*
X94925000Y-118650000I0J75000D01*
G01*
G37*
G36*
G01*
X94275000Y-118650000D02*
X94275000Y-117950000D01*
G75*
G02*
X94350000Y-117875000I75000J0D01*
G01*
X94500000Y-117875000D01*
G75*
G02*
X94575000Y-117950000I0J-75000D01*
G01*
X94575000Y-118650000D01*
G75*
G02*
X94500000Y-118725000I-75000J0D01*
G01*
X94350000Y-118725000D01*
G75*
G02*
X94275000Y-118650000I0J75000D01*
G01*
G37*
G36*
G01*
X93625000Y-118650000D02*
X93625000Y-117950000D01*
G75*
G02*
X93700000Y-117875000I75000J0D01*
G01*
X93850000Y-117875000D01*
G75*
G02*
X93925000Y-117950000I0J-75000D01*
G01*
X93925000Y-118650000D01*
G75*
G02*
X93850000Y-118725000I-75000J0D01*
G01*
X93700000Y-118725000D01*
G75*
G02*
X93625000Y-118650000I0J75000D01*
G01*
G37*
G36*
G01*
X93800000Y-119937500D02*
X93800000Y-119512500D01*
G75*
G02*
X94012500Y-119300000I212500J0D01*
G01*
X94437500Y-119300000D01*
G75*
G02*
X94650000Y-119512500I0J-212500D01*
G01*
X94650000Y-119937500D01*
G75*
G02*
X94437500Y-120150000I-212500J0D01*
G01*
X94012500Y-120150000D01*
G75*
G02*
X93800000Y-119937500I0J212500D01*
G01*
G37*
G36*
G01*
X93800000Y-120987500D02*
X93800000Y-120562500D01*
G75*
G02*
X94012500Y-120350000I212500J0D01*
G01*
X94437500Y-120350000D01*
G75*
G02*
X94650000Y-120562500I0J-212500D01*
G01*
X94650000Y-120987500D01*
G75*
G02*
X94437500Y-121200000I-212500J0D01*
G01*
X94012500Y-121200000D01*
G75*
G02*
X93800000Y-120987500I0J212500D01*
G01*
G37*
G36*
G01*
X94850000Y-119937500D02*
X94850000Y-119512500D01*
G75*
G02*
X95062500Y-119300000I212500J0D01*
G01*
X95487500Y-119300000D01*
G75*
G02*
X95700000Y-119512500I0J-212500D01*
G01*
X95700000Y-119937500D01*
G75*
G02*
X95487500Y-120150000I-212500J0D01*
G01*
X95062500Y-120150000D01*
G75*
G02*
X94850000Y-119937500I0J212500D01*
G01*
G37*
G36*
G01*
X94850000Y-120987500D02*
X94850000Y-120562500D01*
G75*
G02*
X95062500Y-120350000I212500J0D01*
G01*
X95487500Y-120350000D01*
G75*
G02*
X95700000Y-120562500I0J-212500D01*
G01*
X95700000Y-120987500D01*
G75*
G02*
X95487500Y-121200000I-212500J0D01*
G01*
X95062500Y-121200000D01*
G75*
G02*
X94850000Y-120987500I0J212500D01*
G01*
G37*
%TD*%
D13*
%TO.C,U2*%
X107000000Y-119200000D03*
X107950000Y-119200000D03*
X108900000Y-119200000D03*
X108900000Y-117000000D03*
X107000000Y-117000000D03*
X107950000Y-117000000D03*
%TD*%
%TO.C,U3*%
G36*
G01*
X108875000Y-121262500D02*
X109075000Y-121262500D01*
G75*
G02*
X109175000Y-121362500I0J-100000D01*
G01*
X109175000Y-122637500D01*
G75*
G02*
X109075000Y-122737500I-100000J0D01*
G01*
X108875000Y-122737500D01*
G75*
G02*
X108775000Y-122637500I0J100000D01*
G01*
X108775000Y-121362500D01*
G75*
G02*
X108875000Y-121262500I100000J0D01*
G01*
G37*
G36*
G01*
X108225000Y-121262500D02*
X108425000Y-121262500D01*
G75*
G02*
X108525000Y-121362500I0J-100000D01*
G01*
X108525000Y-122637500D01*
G75*
G02*
X108425000Y-122737500I-100000J0D01*
G01*
X108225000Y-122737500D01*
G75*
G02*
X108125000Y-122637500I0J100000D01*
G01*
X108125000Y-121362500D01*
G75*
G02*
X108225000Y-121262500I100000J0D01*
G01*
G37*
G36*
G01*
X107575000Y-121262500D02*
X107775000Y-121262500D01*
G75*
G02*
X107875000Y-121362500I0J-100000D01*
G01*
X107875000Y-122637500D01*
G75*
G02*
X107775000Y-122737500I-100000J0D01*
G01*
X107575000Y-122737500D01*
G75*
G02*
X107475000Y-122637500I0J100000D01*
G01*
X107475000Y-121362500D01*
G75*
G02*
X107575000Y-121262500I100000J0D01*
G01*
G37*
G36*
G01*
X106925000Y-121262500D02*
X107125000Y-121262500D01*
G75*
G02*
X107225000Y-121362500I0J-100000D01*
G01*
X107225000Y-122637500D01*
G75*
G02*
X107125000Y-122737500I-100000J0D01*
G01*
X106925000Y-122737500D01*
G75*
G02*
X106825000Y-122637500I0J100000D01*
G01*
X106825000Y-121362500D01*
G75*
G02*
X106925000Y-121262500I100000J0D01*
G01*
G37*
G36*
G01*
X106925000Y-126987500D02*
X107125000Y-126987500D01*
G75*
G02*
X107225000Y-127087500I0J-100000D01*
G01*
X107225000Y-128362500D01*
G75*
G02*
X107125000Y-128462500I-100000J0D01*
G01*
X106925000Y-128462500D01*
G75*
G02*
X106825000Y-128362500I0J100000D01*
G01*
X106825000Y-127087500D01*
G75*
G02*
X106925000Y-126987500I100000J0D01*
G01*
G37*
G36*
G01*
X107575000Y-126987500D02*
X107775000Y-126987500D01*
G75*
G02*
X107875000Y-127087500I0J-100000D01*
G01*
X107875000Y-128362500D01*
G75*
G02*
X107775000Y-128462500I-100000J0D01*
G01*
X107575000Y-128462500D01*
G75*
G02*
X107475000Y-128362500I0J100000D01*
G01*
X107475000Y-127087500D01*
G75*
G02*
X107575000Y-126987500I100000J0D01*
G01*
G37*
G36*
G01*
X108225000Y-126987500D02*
X108425000Y-126987500D01*
G75*
G02*
X108525000Y-127087500I0J-100000D01*
G01*
X108525000Y-128362500D01*
G75*
G02*
X108425000Y-128462500I-100000J0D01*
G01*
X108225000Y-128462500D01*
G75*
G02*
X108125000Y-128362500I0J100000D01*
G01*
X108125000Y-127087500D01*
G75*
G02*
X108225000Y-126987500I100000J0D01*
G01*
G37*
G36*
G01*
X108875000Y-126987500D02*
X109075000Y-126987500D01*
G75*
G02*
X109175000Y-127087500I0J-100000D01*
G01*
X109175000Y-128362500D01*
G75*
G02*
X109075000Y-128462500I-100000J0D01*
G01*
X108875000Y-128462500D01*
G75*
G02*
X108775000Y-128362500I0J100000D01*
G01*
X108775000Y-127087500D01*
G75*
G02*
X108875000Y-126987500I100000J0D01*
G01*
G37*
%TD*%
%TO.C,C1*%
G36*
G01*
X91550000Y-115675001D02*
X91550000Y-114824999D01*
G75*
G02*
X91799999Y-114575000I249999J0D01*
G01*
X92700001Y-114575000D01*
G75*
G02*
X92950000Y-114824999I0J-249999D01*
G01*
X92950000Y-115675001D01*
G75*
G02*
X92700001Y-115925000I-249999J0D01*
G01*
X91799999Y-115925000D01*
G75*
G02*
X91550000Y-115675001I0J249999D01*
G01*
G37*
G36*
G01*
X94250000Y-115675001D02*
X94250000Y-114824999D01*
G75*
G02*
X94499999Y-114575000I249999J0D01*
G01*
X95400001Y-114575000D01*
G75*
G02*
X95650000Y-114824999I0J-249999D01*
G01*
X95650000Y-115675001D01*
G75*
G02*
X95400001Y-115925000I-249999J0D01*
G01*
X94499999Y-115925000D01*
G75*
G02*
X94250000Y-115675001I0J249999D01*
G01*
G37*
%TD*%
%TO.C,C2*%
G36*
G01*
X99975000Y-121250000D02*
X99025000Y-121250000D01*
G75*
G02*
X98775000Y-121000000I0J250000D01*
G01*
X98775000Y-120500000D01*
G75*
G02*
X99025000Y-120250000I250000J0D01*
G01*
X99975000Y-120250000D01*
G75*
G02*
X100225000Y-120500000I0J-250000D01*
G01*
X100225000Y-121000000D01*
G75*
G02*
X99975000Y-121250000I-250000J0D01*
G01*
G37*
G36*
G01*
X99975000Y-119350000D02*
X99025000Y-119350000D01*
G75*
G02*
X98775000Y-119100000I0J250000D01*
G01*
X98775000Y-118600000D01*
G75*
G02*
X99025000Y-118350000I250000J0D01*
G01*
X99975000Y-118350000D01*
G75*
G02*
X100225000Y-118600000I0J-250000D01*
G01*
X100225000Y-119100000D01*
G75*
G02*
X99975000Y-119350000I-250000J0D01*
G01*
G37*
%TD*%
%TO.C,C3*%
G36*
G01*
X102074999Y-129000000D02*
X102925001Y-129000000D01*
G75*
G02*
X103175000Y-129249999I0J-249999D01*
G01*
X103175000Y-130150001D01*
G75*
G02*
X102925001Y-130400000I-249999J0D01*
G01*
X102074999Y-130400000D01*
G75*
G02*
X101825000Y-130150001I0J249999D01*
G01*
X101825000Y-129249999D01*
G75*
G02*
X102074999Y-129000000I249999J0D01*
G01*
G37*
G36*
G01*
X102074999Y-126300000D02*
X102925001Y-126300000D01*
G75*
G02*
X103175000Y-126549999I0J-249999D01*
G01*
X103175000Y-127450001D01*
G75*
G02*
X102925001Y-127700000I-249999J0D01*
G01*
X102074999Y-127700000D01*
G75*
G02*
X101825000Y-127450001I0J249999D01*
G01*
X101825000Y-126549999D01*
G75*
G02*
X102074999Y-126300000I249999J0D01*
G01*
G37*
%TD*%
%TO.C,C4*%
G36*
G01*
X104525000Y-122900000D02*
X105475000Y-122900000D01*
G75*
G02*
X105725000Y-123150000I0J-250000D01*
G01*
X105725000Y-123650000D01*
G75*
G02*
X105475000Y-123900000I-250000J0D01*
G01*
X104525000Y-123900000D01*
G75*
G02*
X104275000Y-123650000I0J250000D01*
G01*
X104275000Y-123150000D01*
G75*
G02*
X104525000Y-122900000I250000J0D01*
G01*
G37*
G36*
G01*
X104525000Y-121000000D02*
X105475000Y-121000000D01*
G75*
G02*
X105725000Y-121250000I0J-250000D01*
G01*
X105725000Y-121750000D01*
G75*
G02*
X105475000Y-122000000I-250000J0D01*
G01*
X104525000Y-122000000D01*
G75*
G02*
X104275000Y-121750000I0J250000D01*
G01*
X104275000Y-121250000D01*
G75*
G02*
X104525000Y-121000000I250000J0D01*
G01*
G37*
%TD*%
%TO.C,C5*%
G36*
G01*
X109200000Y-113574999D02*
X109200000Y-114425001D01*
G75*
G02*
X108950001Y-114675000I-249999J0D01*
G01*
X108049999Y-114675000D01*
G75*
G02*
X107800000Y-114425001I0J249999D01*
G01*
X107800000Y-113574999D01*
G75*
G02*
X108049999Y-113325000I249999J0D01*
G01*
X108950001Y-113325000D01*
G75*
G02*
X109200000Y-113574999I0J-249999D01*
G01*
G37*
G36*
G01*
X106500000Y-113574999D02*
X106500000Y-114425001D01*
G75*
G02*
X106250001Y-114675000I-249999J0D01*
G01*
X105349999Y-114675000D01*
G75*
G02*
X105100000Y-114425001I0J249999D01*
G01*
X105100000Y-113574999D01*
G75*
G02*
X105349999Y-113325000I249999J0D01*
G01*
X106250001Y-113325000D01*
G75*
G02*
X106500000Y-113574999I0J-249999D01*
G01*
G37*
%TD*%
D14*
%TO.C,L1*%
X96500000Y-126250000D03*
X100100000Y-126250000D03*
%TD*%
%TO.C,R2*%
G36*
G01*
X100762500Y-113049999D02*
X100762500Y-113950001D01*
G75*
G02*
X100512501Y-114200000I-249999J0D01*
G01*
X99987499Y-114200000D01*
G75*
G02*
X99737500Y-113950001I0J249999D01*
G01*
X99737500Y-113049999D01*
G75*
G02*
X99987499Y-112800000I249999J0D01*
G01*
X100512501Y-112800000D01*
G75*
G02*
X100762500Y-113049999I0J-249999D01*
G01*
G37*
G36*
G01*
X98937500Y-113049999D02*
X98937500Y-113950001D01*
G75*
G02*
X98687501Y-114200000I-249999J0D01*
G01*
X98162499Y-114200000D01*
G75*
G02*
X97912500Y-113950001I0J249999D01*
G01*
X97912500Y-113049999D01*
G75*
G02*
X98162499Y-112800000I249999J0D01*
G01*
X98687501Y-112800000D01*
G75*
G02*
X98937500Y-113049999I0J-249999D01*
G01*
G37*
%TD*%
%TO.C,R3*%
G36*
G01*
X103762500Y-116299999D02*
X103762500Y-117200001D01*
G75*
G02*
X103512501Y-117450000I-249999J0D01*
G01*
X102987499Y-117450000D01*
G75*
G02*
X102737500Y-117200001I0J249999D01*
G01*
X102737500Y-116299999D01*
G75*
G02*
X102987499Y-116050000I249999J0D01*
G01*
X103512501Y-116050000D01*
G75*
G02*
X103762500Y-116299999I0J-249999D01*
G01*
G37*
G36*
G01*
X105587500Y-116299999D02*
X105587500Y-117200001D01*
G75*
G02*
X105337501Y-117450000I-249999J0D01*
G01*
X104812499Y-117450000D01*
G75*
G02*
X104562500Y-117200001I0J249999D01*
G01*
X104562500Y-116299999D01*
G75*
G02*
X104812499Y-116050000I249999J0D01*
G01*
X105337501Y-116050000D01*
G75*
G02*
X105587500Y-116299999I0J-249999D01*
G01*
G37*
%TD*%
%TO.C,R4*%
G36*
G01*
X102737500Y-119950001D02*
X102737500Y-119049999D01*
G75*
G02*
X102987499Y-118800000I249999J0D01*
G01*
X103512501Y-118800000D01*
G75*
G02*
X103762500Y-119049999I0J-249999D01*
G01*
X103762500Y-119950001D01*
G75*
G02*
X103512501Y-120200000I-249999J0D01*
G01*
X102987499Y-120200000D01*
G75*
G02*
X102737500Y-119950001I0J249999D01*
G01*
G37*
G36*
G01*
X104562500Y-119950001D02*
X104562500Y-119049999D01*
G75*
G02*
X104812499Y-118800000I249999J0D01*
G01*
X105337501Y-118800000D01*
G75*
G02*
X105587500Y-119049999I0J-249999D01*
G01*
X105587500Y-119950001D01*
G75*
G02*
X105337501Y-120200000I-249999J0D01*
G01*
X104812499Y-120200000D01*
G75*
G02*
X104562500Y-119950001I0J249999D01*
G01*
G37*
%TD*%
M02*
